  0
SECTION
  2
HEADER
  9
$ACADVER
  1
AC1015
  9
$ACADMAINTVER
 70
     6
  9
$DWGCODEPAGE
  3
ANSI_1252
  9
$INSBASE
 10
0.0
 20
0.0
 30
0.0
  9
$EXTMIN
 10
0.0
 20
0.0
 30
0.0
  9
$EXTMAX
 10
210.0
 20
297.0
 30
0.0
  9
$LIMMIN
 10
0.0
 20
0.0
  9
$LIMMAX
 10
210.0
 20
297.0
  9
$ORTHOMODE
 70
     0
  9
$REGENMODE
 70
     1
  9
$FILLMODE
 70
     1
  9
$QTEXTMODE
 70
     0
  9
$MIRRTEXT
 70
     1
  9
$LTSCALE
 40
1.0
  9
$ATTMODE
 70
     1
  9
$TEXTSIZE
 40
3.5
  9
$TRACEWID
 40
1.0
  9
$TEXTSTYLE
  7
Standard
  9
$CLAYER
  8
0
  9
$CELTYPE
  6
ByLayer
  9
$CECOLOR
 62
   256
  9
$CELTSCALE
 40
1.0
  9
$DISPSILH
 70
     0
  9
$DIMSCALE
 40
1.0
  9
$DIMASZ
 40
3.302
  9
$DIMEXO
 40
1.0
  9
$DIMDLI
 40
3.75
  9
$DIMRND
 40
0.0
  9
$DIMDLE
 40
0.0
  9
$DIMEXE
 40
1.0
  9
$DIMTP
 40
0.0
  9
$DIMTM
 40
0.0
  9
$DIMTXT
 40
3.5
  9
$DIMCEN
 40
2.5
  9
$DIMTSZ
 40
0.0
  9
$DIMTOL
 70
     0
  9
$DIMLIM
 70
     0
  9
$DIMTIH
 70
     1
  9
$DIMTOH
 70
     1
  9
$DIMSE1
 70
     0
  9
$DIMSE2
 70
     0
  9
$DIMTAD
 70
     1
  9
$DIMZIN
 70
     1
  9
$DIMBLK
  1

  9
$DIMASO
 70
     1
  9
$DIMSHO
 70
     1
  9
$DIMPOST
  1

  9
$DIMAPOST
  1

  9
$DIMALT
 70
     0
  9
$DIMALTD
 70
     3
  9
$DIMALTF
 40
0.0393700787
  9
$DIMLFAC
 40
1.0
  9
$DIMTOFL
 70
     1
  9
$DIMTVP
 40
0.0
  9
$DIMTIX
 70
     0
  9
$DIMSOXD
 70
     0
  9
$DIMSAH
 70
     0
  9
$DIMBLK1
  1

  9
$DIMBLK2
  1

  9
$DIMSTYLE
  2
ISO-25
  9
$DIMCLRD
 70
     0
  9
$DIMCLRE
 70
     0
  9
$DIMCLRT
 70
     0
  9
$DIMTFAC
 40
1.0
  9
$DIMGAP
 40
1.524
  9
$DIMJUST
 70
     0
  9
$DIMSD1
 70
     0
  9
$DIMSD2
 70
     0
  9
$DIMTOLJ
 70
     0
  9
$DIMTZIN
 70
     1
  9
$DIMALTZ
 70
     0
  9
$DIMALTTZ
 70
     0
  9
$DIMUPT
 70
     0
  9
$DIMDEC
 70
     2
  9
$DIMTDEC
 70
     2
  9
$DIMALTU
 70
     2
  9
$DIMALTTD
 70
     3
  9
$DIMTXSTY
  7
Standard
  9
$DIMAUNIT
 70
     0
  9
$DIMADEC
 70
     2
  9
$DIMALTRND
 40
0.0
  9
$DIMAZIN
 70
     0
  9
$DIMDSEP
 70
    44
  9
$DIMATFIT
 70
     3
  9
$DIMFRAC
 70
     0
  9
$DIMLDRBLK
  1

  9
$DIMLUNIT
 70
     2
  9
$DIMLWD
 70
    -2
  9
$DIMLWE
 70
    -2
  9
$DIMTMOVE
 70
     0
  9
$LUNITS
 70
     2
  9
$LUPREC
 70
     2
  9
$SKETCHINC
 40
1.0
  9
$FILLETRAD
 40
0.0
  9
$AUNITS
 70
     0
  9
$AUPREC
 70
     2
  9
$MENU
  1
.
  9
$ELEVATION
 40
0.0
  9
$PELEVATION
 40
0.0
  9
$THICKNESS
 40
0.0
  9
$LIMCHECK
 70
     0
  9
$CHAMFERA
 40
0.0
  9
$CHAMFERB
 40
0.0
  9
$CHAMFERC
 40
0.0
  9
$CHAMFERD
 40
0.0
  9
$SKPOLY
 70
     0
  9
$TDCREATE
 40
2461166.701169827
  9
$TDUCREATE
 40
2461166.40950316
  9
$TDUPDATE
 40
2461166.701170185
  9
$TDUUPDATE
 40
2461166.409503519
  9
$TDINDWG
 40
0.0000000116
  9
$TDUSRTIMER
 40
0.0000000116
  9
$USRTIMER
 70
     1
  9
$ANGBASE
 50
0.0
  9
$ANGDIR
 70
     0
  9
$PDMODE
 70
     0
  9
$PDSIZE
 40
-1.0
  9
$PLINEWID
 40
0.0
  9
$SPLFRAME
 70
     0
  9
$SPLINETYPE
 70
     6
  9
$SPLINESEGS
 70
     8
  9
$HANDSEED
  5
BD
  9
$SURFTAB1
 70
     6
  9
$SURFTAB2
 70
     6
  9
$SURFTYPE
 70
     6
  9
$SURFU
 70
     6
  9
$SURFV
 70
     6
  9
$UCSBASE
  2

  9
$UCSNAME
  2

  9
$UCSORG
 10
0.0
 20
0.0
 30
0.0
  9
$UCSXDIR
 10
1.0
 20
0.0
 30
0.0
  9
$UCSYDIR
 10
0.0
 20
1.0
 30
0.0
  9
$UCSORTHOREF
  2

  9
$UCSORTHOVIEW
 70
     0
  9
$UCSORGTOP
 10
0.0
 20
0.0
 30
0.0
  9
$UCSORGBOTTOM
 10
0.0
 20
0.0
 30
0.0
  9
$UCSORGLEFT
 10
0.0
 20
0.0
 30
0.0
  9
$UCSORGRIGHT
 10
0.0
 20
0.0
 30
0.0
  9
$UCSORGFRONT
 10
0.0
 20
0.0
 30
0.0
  9
$UCSORGBACK
 10
0.0
 20
0.0
 30
0.0
  9
$PUCSBASE
  2

  9
$PUCSNAME
  2

  9
$PUCSORG
 10
0.0
 20
0.0
 30
0.0
  9
$PUCSXDIR
 10
1.0
 20
0.0
 30
0.0
  9
$PUCSYDIR
 10
0.0
 20
1.0
 30
0.0
  9
$PUCSORTHOREF
  2

  9
$PUCSORTHOVIEW
 70
     0
  9
$PUCSORGTOP
 10
0.0
 20
0.0
 30
0.0
  9
$PUCSORGBOTTOM
 10
0.0
 20
0.0
 30
0.0
  9
$PUCSORGLEFT
 10
0.0
 20
0.0
 30
0.0
  9
$PUCSORGRIGHT
 10
0.0
 20
0.0
 30
0.0
  9
$PUCSORGFRONT
 10
0.0
 20
0.0
 30
0.0
  9
$PUCSORGBACK
 10
0.0
 20
0.0
 30
0.0
  9
$USERI1
 70
     0
  9
$USERI2
 70
     0
  9
$USERI3
 70
     0
  9
$USERI4
 70
     0
  9
$USERI5
 70
     0
  9
$USERR1
 40
0.0
  9
$USERR2
 40
0.0
  9
$USERR3
 40
0.0
  9
$USERR4
 40
0.0
  9
$USERR5
 40
0.0
  9
$WORLDVIEW
 70
     1
  9
$SHADEDGE
 70
     3
  9
$SHADEDIF
 70
    70
  9
$TILEMODE
 70
     1
  9
$MAXACTVP
 70
    64
  9
$PINSBASE
 10
0.0
 20
0.0
 30
0.0
  9
$PLIMCHECK
 70
     0
  9
$PEXTMIN
 10
1.0000000000E+20
 20
1.0000000000E+20
 30
1.0000000000E+20
  9
$PEXTMAX
 10
-1.0000000000E+20
 20
-1.0000000000E+20
 30
-1.0000000000E+20
  9
$PLIMMIN
 10
0.0
 20
0.0
  9
$PLIMMAX
 10
420.0
 20
297.0
  9
$UNITMODE
 70
     0
  9
$VISRETAIN
 70
     1
  9
$PLINEGEN
 70
     0
  9
$PSLTSCALE
 70
     1
  9
$TREEDEPTH
 70
  3020
  9
$CMLSTYLE
  2
Standard
  9
$CMLJUST
 70
     0
  9
$CMLSCALE
 40
20.0
  9
$PROXYGRAPHICS
 70
     1
  9
$MEASUREMENT
 70
     1
  9
$CELWEIGHT
370
    -1
  9
$ENDCAPS
280
     0
  9
$JOINSTYLE
280
     0
  9
$LWDISPLAY
290
     1
  9
$INSUNITS
 70
     4
  9
$HYPERLINKBASE
  1

  9
$STYLESHEET
  1

  9
$XEDIT
290
     1
  9
$CEPSNTYPE
380
     0
  9
$PSTYLEMODE
290
     1
  9
$FINGERPRINTGUID
  2
{3c30dd11-df4b-4d62-bfb1-51b78d53e8b5}
  9
$VERSIONGUID
  2
{FAEB1C32-E019-11D5-929B-00C0DF256EC4}
  9
$EXTNAMES
290
     1
  9
$PSVPSCALE
 40
0.0
  9
$OLESTARTUP
290
     0
  0
ENDSEC
  0
SECTION
  2
CLASSES
  0
CLASS
  1
ACDBDICTIONARYWDFLT
  2
AcDbDictionaryWithDefault
  3
ObjectDBX Classes
 90
        0
280
     0
281
     0
  0
CLASS
  1
VISUALSTYLE
  2
AcDbVisualStyle
  3
ObjectDBX Classes
 90
     4095
280
     0
281
     0
  0
CLASS
  1
MATERIAL
  2
AcDbMaterial
  3
ObjectDBX Classes
 90
     1153
280
     0
281
     0
  0
CLASS
  1
SCALE
  2
AcDbScale
  3
ObjectDBX Classes
 90
     1153
280
     0
281
     0
  0
CLASS
  1
TABLESTYLE
  2
AcDbTableStyle
  3
ObjectDBX Classes
 90
     4095
280
     0
281
     0
  0
CLASS
  1
MLEADERSTYLE
  2
AcDbMLeaderStyle
  3
ACDB_MLEADERSTYLE_CLASS
 90
     4095
280
     0
281
     0
  0
CLASS
  1
SUN
  2
AcDbSun
  3
SCENEOE
 90
     1153
280
     0
281
     0
  0
CLASS
  1
ACDBPLACEHOLDER
  2
AcDbPlaceHolder
  3
ObjectDBX Classes
 90
        0
280
     0
281
     0
  0
CLASS
  1
LAYOUT
  2
AcDbLayout
  3
ObjectDBX Classes
 90
        0
280
     0
281
     0
  0
ENDSEC
  0
SECTION
  2
TABLES
  0
TABLE
  2
VPORT
  5
8
330
0
100
AcDbSymbolTable
 70
     1
  0
VPORT
  5
29
330
8
100
AcDbSymbolTableRecord
100
AcDbViewportTableRecord
  2
*Active
 70
     0
 10
0.0
 20
0.0
 11
1.0
 21
1.0
 12
105.0
 22
148.5
 13
0.0
 23
0.0
 14
10.0
 24
10.0
 15
10.0
 25
10.0
 16
0.0
 26
0.0
 36
1.0
 17
0.0
 27
0.0
 37
0.0
 40
297.0
 41
0.7070707071
 42
50.0
 43
0.0
 44
0.0
 50
0.0
 51
0.0
 71
     0
 72
  2000
 73
     1
 74
     3
 75
     0
 76
     0
 77
     0
 78
     0
281
     0
 65
     1
110
0.0
120
0.0
130
0.0
111
1.0
121
0.0
131
0.0
112
0.0
122
1.0
132
0.0
 79
     0
146
0.0
  0
ENDTAB
  0
TABLE
  2
LTYPE
  5
5
330
0
100
AcDbSymbolTable
 70
     6
  0
LTYPE
  5
14
330
5
100
AcDbSymbolTableRecord
100
AcDbLinetypeTableRecord
  2
ByBlock
 70
     0
  3

 72
    65
 73
     0
 40
0.0
  0
LTYPE
  5
15
330
5
100
AcDbSymbolTableRecord
100
AcDbLinetypeTableRecord
  2
ByLayer
 70
     0
  3

 72
    65
 73
     0
 40
0.0
  0
LTYPE
  5
16
330
5
100
AcDbSymbolTableRecord
100
AcDbLinetypeTableRecord
  2
Continuous
 70
     0
  3
Solid line
 72
    65
 73
     0
 40
0.0
  0
LTYPE
  5
5E
330
5
100
AcDbSymbolTableRecord
100
AcDbLinetypeTableRecord
  2
HIDDEN
 70
     0
  3
Hidden __ __ __ __ __ __ __ __ __ __ __ __ __ __
 72
    65
 73
     2
 40
1.905
 49
1.27
 74
     0
 49
-0.635
 74
     0
  0
LTYPE
  5
5F
330
5
100
AcDbSymbolTableRecord
100
AcDbLinetypeTableRecord
  2
PHANTOM
 70
     0
  3
Phantom ______  __  __  ______  __  __  ______
 72
    65
 73
     6
 40
12.7
 49
6.35
 74
     0
 49
-1.27
 74
     0
 49
1.27
 74
     0
 49
-1.27
 74
     0
 49
1.27
 74
     0
 49
-1.27
 74
     0
  0
LTYPE
  5
60
330
5
100
AcDbSymbolTableRecord
100
AcDbLinetypeTableRecord
  2
CENTER
 70
     0
  3
Center ____ _ ____ _ ____ _ ____ _ ____ _ ____
 72
    65
 73
     4
 40
10.16
 49
6.35
 74
     0
 49
-1.27
 74
     0
 49
1.27
 74
     0
 49
-1.27
 74
     0
  0
LTYPE
  5
61
330
5
100
AcDbSymbolTableRecord
100
AcDbLinetypeTableRecord
  2
CENTERX2
 70
     0
  3
Center (2x) ________  __  ________  __  _____
 72
    65
 73
     4
 40
20.32
 49
12.7
 74
     0
 49
-2.54
 74
     0
 49
2.54
 74
     0
 49
-2.54
 74
     0
  0
LTYPE
  5
62
330
5
100
AcDbSymbolTableRecord
100
AcDbLinetypeTableRecord
  2
DOT2
 70
     0
  3
Dot (.5x) ........................................
 72
    65
 73
     2
 40
0.635
 49
0.0
 74
     0
 49
-0.635
 74
     0
  0
ENDTAB
  0
TABLE
  2
LAYER
  5
2
330
0
100
AcDbSymbolTable
 70
     2
  0
LAYER
  5
10
330
2
100
AcDbSymbolTableRecord
100
AcDbLayerTableRecord
  2
0
 70
     0
 62
     7
  6
Continuous
370
    -3
390
F
  0
LAYER
  5
63
330
2
100
AcDbSymbolTableRecord
100
AcDbLayerTableRecord
  2
FORMAT
 70
     0
 62
     7
  6
Continuous
370
    -3
390
F
  0
ENDTAB
  0
TABLE
  2
STYLE
  5
3
330
0
100
AcDbSymbolTable
 70
     1
  0
STYLE
  5
11
330
3
100
AcDbSymbolTableRecord
100
AcDbTextStyleTableRecord
  2
Standard
 70
     0
 40
0.0
 41
1.0
 50
0.0
 71
     0
 42
3.5
  3
txt
  4

  0
ENDTAB
  0
TABLE
  2
VIEW
  5
6
330
0
100
AcDbSymbolTable
 70
     0
  0
ENDTAB
  0
TABLE
  2
UCS
  5
7
330
0
100
AcDbSymbolTable
 70
     0
  0
ENDTAB
  0
TABLE
  2
APPID
  5
9
330
0
100
AcDbSymbolTable
 70
     1
  0
APPID
  5
12
330
9
100
AcDbSymbolTableRecord
100
AcDbRegAppTableRecord
  2
ACAD
 70
     0
  0
ENDTAB
  0
TABLE
  2
DIMSTYLE
  5
A
330
0
100
AcDbSymbolTable
 70
     1
100
AcDbDimStyleTable
  0
DIMSTYLE
105
27
330
A
100
AcDbSymbolTableRecord
100
AcDbDimStyleTableRecord
  2
ISO-25
 70
     0
 41
2.5
 42
0.625
 43
3.75
 44
1.25
 73
     0
 74
     0
 77
     1
 78
     8
140
2.5
141
2.5
143
0.0393700787
147
0.625
171
     3
172
     1
178
     0
271
     2
272
     2
274
     3
278
    44
283
     0
284
     8
340
11
  0
ENDTAB
  0
TABLE
  2
BLOCK_RECORD
  5
1
330
0
100
AcDbSymbolTable
 70
     1
  0
BLOCK_RECORD
  5
1F
330
1
100
AcDbSymbolTableRecord
100
AcDbBlockTableRecord
  2
*Model_Space
340
22
  0
BLOCK_RECORD
  5
1B
330
1
100
AcDbSymbolTableRecord
100
AcDbBlockTableRecord
  2
*Paper_Space
340
1E
  0
BLOCK_RECORD
  5
23
330
1
100
AcDbSymbolTableRecord
100
AcDbBlockTableRecord
  2
*Paper_Space0
340
26
  0
ENDTAB
  0
ENDSEC
  0
SECTION
  2
BLOCKS
  0
BLOCK
  5
20
330
1F
100
AcDbEntity
  8
0
100
AcDbBlockBegin
  2
*Model_Space
 70
     0
 10
0.0
 20
0.0
 30
0.0
  3
*Model_Space
  1

  0
ENDBLK
  5
21
330
1F
100
AcDbEntity
  8
0
100
AcDbBlockEnd
  0
BLOCK
  5
1C
330
1B
100
AcDbEntity
 67
     1
  8
0
100
AcDbBlockBegin
  2
*Paper_Space
 70
     0
 10
0.0
 20
0.0
 30
0.0
  3
*Paper_Space
  1

  0
ENDBLK
  5
1D
330
1B
100
AcDbEntity
 67
     1
  8
0
100
AcDbBlockEnd
  0
BLOCK
  5
24
330
23
100
AcDbEntity
  8
0
100
AcDbBlockBegin
  2
*Paper_Space0
 70
     0
 10
0.0
 20
0.0
 30
0.0
  3
*Paper_Space0
  1

  0
ENDBLK
  5
25
330
23
100
AcDbEntity
  8
0
100
AcDbBlockEnd
  0
ENDSEC
  0
SECTION
  2
ENTITIES
  0
SPLINE
  5
64
330
1F
100
AcDbEntity
  8
0
  6
Continuous
 62
     7
370
    25
100
AcDbSpline
210
0.0
220
0.0
230
1.0
 70
     8
 71
     3
 72
    15
 73
    11
 74
     0
 42
0.00000001
 43
0.00000001
 40
0.0
 40
0.0
 40
0.0
 40
0.0
 40
0.1235019652561729
 40
0.2441935155544928
 40
0.3647391758051698
 40
0.4857421782483571
 40
0.6093351414249973
 40
0.7344805693167297
 40
0.8644843877991789
 40
0.9999999999999999
 40
0.9999999999999999
 40
0.9999999999999999
 40
0.9999999999999999
 10
134.2062905430333
 20
221.8872210093659
 30
0.0
 10
134.1148202377615
 20
221.8385284042904
 30
0.0
 10
133.9339611286225
 20
221.7422512447307
 30
0.0
 10
133.6832999589902
 20
221.5656014832741
 30
0.0
 10
133.4542901973462
 20
221.3655810912293
 30
0.0
 10
133.242539973871
 20
221.1435980823013
 30
0.0
 10
133.0576543589909
 20
220.8939260914843
 30
0.0
 10
132.8921533371703
 20
220.6226053343174
 30
0.0
 10
132.7462000616786
 20
220.3285866582593
 30
0.0
 10
132.6706328596833
 20
220.1190302923752
 30
0.0
 10
132.6320649265782
 20
220.0120770681225
 30
0.0
  0
SPLINE
  5
65
330
1F
100
AcDbEntity
  8
0
  6
Continuous
 62
     7
370
    25
100
AcDbSpline
210
0.0
220
0.0
230
1.0
 70
     8
 71
     3
 72
    15
 73
    11
 74
     0
 42
0.00000001
 43
0.00000001
 40
0.0
 40
0.0
 40
0.0
 40
0.0
 40
0.2167981116810191
 40
0.401979663547382
 40
0.5561567094142096
 40
0.6811335253457863
 40
0.7784439149554291
 40
0.8558117549681665
 40
0.9244913843093703
 40
1.0
 40
1.0
 40
1.0
 40
1.0
 10
132.6320649265782
 20
220.0120770681225
 30
0.0
 10
132.5891693836746
 20
219.8807141620877
 30
0.0
 10
132.509633931219
 20
219.6371455425964
 30
0.0
 10
132.4202374592807
 20
219.2938176500756
 30
0.0
 10
132.3705159604239
 20
219.001573868471
 30
0.0
 10
132.3568859229191
 20
218.7615085635889
 30
0.0
 10
132.3784153447507
 20
218.5699009164546
 30
0.0
 10
132.4452121884518
 20
218.4257917364907
 30
0.0
 10
132.5621529858607
 20
218.3338219599531
 30
0.0
 10
132.6553699256667
 20
218.3253844062576
 30
0.0
 10
132.7041858473953
 20
218.3209658213776
 30
0.0
  0
SPLINE
  5
66
330
1F
100
AcDbEntity
  8
0
  6
Continuous
 62
     7
370
    25
100
AcDbSpline
210
0.0
220
0.0
230
1.0
 70
     8
 71
     3
 72
    15
 73
    11
 74
     0
 42
0.00000001
 43
0.00000001
 40
0.0
 40
0.0
 40
0.0
 40
0.0
 40
0.0958946437185602
 40
0.1917783524187034
 40
0.2926190039864784
 40
0.4041631352052144
 40
0.5282812050000377
 40
0.6678931466146478
 40
0.8250209803545093
 40
1.0
 40
1.0
 40
1.0
 40
1.0
 10
132.7041858473953
 20
218.3209658213776
 30
0.0
 10
132.7819908514851
 20
218.3263155071398
 30
0.0
 10
132.9375919874366
 20
218.3370142686309
 30
0.0
 10
133.1620084735739
 20
218.4223414404503
 30
0.0
 10
133.3727872331905
 20
218.5584567928161
 30
0.0
 10
133.5696013875426
 20
218.749069025155
 30
0.0
 10
133.7532333687312
 20
218.9920941492479
 30
0.0
 10
133.9273480412031
 20
219.2856430062423
 30
0.0
 10
134.0881660324589
 20
219.6327693561433
 30
0.0
 10
134.1785597299007
 20
219.8860764887664
 30
0.0
 10
134.2261859694656
 20
220.0195378530345
 30
0.0
  0
LINE
  5
67
330
1F
100
AcDbEntity
  8
0
  6
Continuous
 62
     7
370
    25
100
AcDbLine
 10
134.2261859695
 20
220.019537853
 30
0.0
 11
135.0468723098
 21
222.4368321646
 31
0.0
  0
SPLINE
  5
68
330
1F
100
AcDbEntity
  8
0
  6
Continuous
 62
     7
370
    25
100
AcDbSpline
210
0.0
220
0.0
230
1.0
 70
     8
 71
     3
 72
     9
 73
     5
 74
     0
 42
0.00000001
 43
0.00000001
 40
0.0
 40
0.0
 40
0.0
 40
0.0
 40
0.5031358480080182
 40
1.0
 40
1.0
 40
1.0
 40
1.0
 10
135.0468723097976
 20
222.436832164558
 30
0.0
 10
134.9147123931295
 20
222.3311611761036
 30
0.0
 10
134.6520399614367
 20
222.1211364106795
 30
0.0
 10
134.3542511355033
 20
221.9648661165434
 30
0.0
 10
134.2062905430333
 20
221.8872210093659
 30
0.0
  0
SPLINE
  5
69
330
1F
100
AcDbEntity
  8
0
  6
Continuous
 62
     7
370
    25
100
AcDbSpline
210
0.0
220
0.0
230
1.0
 70
     8
 71
     3
 72
    23
 73
    19
 74
     0
 42
0.00000001
 43
0.00000001
 40
0.0
 40
0.0
 40
0.0
 40
0.0
 40
0.0332225670340755
 40
0.0680693006163827
 40
0.1045801215726312
 40
0.1446211974331246
 40
0.1881518613550042
 40
0.2358468544540935
 40
0.2880984554108108
 40
0.3455743853202431
 40
0.4080675679179365
 40
0.4754172216605069
 40
0.5490252925159433
 40
0.627468695374205
 40
0.7120517013112213
 40
0.8019842754356404
 40
0.8984555787062705
 40
1.0
 40
1.0
 40
1.0
 40
1.0
 10
126.34262324567
 20
224.8466656911693
 30
0.0
 10
126.3018582096085
 20
224.8437033047157
 30
0.0
 10
126.2183352388681
 20
224.8376337082921
 30
0.0
 10
126.0928220421549
 20
224.8054286105039
 30
0.0
 10
125.9695873246058
 20
224.744676221947
 30
0.0
 10
125.8440914707998
 20
224.6660867202502
 30
0.0
 10
125.7238287918927
 20
224.5579360001515
 30
0.0
 10
125.5972690775253
 20
224.4349033234752
 30
0.0
 10
125.4772015392542
 20
224.2827032718013
 30
0.0
 10
125.3524910684813
 20
224.1117145374869
 30
0.0
 10
125.2282449127049
 20
223.9176601164253
 30
0.0
 10
125.106739350706
 20
223.6990277566211
 30
0.0
 10
124.9833217049814
 20
223.4592488853011
 30
0.0
 10
124.8582163189039
 20
223.196653159622
 30
0.0
 10
124.7341221040095
 20
222.9115170063665
 30
0.0
 10
124.6131355187222
 20
222.6011831925983
 30
0.0
 10
124.4888246138561
 20
222.2698250170059
 30
0.0
 10
124.4089583711463
 20
222.0399302930068
 30
0.0
 10
124.3680021722651
 20
221.9220380056224
 30
0.0
  0
SPLINE
  5
6A
330
1F
100
AcDbEntity
  8
0
  6
Continuous
 62
     7
370
    25
100
AcDbSpline
210
0.0
220
0.0
230
1.0
 70
     8
 71
     3
 72
    23
 73
    19
 74
     0
 42
0.00000001
 43
0.00000001
 40
0.0
 40
0.0
 40
0.0
 40
0.0
 40
0.1173186932314665
 40
0.2254487174187662
 40
0.326094850172086
 40
0.4186563153634626
 40
0.503666947467648
 40
0.5799338816721717
 40
0.6488901269072901
 40
0.7101301327436367
 40
0.7638081610609759
 40
0.810300597638672
 40
0.850712474864184
 40
0.884912607989616
 40
0.9146878208302273
 40
0.9424255017491985
 40
0.9700044989809727
 40
0.9999999999999999
 40
0.9999999999999999
 40
0.9999999999999999
 40
0.9999999999999999
 10
124.3680021722651
 20
221.9220380056224
 30
0.0
 10
124.3208360943011
 20
221.7830116834765
 30
0.0
 10
124.2301980937425
 20
221.5158478994971
 30
0.0
 10
124.1110096586755
 20
221.1255428254861
 30
0.0
 10
124.0067207910729
 20
220.7631906669616
 30
0.0
 10
123.9156753087226
 20
220.4271143946177
 30
0.0
 10
123.8440604928165
 20
220.1176098528807
 30
0.0
 10
123.787668587043
 20
219.8349943502466
 30
0.0
 10
123.7508616202473
 20
219.5791714085977
 30
0.0
 10
123.7269323132564
 20
219.3502976262786
 30
0.0
 10
123.7203359411171
 20
219.148007362685
 30
0.0
 10
123.7333850045336
 20
218.9726185384175
 30
0.0
 10
123.7561800218279
 20
218.8217625724459
 30
0.0
 10
123.8060138849188
 20
218.7005047244006
 30
0.0
 10
123.8638625892975
 20
218.5996244991708
 30
0.0
 10
123.9477226847977
 20
218.5314493824974
 30
0.0
 10
124.0460249651457
 20
218.4846849877976
 30
0.0
 10
124.1187332672067
 20
218.4816897233434
 30
0.0
 10
124.156613266422
 20
218.480129232836
 30
0.0
  0
SPLINE
  5
6B
330
1F
100
AcDbEntity
  8
0
  6
Continuous
 62
     7
370
    25
100
AcDbSpline
210
0.0
220
0.0
230
1.0
 70
     8
 71
     3
 72
    15
 73
    11
 74
     0
 42
0.00000001
 43
0.00000001
 40
0.0
 40
0.0
 40
0.0
 40
0.0
 40
0.0865830502910668
 40
0.17714756636814
 40
0.2747152544741199
 40
0.3849974584902138
 40
0.5110321350205697
 40
0.6548625186630328
 40
0.8178640009707927
 40
1.0
 40
1.0
 40
1.0
 40
1.0
 10
124.156613266422
 20
218.480129232836
 30
0.0
 10
124.225396500662
 20
218.4855640483915
 30
0.0
 10
124.3661259218546
 20
218.4966835959945
 30
0.0
 10
124.5686450273867
 20
218.5856711746341
 30
0.0
 10
124.7613467798378
 20
218.7244413450223
 30
0.0
 10
124.943169993343
 20
218.9184852600464
 30
0.0
 10
125.1166245197022
 20
219.1654482965554
 30
0.0
 10
125.2819846676344
 20
219.4664163544489
 30
0.0
 10
125.4404634398133
 20
219.8203030477013
 30
0.0
 10
125.5328623952094
 20
220.0776899888396
 30
0.0
 10
125.5816231846349
 20
220.2135182607494
 30
0.0
  0
LINE
  5
6C
330
1F
100
AcDbEntity
  8
0
  6
Continuous
 62
     7
370
    25
100
AcDbLine
 10
125.5816231846
 20
220.2135182607
 30
0.0
 11
126.3998225967
 21
222.2801556814
 31
0.0
  0
LINE
  5
6D
330
1F
100
AcDbEntity
  8
0
  6
Continuous
 62
     7
370
    25
100
AcDbLine
 10
126.3998225967
 20
222.2801556814
 30
0.0
 11
126.6708977818
 21
223.4415511994
 31
0.0
  0
SPLINE
  5
6E
330
1F
100
AcDbEntity
  8
0
  6
Continuous
 62
     7
370
    25
100
AcDbSpline
210
0.0
220
0.0
230
1.0
 70
     8
 71
     3
 72
    15
 73
    11
 74
     0
 42
0.00000001
 43
0.00000001
 40
0.0
 40
0.0
 40
0.0
 40
0.0
 40
0.2020121184554832
 40
0.3753640666993884
 40
0.5204238177487046
 40
0.6409341442400792
 40
0.7397797400201765
 40
0.8247571051265109
 40
0.9063543916550661
 40
1.0
 40
1.0
 40
1.0
 40
1.0
 10
126.6708977818028
 20
223.4415511993887
 30
0.0
 10
126.6970641150294
 20
223.5505691271656
 30
0.0
 10
126.7456844716973
 20
223.7531382256254
 30
0.0
 10
126.7825629329996
 20
224.0398339485698
 30
0.0
 10
126.7939230017626
 20
224.2835039989951
 30
0.0
 10
126.7721952636751
 20
224.4854516981358
 30
0.0
 10
126.7173245884928
 20
224.6474438218366
 30
0.0
 10
126.6239806065187
 20
224.765615827497
 30
0.0
 10
126.4928086520164
 20
224.8364675896483
 30
0.0
 10
126.3949282106406
 20
224.8431140055841
 30
0.0
 10
126.34262324567
 20
224.8466656911693
 30
0.0
  0
SPLINE
  5
6F
330
1F
100
AcDbEntity
  8
0
  6
Continuous
 62
     7
370
    25
100
AcDbSpline
210
0.0
220
0.0
230
1.0
 70
     8
 71
     3
 72
    23
 73
    19
 74
     0
 42
0.00000001
 43
0.00000001
 40
0.0
 40
0.0
 40
0.0
 40
0.0
 40
0.116746245441421
 40
0.2256389150370189
 40
0.3259498596852256
 40
0.4186687835944181
 40
0.5029435879994525
 40
0.5796232874677104
 40
0.6483037008993655
 40
0.7095184300901091
 40
0.7630738552692468
 40
0.8098701896552715
 40
0.8499183761658166
 40
0.8843853259249158
 40
0.9144303361359251
 40
0.9422515864758741
 40
0.9698841212200033
 40
1.0
 40
1.0
 40
1.0
 40
1.0
 10
114.8878314772781
 20
221.6633974620026
 30
0.0
 10
114.8384293094131
 20
221.5160035753025
 30
0.0
 10
114.7429482811763
 20
221.2311310592541
 30
0.0
 10
114.6129938021673
 20
220.8169618725435
 30
0.0
 10
114.504391792276
 20
220.4298591537502
 30
0.0
 10
114.408350869538
 20
220.073298702481
 30
0.0
 10
114.3331748502972
 20
219.7438563897335
 30
0.0
 10
114.2772087455655
 20
219.443282245609
 30
0.0
 10
114.2308867472375
 20
219.1719265553318
 30
0.0
 10
114.2127695280766
 20
218.9280567567856
 30
0.0
 10
114.2060215801707
 20
218.7130496402342
 30
0.0
 10
114.2156843170374
 20
218.525708708556
 30
0.0
 10
114.2489820752432
 20
218.3673441765443
 30
0.0
 10
114.292987748161
 20
218.23424043623
 30
0.0
 10
114.3622711081649
 20
218.130866442455
 30
0.0
 10
114.4490273399412
 20
218.0547788818903
 30
0.0
 10
114.5567004543632
 20
218.0106750284457
 30
0.0
 10
114.6337659032645
 20
218.0053933836446
 30
0.0
 10
114.673955643131
 20
218.002638998461
 30
0.0
  0
SPLINE
  5
70
330
1F
100
AcDbEntity
  8
0
  6
Continuous
 62
     7
370
    25
100
AcDbSpline
210
0.0
220
0.0
230
1.0
 70
     8
 71
     3
 72
    23
 73
    19
 74
     0
 42
0.00000001
 43
0.00000001
 40
0.0
 40
0.0
 40
0.0
 40
0.0
 40
0.0296239393480116
 40
0.0605370267089045
 40
0.0945795914477851
 40
0.1319027716052094
 40
0.1739406786593729
 40
0.2207555372225826
 40
0.2727405930461135
 40
0.3303519109503693
 40
0.3933175953542108
 40
0.4621551691223112
 40
0.5369212708891941
 40
0.6172233445733721
 40
0.7038649064893732
 40
0.7963777149942936
 40
0.8953143739520848
 40
1.0
 40
1.0
 40
1.0
 40
1.0
 10
114.673955643131
 20
218.002638998461
 30
0.0
 10
114.7182067339471
 20
218.0057981513102
 30
0.0
 10
114.808634594846
 20
218.012253934188
 30
0.0
 10
114.9437414724632
 20
218.0578590120949
 30
0.0
 10
115.0780213232743
 20
218.1314279043816
 30
0.0
 10
115.2139866048367
 20
218.2331888346491
 30
0.0
 10
115.3496264496836
 20
218.3642252206487
 30
0.0
 10
115.4900389491978
 20
218.5210564191281
 30
0.0
 10
115.627101858345
 20
218.7102769831684
 30
0.0
 10
115.773445255059
 20
218.9224110362002
 30
0.0
 10
115.9121486351399
 20
219.1690232641328
 30
0.0
 10
116.0608269734311
 20
219.4391335034521
 30
0.0
 10
116.2059758436137
 20
219.7403364118187
 30
0.0
 10
116.3528937138568
 20
220.069860017238
 30
0.0
 10
116.5013154751357
 20
220.4275963249159
 30
0.0
 10
116.6532111142788
 20
220.8138943448612
 30
0.0
 10
116.8075060087189
 20
221.2281474337542
 30
0.0
 10
116.9062102983124
 20
221.515608773938
 30
0.0
 10
116.9569558262364
 20
221.6633974620026
 30
0.0
  0
SPLINE
  5
71
330
1F
100
AcDbEntity
  8
0
  6
Continuous
 62
     7
370
    25
100
AcDbSpline
210
0.0
220
0.0
230
1.0
 70
     8
 71
     3
 72
    23
 73
    19
 74
     0
 42
0.00000001
 43
0.00000001
 40
0.0
 40
0.0
 40
0.0
 40
0.0
 40
0.1166156270148871
 40
0.2253864649480632
 40
0.325756784000341
 40
0.4182152535745304
 40
0.5023957693597789
 40
0.5791082384244036
 40
0.6475311854513685
 40
0.7087311616686572
 40
0.7622266677870766
 40
0.8090161262021124
 40
0.8488984812659194
 40
0.8835452148953246
 40
0.9139089061232335
 40
0.9416990293984119
 40
0.9693006482171879
 40
1.0
 40
1.0
 40
1.0
 40
1.0
 10
116.9569558262364
 20
221.6633974620026
 30
0.0
 10
117.0064686835405
 20
221.8107597668736
 30
0.0
 10
117.102163644524
 20
222.0955712437884
 30
0.0
 10
117.2307030064398
 20
222.510382027646
 30
0.0
 10
117.3443101871774
 20
222.8960773980277
 30
0.0
 10
117.4360682982053
 20
223.2538586491082
 30
0.0
 10
117.5101619524699
 20
223.5833293340391
 30
0.0
 10
117.5730341564404
 20
223.8826503518324
 30
0.0
 10
117.6088444370587
 20
224.1555460308938
 30
0.0
 10
117.6326807517503
 20
224.3984873701253
 30
0.0
 10
117.6400019368512
 20
224.6140011387713
 30
0.0
 10
117.6246524508759
 20
224.8005309289609
 30
0.0
 10
117.5972925507655
 20
224.9602440638369
 30
0.0
 10
117.5491155523954
 20
225.0929346209801
 30
0.0
 10
117.477521596593
 20
225.1952800041829
 30
0.0
 10
117.3908828872318
 20
225.2720994165865
 30
0.0
 10
117.2823055257288
 20
225.3164208494836
 30
0.0
 10
117.2043956332431
 20
225.32148782486
 30
0.0
 10
117.1633708754715
 20
225.3241559255443
 30
0.0
  0
SPLINE
  5
72
330
1F
100
AcDbEntity
  8
0
  6
Continuous
 62
     7
370
    25
100
AcDbSpline
210
0.0
220
0.0
230
1.0
 70
     8
 71
     3
 72
    23
 73
    19
 74
     0
 42
0.00000001
 43
0.00000001
 40
0.0
 40
0.0
 40
0.0
 40
0.0
 40
0.0291124045468065
 40
0.0600683093827656
 40
0.0936690792705053
 40
0.1310439554722973
 40
0.1731400889021081
 40
0.2200197903590676
 40
0.2720768502760594
 40
0.3294588433966277
 40
0.3925117410765318
 40
0.4611816561882787
 40
0.5360513158968436
 40
0.6166931636274181
 40
0.7034547320918967
 40
0.7960956793629372
 40
0.8951693747117735
 40
1.0
 40
1.0
 40
1.0
 40
1.0
 10
117.1633708754715
 20
225.3241559255443
 30
0.0
 10
117.1199748787905
 20
225.3208956486428
 30
0.0
 10
117.0304348976317
 20
225.31416864259
 30
0.0
 10
116.8965689547621
 20
225.2695506926538
 30
0.0
 10
116.7639047227861
 20
225.1945321306854
 30
0.0
 10
116.6282531069301
 20
225.0937280330154
 30
0.0
 10
116.492664107065
 20
224.9625503650767
 30
0.0
 10
116.3523915185848
 20
224.8056605296239
 30
0.0
 10
116.2148748514086
 20
224.6172819984824
 30
0.0
 10
116.0719474817124
 20
224.4034441931163
 30
0.0
 10
115.9320190008164
 20
224.1585803674732
 30
0.0
 10
115.7869529390006
 20
223.8869226583623
 30
0.0
 10
115.6415946885226
 20
223.5859755493814
 30
0.0
 10
115.4912760286336
 20
223.2575795856006
 30
0.0
 10
115.3436934660979
 20
222.8991008352382
 30
0.0
 10
115.1915108616093
 20
222.512929394999
 30
0.0
 10
115.037299220563
 20
222.0986395832393
 30
0.0
 10
114.9385830918775
 20
221.8111834652497
 30
0.0
 10
114.8878314772781
 20
221.6633974620026
 30
0.0
  0
LINE
  5
73
330
1F
100
AcDbEntity
  8
0
  6
Continuous
 62
     7
370
    25
100
AcDbLine
 10
89.9551085116
 20
213.8023353179
 30
0.0
 11
89.9551085116
 21
231.8534679608
 31
0.0
  0
LINE
  5
74
330
1F
100
AcDbEntity
  8
0
  6
Continuous
 62
     7
370
    25
100
AcDbLine
 10
89.9551085116
 20
231.8534679608
 30
0.0
 11
142.5584652589
 21
231.8534679608
 31
0.0
  0
LINE
  5
75
330
1F
100
AcDbEntity
  8
0
  6
Continuous
 62
     7
370
    25
100
AcDbLine
 10
142.5584652589
 20
213.8023353179
 30
0.0
 11
142.5584652589
 21
231.8534679608
 31
0.0
  0
LINE
  5
76
330
1F
100
AcDbEntity
  8
0
  6
Continuous
 62
     7
370
    25
100
AcDbLine
 10
89.9551085116
 20
213.8023353179
 30
0.0
 11
142.5584652589
 21
213.8023353179
 31
0.0
  0
LINE
  5
77
330
1F
100
AcDbEntity
  8
0
  6
Continuous
 62
     7
370
    25
100
AcDbLine
 10
98.5760687311
 20
228.8257509776
 30
0.0
 11
101.127657171
 21
220.9819791067
 31
0.0
  0
LINE
  5
78
330
1F
100
AcDbEntity
  8
0
  6
Continuous
 62
     7
370
    25
100
AcDbLine
 10
101.127657171
 20
220.9819791067
 30
0.0
 11
103.793644313
 21
228.8257509776
 31
0.0
  0
LINE
  5
79
330
1F
100
AcDbEntity
  8
0
  6
Continuous
 62
     7
370
    25
100
AcDbLine
 10
103.793644313
 20
228.8257509776
 30
0.0
 11
98.5760687311
 21
228.8257509776
 31
0.0
  0
LINE
  5
7A
330
1F
100
AcDbEntity
  8
0
  6
Continuous
 62
     7
370
    25
100
AcDbLine
 10
96.1488267064
 20
224.5954859325
 30
0.0
 11
93.691741542
 21
217.3659853526
 31
0.0
  0
LINE
  5
7B
330
1F
100
AcDbEntity
  8
0
  6
Continuous
 62
     7
370
    25
100
AcDbLine
 10
93.691741542
 20
217.3659853526
 30
0.0
 11
98.4741046706
 21
217.3659853526
 31
0.0
  0
LINE
  5
7C
330
1F
100
AcDbEntity
  8
0
  6
Continuous
 62
     7
370
    25
100
AcDbLine
 10
98.4741046706
 20
217.3659853526
 30
0.0
 11
96.1488267064
 21
224.5954859325
 31
0.0
  0
LINE
  5
7D
330
1F
100
AcDbEntity
  8
0
  6
Continuous
 62
     7
370
    25
100
AcDbLine
 10
96.4721273859
 20
228.8257509776
 30
0.0
 11
92.5775976618
 21
228.8257509776
 31
0.0
  0
LINE
  5
7E
330
1F
100
AcDbEntity
  8
0
  6
Continuous
 62
     7
370
    25
100
AcDbLine
 10
92.5775976618
 20
228.8257509776
 30
0.0
 11
92.5775976618
 21
217.3659853526
 31
0.0
  0
LINE
  5
7F
330
1F
100
AcDbEntity
  8
0
  6
Continuous
 62
     7
370
    25
100
AcDbLine
 10
92.5775976618
 20
217.3659853526
 30
0.0
 11
96.4721273859
 21
228.8257509776
 31
0.0
  0
LINE
  5
80
330
1F
100
AcDbEntity
  8
0
  6
Continuous
 62
     7
370
    25
100
AcDbLine
 10
105.8296787851
 20
214.4150458876
 30
0.0
 11
106.0231856082
 21
216.747260978
 31
0.0
  0
LINE
  5
81
330
1F
100
AcDbEntity
  8
0
  6
Continuous
 62
     7
370
    25
100
AcDbLine
 10
106.0231856082
 20
216.747260978
 30
0.0
 11
105.6861967523
 21
216.2966061819
 31
0.0
  0
SPLINE
  5
82
330
1F
100
AcDbEntity
  8
0
  6
Continuous
 62
     7
370
    25
100
AcDbSpline
210
0.0
220
0.0
230
1.0
 70
     8
 71
     3
 72
    14
 73
    10
 74
     0
 42
0.00000001
 43
0.00000001
 40
0.0
 40
0.0
 40
0.0
 40
0.0
 40
0.1648743106606043
 40
0.3164407511534919
 40
0.454991435942607
 40
0.5810733326559961
 40
0.6964036106181125
 40
0.80387911337282
 40
0.8485035633723522
 40
0.8485035633723522
 40
0.8485035633723522
 40
0.8485035633723522
 10
105.6861967523432
 20
216.296606181892
 30
0.0
 10
105.5672022876488
 20
216.142410236946
 30
0.0
 10
105.3388180254788
 20
215.8464643103306
 30
0.0
 10
104.9780860015489
 20
215.4473867777055
 30
0.0
 10
104.6204305722264
 20
215.1093107216009
 30
0.0
 10
104.265981267252
 20
214.8330669062659
 30
0.0
 10
103.9155522737918
 20
214.6141474703293
 30
0.0
 10
103.6263623995687
 20
214.4853627354435
 30
0.0
 10
103.4548804449313
 20
214.4294293263117
 30
0.0
 10
103.404061344984
 20
214.4150458848807
 30
0.0
  0
LINE
  5
83
330
1F
100
AcDbEntity
  8
0
  6
Continuous
 62
     7
370
    25
100
AcDbLine
 10
103.4040613442
 20
214.4150458876
 30
0.0
 11
105.8296787851
 21
214.4150458876
 31
0.0
  0
LINE
  5
84
330
1F
100
AcDbEntity
  8
0
  6
Continuous
 62
     7
370
    25
100
AcDbLine
 10
104.9077881932
 20
225.9870977655
 30
0.0
 11
104.9077881932
 21
228.8257509776
 31
0.0
  0
LINE
  5
85
330
1F
100
AcDbEntity
  8
0
  6
Continuous
 62
     7
370
    25
100
AcDbLine
 10
104.9077881932
 20
228.8257509776
 30
0.0
 11
101.0132584691
 21
217.3659853526
 31
0.0
  0
LINE
  5
86
330
1F
100
AcDbEntity
  8
0
  6
Continuous
 62
     7
370
    25
100
AcDbLine
 10
101.0132584691
 20
217.3659853526
 30
0.0
 11
101.39507768
 21
217.3659853526
 31
0.0
  0
LINE
  5
87
330
1F
100
AcDbEntity
  8
0
  6
Continuous
 62
     7
370
    25
100
AcDbLine
 10
101.39507768
 20
217.3659853526
 30
0.0
 11
101.39507768
 21
214.4150458876
 31
0.0
  0
LINE
  5
88
330
1F
100
AcDbEntity
  8
0
  6
Continuous
 62
     7
370
    25
100
AcDbLine
 10
101.39507768
 20
214.4150458876
 30
0.0
 11
102.271972135
 21
214.4150458876
 31
0.0
  0
SPLINE
  5
89
330
1F
100
AcDbEntity
  8
0
  6
Continuous
 62
     7
370
    25
100
AcDbSpline
210
0.0
220
0.0
230
1.0
 70
     8
 71
     3
 72
    13
 73
     9
 74
     0
 42
0.00000001
 43
0.00000001
 40
0.3046343354200335
 40
0.3046343354200335
 40
0.3046343354200335
 40
0.3046343354200335
 40
0.4178950016253216
 40
0.5321515982687589
 40
0.6424507388829714
 40
0.753537238360313
 40
0.8707854393858117
 40
1.0
 40
1.0
 40
1.0
 40
1.0
 10
102.2719721354892
 20
214.4150458895248
 30
0.0
 10
102.1993423984159
 20
214.4354170750381
 30
0.0
 10
102.0562694357074
 20
214.486704807594
 30
0.0
 10
101.863964361431
 20
214.6054134689893
 30
0.0
 10
101.6992433006274
 20
214.7588743186228
 30
0.0
 10
101.5791581322252
 20
214.9515636394823
 30
0.0
 10
101.4946784170181
 20
215.1756606783156
 30
0.0
 10
101.4725217677259
 20
215.3383829385787
 30
0.0
 10
101.4609055637853
 20
215.4236943471752
 30
0.0
  0
LINE
  5
8A
330
1F
100
AcDbEntity
  8
0
  6
Continuous
 62
     7
370
    25
100
AcDbLine
 10
101.4609055638
 20
215.4236943472
 30
0.0
 11
102.7789775649
 21
216.1921551931
 31
0.0
  0
SPLINE
  5
8B
330
1F
100
AcDbEntity
  8
0
  6
Continuous
 62
     7
370
    25
100
AcDbSpline
210
0.0
220
0.0
230
1.0
 70
     8
 71
     3
 72
    15
 73
    11
 74
     0
 42
0.00000001
 43
0.00000001
 40
0.0
 40
0.0
 40
0.0
 40
0.0
 40
0.1818441500821177
 40
0.3382504576844287
 40
0.4715093722436029
 40
0.5858592037093291
 40
0.6849641356194426
 40
0.7808534861345404
 40
0.8837645542980583
 40
1.0
 40
1.0
 40
1.0
 40
1.0
 10
102.7789775649246
 20
216.1921551931224
 30
0.0
 10
102.7668395001671
 20
216.1227114228854
 30
0.0
 10
102.7442613421246
 20
215.99353824324
 30
0.0
 10
102.7324864966131
 20
215.8107229168185
 30
0.0
 10
102.7453186251433
 20
215.6538821407867
 30
0.0
 10
102.7838973529964
 20
215.5240061939788
 30
0.0
 10
102.8477007020352
 20
215.4201924252104
 30
0.0
 10
102.9400266506768
 20
215.3473115185459
 30
0.0
 10
103.0565796543648
 20
215.3045079695677
 30
0.0
 10
103.1416908018354
 20
215.2995112609778
 30
0.0
 10
103.1868338067866
 20
215.2968610036693
 30
0.0
  0
SPLINE
  5
8C
330
1F
100
AcDbEntity
  8
0
  6
Continuous
 62
     7
370
    25
100
AcDbSpline
210
0.0
220
0.0
230
1.0
 70
     8
 71
     3
 72
    15
 73
    11
 74
     0
 42
0.00000001
 43
0.00000001
 40
0.0
 40
0.0
 40
0.0
 40
0.0
 40
0.0904471151566293
 40
0.1869031496472394
 40
0.2908089113057698
 40
0.4069926617535503
 40
0.5338641064209974
 40
0.6743747397270116
 40
0.8294782985460398
 40
0.9999999999999999
 40
0.9999999999999999
 40
0.9999999999999999
 40
0.9999999999999999
 10
103.1868338067866
 20
215.2968610036693
 30
0.0
 10
103.242717956556
 20
215.3005846884991
 30
0.0
 10
103.3581989598934
 20
215.3082794438463
 30
0.0
 10
103.5310479506265
 20
215.3616940513149
 30
0.0
 10
103.7085324965164
 20
215.444938399938
 30
0.0
 10
103.8853367818482
 20
215.5670698617409
 30
0.0
 10
104.0691176381147
 20
215.716876528988
 30
0.0
 10
104.251636606931
 20
215.9037478286191
 30
0.0
 10
104.4421673598993
 20
216.1197287011531
 30
0.0
 10
104.5616882851568
 20
216.2815161730718
 30
0.0
 10
104.6242783665196
 20
216.366240174405
 30
0.0
  0
LINE
  5
8D
330
1F
100
AcDbEntity
  8
0
  6
Continuous
 62
     7
370
    25
100
AcDbLine
 10
104.6242783665
 20
216.3662401744
 30
0.0
 11
105.0495431065
 21
216.9456944692
 31
0.0
  0
LINE
  5
8E
330
1F
100
AcDbEntity
  8
0
  6
Continuous
 62
     7
370
    25
100
AcDbLine
 10
105.0495431065
 20
216.9456944692
 30
0.0
 11
104.6516345779
 21
225.8016461599
 31
0.0
  0
LINE
  5
8F
330
1F
100
AcDbEntity
  8
0
  6
Continuous
 62
     7
370
    25
100
AcDbLine
 10
104.6516345779
 20
225.8016461599
 30
0.0
 11
108.0164485732
 21
225.8016461599
 31
0.0
  0
LINE
  5
90
330
1F
100
AcDbEntity
  8
0
  6
Continuous
 62
     7
370
    25
100
AcDbLine
 10
108.0164485732
 20
225.8016461599
 30
0.0
 11
108.0338570714
 21
220.8402241934
 31
0.0
  0
LINE
  5
91
330
1F
100
AcDbEntity
  8
0
  6
Continuous
 62
     7
370
    25
100
AcDbLine
 10
108.0338570714
 20
220.8402241934
 30
0.0
 11
111.6597985386
 21
225.8016461599
 31
0.0
  0
LINE
  5
92
330
1F
100
AcDbEntity
  8
0
  6
Continuous
 62
     7
370
    25
100
AcDbLine
 10
111.6597985386
 20
225.8016461599
 30
0.0
 11
112.7938378453
 21
225.8016461599
 31
0.0
  0
LINE
  5
93
330
1F
100
AcDbEntity
  8
0
  6
Continuous
 62
     7
370
    25
100
AcDbLine
 10
112.7938378453
 20
225.8016461599
 30
0.0
 11
106.4548526951
 21
217.3245288597
 31
0.0
  0
LINE
  5
94
330
1F
100
AcDbEntity
  8
0
  6
Continuous
 62
     7
370
    25
100
AcDbLine
 10
106.4548526951
 20
217.3245288597
 30
0.0
 11
113.1917066096
 21
217.3245288597
 31
0.0
  0
SPLINE
  5
95
330
1F
100
AcDbEntity
  8
0
  6
Continuous
 62
     7
370
    25
100
AcDbSpline
210
0.0
220
0.0
230
1.0
 70
     8
 71
     3
 72
    21
 73
    17
 74
     0
 42
0.00000001
 43
0.00000001
 40
0.1866979181511435
 40
0.1866979181511435
 40
0.1866979181511435
 40
0.1866979181511435
 40
0.2119511564061478
 40
0.2712195686431053
 40
0.3261468158968459
 40
0.3778164830091478
 40
0.427525644287103
 40
0.4767266720940339
 40
0.5269160710384132
 40
0.5795060377847111
 40
0.6357281655032031
 40
0.6965939596313597
 40
0.762902755061128
 40
0.8352737576428361
 40
0.9141835915347878
 40
1.0
 40
1.0
 40
1.0
 40
1.0
 10
113.1917066095863
 20
217.3245288597331
 30
0.0
 10
113.1375663426063
 20
217.3363650101142
 30
0.0
 10
112.9571876167759
 20
217.3796805526278
 30
0.0
 10
112.6654320260384
 20
217.4742462037347
 30
0.0
 10
112.3356318534819
 20
217.6307674959013
 30
0.0
 10
112.0502512479621
 20
217.8235139337682
 30
0.0
 10
111.8099845350582
 20
218.0526350958365
 30
0.0
 10
111.6156553136598
 20
218.3178800153694
 30
0.0
 10
111.4677286227874
 20
218.6184769316135
 30
0.0
 10
111.3660859359545
 20
218.9535999955509
 30
0.0
 10
111.3102287640625
 20
219.3227554270283
 30
0.0
 10
111.2996643264158
 20
219.7258180696964
 30
0.0
 10
111.3339066471182
 20
220.1629338276179
 30
0.0
 10
111.4132356246734
 20
220.6341124914845
 30
0.0
 10
111.5354786093588
 20
221.1402374915199
 30
0.0
 10
111.6466480134128
 20
221.4842035819498
 30
0.0
 10
111.7045632481114
 20
221.6633974620026
 30
0.0
  0
SPLINE
  5
96
330
1F
100
AcDbEntity
  8
0
  6
Continuous
 62
     7
370
    25
100
AcDbSpline
210
0.0
220
0.0
230
1.0
 70
     8
 71
     3
 72
    21
 73
    17
 74
     0
 42
0.00000001
 43
0.00000001
 40
0.0
 40
0.0
 40
0.0
 40
0.0
 40
0.0733623793724982
 40
0.1436719670655451
 40
0.2112040391681151
 40
0.2761042292090508
 40
0.3386806683400609
 40
0.3994800166200728
 40
0.458696492833119
 40
0.516980421778756
 40
0.5748007029793734
 40
0.6323628566356367
 40
0.690120456231366
 40
0.7488206796712789
 40
0.8089142348936104
 40
0.8234168427957459
 40
0.8234168427957459
 40
0.8234168427957459
 40
0.8234168427957459
 10
111.7045632481114
 20
221.6633974620026
 30
0.0
 10
111.7686291545275
 20
221.8441549210884
 30
0.0
 10
111.8940950251191
 20
222.1981480703122
 30
0.0
 10
112.1166289197103
 20
222.7038241357226
 30
0.0
 10
112.3602013130973
 20
223.1747285666705
 30
0.0
 10
112.6239853774332
 20
223.611222275227
 30
0.0
 10
112.9074882405042
 20
224.0139882478236
 30
0.0
 10
113.2142647561872
 20
224.3801733139787
 30
0.0
 10
113.5408362809165
 20
224.7132945346369
 30
0.0
 10
113.8903427408436
 20
225.0105821635532
 30
0.0
 10
114.2619560061236
 20
225.2721856611255
 30
0.0
 10
114.6539014763738
 20
225.4994262484438
 30
0.0
 10
115.066542349253
 20
225.6920715603019
 30
0.0
 10
115.501106723861
 20
225.848889886659
 30
0.0
 10
115.8381122142581
 20
225.9387255300316
 30
0.0
 10
116.0287842895136
 20
225.9795152568468
 30
0.0
 10
116.0659248580154
 20
225.9870977654948
 30
0.0
  0
LINE
  5
97
330
1F
100
AcDbEntity
  8
0
  6
Continuous
 62
     7
370
    25
100
AcDbLine
 10
116.065924858
 20
225.9870977655
 30
0.0
 11
104.9077881932
 21
225.9870977655
 31
0.0
  0
SPLINE
  5
98
330
1F
100
AcDbEntity
  8
0
  6
Continuous
 62
     7
370
    25
100
AcDbSpline
210
0.0
220
0.0
230
1.0
 70
     8
 71
     3
 72
    21
 73
    17
 74
     0
 42
0.00000001
 43
0.00000001
 40
0.1966346491812496
 40
0.1966346491812496
 40
0.1966346491812496
 40
0.1966346491812496
 40
0.2114192735830681
 40
0.2707459910803033
 40
0.3257272729762183
 40
0.3774477700884438
 40
0.4269333812238665
 40
0.4761828105084809
 40
0.5264215832399785
 40
0.5790632853303392
 40
0.6353407215287832
 40
0.696266392340568
 40
0.7626695108074765
 40
0.8351117083138136
 40
0.9140991697012538
 40
1.0
 40
1.0
 40
1.0
 40
1.0
 10
118.7253750744151
 20
225.9870977654948
 30
0.0
 10
118.7569011337614
 20
225.979560565297
 30
0.0
 10
118.9144714548481
 20
225.9398248534738
 30
0.0
 10
119.1843843314599
 20
225.8526585499272
 30
0.0
 10
119.5139864714784
 20
225.6958657414449
 30
0.0
 10
119.7994927267955
 20
225.5041202969564
 30
0.0
 10
120.0372361007967
 20
225.2732493987884
 30
0.0
 10
120.2317331033748
 20
225.0090310251138
 30
0.0
 10
120.3795025361254
 20
224.7082858445411
 30
0.0
 10
120.4812440243963
 20
224.3732010357087
 30
0.0
 10
120.5368496719874
 20
224.0040514916311
 30
0.0
 10
120.5484274450764
 20
223.6008509363057
 30
0.0
 10
120.5098863890583
 20
223.1640013148601
 30
0.0
 10
120.4318566736766
 20
222.6926589754854
 30
0.0
 10
120.3092216320978
 20
222.1865641283948
 30
0.0
 10
120.1981094694181
 20
221.8425936355528
 30
0.0
 10
120.1402240554031
 20
221.6633974620026
 30
0.0
  0
SPLINE
  5
99
330
1F
100
AcDbEntity
  8
0
  6
Continuous
 62
     7
370
    25
100
AcDbSpline
210
0.0
220
0.0
230
1.0
 70
     8
 71
     3
 72
    21
 73
    17
 74
     0
 42
0.00000001
 43
0.00000001
 40
0.0
 40
0.0
 40
0.0
 40
0.0
 40
0.0734415969830484
 40
0.1438271058441855
 40
0.2114320999189333
 40
0.2762384221019284
 40
0.3390664703478484
 40
0.3997281814250861
 40
0.4592318635435697
 40
0.5173371395817338
 40
0.5749605746099126
 40
0.6325848845962974
 40
0.6904048515671073
 40
0.7491684602390623
 40
0.8090202188872863
 40
0.8333834609393738
 40
0.8333834609393738
 40
0.8333834609393738
 40
0.8333834609393738
 10
120.1402240554031
 20
221.6633974620026
 30
0.0
 10
120.0761345231729
 20
221.4826551251284
 30
0.0
 10
119.9506223840821
 20
221.1286915910546
 30
0.0
 10
119.7284200819851
 20
220.6228032827219
 30
0.0
 10
119.4838596206447
 20
220.1530376098175
 30
0.0
 10
119.224258206703
 20
219.7138074203875
 30
0.0
 10
118.9364587973599
 20
219.3147394053397
 30
0.0
 10
118.6335346456215
 20
218.9446682912464
 30
0.0
 10
118.3038902312624
 20
218.6152658298508
 30
0.0
 10
117.9571972757718
 20
218.3160891028981
 30
0.0
 10
117.5873831420702
 20
218.0539874072254
 30
0.0
 10
117.1958124797455
 20
217.8274551476995
 30
0.0
 10
116.7832431544847
 20
217.6346594551202
 30
0.0
 10
116.3493579122817
 20
217.4783491394514
 30
0.0
 10
115.9884734177452
 20
217.3813667668492
 30
0.0
 10
115.7731898291101
 20
217.3365255655075
 30
0.0
 10
115.7107177570897
 20
217.3245288597331
 30
0.0
  0
LINE
  5
9A
330
1F
100
AcDbEntity
  8
0
  6
Continuous
 62
     7
370
    25
100
AcDbLine
 10
115.7107177571
 20
217.3245288597
 30
0.0
 11
119.7804522911
 21
217.3245288597
 31
0.0
  0
LINE
  5
9B
330
1F
100
AcDbEntity
  8
0
  6
Continuous
 62
     7
370
    25
100
AcDbLine
 10
119.7804522911
 20
217.3245288597
 30
0.0
 11
122.7243721927
 21
225.9870977655
 31
0.0
  0
LINE
  5
9C
330
1F
100
AcDbEntity
  8
0
  6
Continuous
 62
     7
370
    25
100
AcDbLine
 10
122.7243721927
 20
225.9870977655
 30
0.0
 11
118.7253750744
 21
225.9870977655
 31
0.0
  0
SPLINE
  5
9D
330
1F
100
AcDbEntity
  8
0
  6
Continuous
 62
     7
370
    25
100
AcDbSpline
210
0.0
220
0.0
230
1.0
 70
     8
 71
     3
 72
    13
 73
     9
 74
     0
 42
0.00000001
 43
0.00000001
 40
0.3296148230215417
 40
0.3296148230215417
 40
0.3296148230215417
 40
0.3296148230215417
 40
0.3822059637842419
 40
0.4994685459321595
 40
0.6171699615670738
 40
0.7376295944803036
 40
0.8643734412740087
 40
1.0
 40
1.0
 40
1.0
 40
1.0
 10
123.1443640340343
 20
217.3659853526277
 30
0.0
 10
123.094759074915
 20
217.3840942335921
 30
0.0
 10
122.9366723354772
 20
217.4481938399454
 30
0.0
 10
122.6838923004642
 20
217.5899742643575
 30
0.0
 10
122.4021066403997
 20
217.8108393398327
 30
0.0
 10
122.1535558256398
 20
218.0814709376843
 30
0.0
 10
121.9368020307564
 20
218.4006834117413
 30
0.0
 10
121.8262892329316
 20
218.6399536299642
 30
0.0
 10
121.769162094547
 20
218.7636390594961
 30
0.0
  0
LINE
  5
9E
330
1F
100
AcDbEntity
  8
0
  6
Continuous
 62
     7
370
    25
100
AcDbLine
 10
121.7691620945
 20
218.7636390595
 30
0.0
 11
120.5480802973
 21
217.3659853526
 31
0.0
  0
LINE
  5
9F
330
1F
100
AcDbEntity
  8
0
  6
Continuous
 62
     7
370
    25
100
AcDbLine
 10
120.5480802973
 20
217.3659853526
 30
0.0
 11
123.144364034
 21
217.3659853526
 31
0.0
  0
SPLINE
  5
A0
330
1F
100
AcDbEntity
  8
0
  6
Continuous
 62
     7
370
    25
100
AcDbSpline
210
0.0
220
0.0
230
1.0
 70
     8
 71
     3
 72
    15
 73
    11
 74
     0
 42
0.00000001
 43
0.00000001
 40
0.0
 40
0.0
 40
0.0
 40
0.0
 40
0.1972461334927576
 40
0.3668266060212718
 40
0.5060963540596912
 40
0.6206865673969637
 40
0.7157678481436542
 40
0.8027137929731004
 40
0.8944412990758605
 40
1.0
 40
1.0
 40
1.0
 40
1.0
 10
136.9195293227371
 20
219.0471488861563
 30
0.0
 10
136.8974549415377
 20
218.9787015515874
 30
0.0
 10
136.8564023227004
 20
218.8514072772385
 30
0.0
 10
136.819088879908
 20
218.6706640367674
 30
0.0
 10
136.802413187689
 20
218.5164791906346
 30
0.0
 10
136.8168785618541
 20
218.3893877960963
 30
0.0
 10
136.8521545901213
 20
218.2854117500887
 30
0.0
 10
136.921757303293
 20
218.2092315491496
 30
0.0
 10
137.0206376049128
 20
218.1701252737769
 30
0.0
 10
137.0924791494813
 20
218.1647034020566
 30
0.0
 10
137.1309182285802
 20
218.1618024099193
 30
0.0
  0
SPLINE
  5
A1
330
1F
100
AcDbEntity
  8
0
  6
Continuous
 62
     7
370
    25
100
AcDbSpline
210
0.0
220
0.0
230
1.0
 70
     8
 71
     3
 72
    11
 73
     7
 74
     0
 42
0.00000001
 43
0.00000001
 40
0.0
 40
0.0
 40
0.0
 40
0.0
 40
0.1520681914566378
 40
0.3691323314530889
 40
0.6474196904229073
 40
1.0
 40
1.0
 40
1.0
 40
1.0
 10
137.1309182285802
 20
218.1618024099193
 30
0.0
 10
137.1627709668168
 20
218.166332783048
 30
0.0
 10
137.240090723275
 20
218.1773298704687
 30
0.0
 10
137.3647992158884
 20
218.2360684775475
 30
0.0
 10
137.5214335201414
 20
218.3212229957932
 30
0.0
 10
137.6314678608248
 20
218.3960384651217
 30
0.0
 10
137.6929640252924
 20
218.4378514516674
 30
0.0
  0
LINE
  5
A2
330
1F
100
AcDbEntity
  8
0
  6
Continuous
 62
     7
370
    25
100
AcDbLine
 10
137.6929640253
 20
218.4378514517
 30
0.0
 11
137.7252940932
 21
217.6693906057
 31
0.0
  0
SPLINE
  5
A3
330
1F
100
AcDbEntity
  8
0
  6
Continuous
 62
     7
370
    25
100
AcDbSpline
210
0.0
220
0.0
230
1.0
 70
     8
 71
     3
 72
     9
 73
     5
 74
     0
 42
0.00000001
 43
0.00000001
 40
0.0
 40
0.0
 40
0.0
 40
0.0
 40
0.2741096115729493
 40
0.4457829268193914
 40
0.4457829268193914
 40
0.4457829268193914
 40
0.4457829268193914
 10
137.7252940932449
 20
217.6693906057201
 30
0.0
 10
137.5190499907951
 20
217.5988737321701
 30
0.0
 10
137.1836363615477
 20
217.4841925354735
 30
0.0
 10
136.8402888437111
 20
217.3962490924934
 30
0.0
 10
136.7071780533167
 20
217.3659853526262
 30
0.0
  0
LINE
  5
A4
330
1F
100
AcDbEntity
  8
0
  6
Continuous
 62
     7
370
    25
100
AcDbLine
 10
136.7071780533
 20
217.3659853526
 30
0.0
 11
137.8053407201
 21
217.3659853526
 31
0.0
  0
LINE
  5
A5
330
1F
100
AcDbEntity
  8
0
  6
Continuous
 62
     7
370
    25
100
AcDbLine
 10
137.8053407201
 20
217.3659853526
 30
0.0
 11
137.8053407201
 21
221.6539652842
 31
0.0
  0
LINE
  5
A6
330
1F
100
AcDbEntity
  8
0
  6
Continuous
 62
     7
370
    25
100
AcDbLine
 10
137.8053407201
 20
221.6539652842
 30
0.0
 11
136.9195293227
 21
219.0471488862
 31
0.0
  0
SPLINE
  5
A7
330
1F
100
AcDbEntity
  8
0
  6
Continuous
 62
     7
370
    25
100
AcDbSpline
210
0.0
220
0.0
230
1.0
 70
     8
 71
     3
 72
    12
 73
     8
 74
     0
 42
0.00000001
 43
0.00000001
 40
0.4822738491555148
 40
0.4822738491555148
 40
0.4822738491555148
 40
0.4822738491555148
 40
0.5770171628951193
 40
0.6832318423442754
 40
0.7841874135625113
 40
0.8873338717239144
 40
1.0
 40
1.0
 40
1.0
 40
1.0
 10
134.3966813006729
 20
217.3659853526276
 30
0.0
 10
134.3350055997213
 20
217.3918777782575
 30
0.0
 10
134.2080132594251
 20
217.4559898747742
 30
0.0
 10
134.0406288988886
 20
217.5906448818992
 30
0.0
 10
133.9080595958334
 20
217.7676048531489
 30
0.0
 10
133.8286286039783
 20
217.9799560472145
 30
0.0
 10
133.8169603945484
 20
218.1321088054373
 30
0.0
 10
133.8108689426915
 20
218.211540976
 30
0.0
  0
SPLINE
  5
A8
330
1F
100
AcDbEntity
  8
0
  6
Continuous
 62
     7
370
    25
100
AcDbSpline
210
0.0
220
0.0
230
1.0
 70
     8
 71
     3
 72
    12
 73
     8
 74
     0
 42
0.00000001
 43
0.00000001
 40
0.0
 40
0.0
 40
0.0
 40
0.0
 40
0.131693419960229
 40
0.2598091597206075
 40
0.3839338438356061
 40
0.506310113743013
 40
0.6065894359642022
 40
0.6065894359642022
 40
0.6065894359642022
 40
0.6065894359642022
 10
133.8108689426915
 20
218.211540976
 30
0.0
 10
133.7195337742784
 20
218.1309090401001
 30
0.0
 10
133.53934471574
 20
217.9718356747098
 30
0.0
 10
133.2470126762741
 20
217.7691893661548
 30
0.0
 10
132.9467405465247
 20
217.5960538234993
 30
0.0
 10
132.6554195227906
 20
217.4608107175728
 30
0.0
 10
132.4607433771951
 20
217.3932046393509
 30
0.0
 10
132.3720729025087
 20
217.3659853526277
 30
0.0
  0
LINE
  5
A9
330
1F
100
AcDbEntity
  8
0
  6
Continuous
 62
     7
370
    25
100
AcDbLine
 10
132.3720729025
 20
217.3659853526
 30
0.0
 11
134.3966813007
 21
217.3659853526
 31
0.0
  0
LINE
  5
AA
330
1F
100
AcDbEntity
  8
0
  6
Continuous
 62
     7
370
    25
100
AcDbLine
 10
137.8053407201
 20
228.8257509776
 30
0.0
 11
126.7128252488
 21
228.8257509776
 31
0.0
  0
LINE
  5
AB
330
1F
100
AcDbEntity
  8
0
  6
Continuous
 62
     7
370
    25
100
AcDbLine
 10
126.7128252488
 20
228.8257509776
 30
0.0
 11
125.380181992
 21
224.9063519705
 31
0.0
  0
SPLINE
  5
AC
330
1F
100
AcDbEntity
  8
0
  6
Continuous
 62
     7
370
    25
100
AcDbSpline
210
0.0
220
0.0
230
1.0
 70
     8
 71
     3
 72
    15
 73
    11
 74
     0
 42
0.00000001
 43
0.00000001
 40
0.0
 40
0.0
 40
0.0
 40
0.0
 40
0.1580284385828261
 40
0.3055358578519279
 40
0.4414060835824634
 40
0.5679813450273057
 40
0.6860757482447387
 40
0.7967682992902784
 40
0.9006434428062087
 40
1.0
 40
1.0
 40
1.0
 40
1.0
 10
125.3801819920079
 20
224.9063519704662
 30
0.0
 10
125.484539666444
 20
225.0018787823124
 30
0.0
 10
125.6863072208679
 20
225.1865725416575
 30
0.0
 10
125.9927421217635
 20
225.4368159948182
 30
0.0
 10
126.2964558693569
 20
225.6432862471194
 30
0.0
 10
126.5890758668713
 20
225.8187243035453
 30
0.0
 10
126.879590424849
 20
225.9496326642945
 30
0.0
 10
127.1603824854262
 20
226.0504346219214
 30
0.0
 10
127.4371586794895
 20
226.106333711224
 30
0.0
 10
127.6190320536753
 20
226.1154944512519
 30
0.0
 10
127.707946884586
 20
226.119972982836
 30
0.0
  0
SPLINE
  5
AD
330
1F
100
AcDbEntity
  8
0
  6
Continuous
 62
     7
370
    25
100
AcDbSpline
210
0.0
220
0.0
230
1.0
 70
     8
 71
     3
 72
    23
 73
    19
 74
     0
 42
0.00000001
 43
0.00000001
 40
0.0
 40
0.0
 40
0.0
 40
0.0
 40
0.0651727612422024
 40
0.1245998522408949
 40
0.1787437474552319
 40
0.2293869928781251
 40
0.2773253506253076
 40
0.3243124896209971
 40
0.371282467498877
 40
0.4206765622643924
 40
0.4730955163333582
 40
0.5294143440252422
 40
0.5914093338573394
 40
0.6597684098666351
 40
0.7340548172490136
 40
0.8156750963559739
 40
0.9038786912774724
 40
0.9999999999999999
 40
0.9999999999999999
 40
0.9999999999999999
 40
0.9999999999999999
 10
127.707946884586
 20
226.119972982836
 30
0.0
 10
127.8282832921581
 20
226.1164257015269
 30
0.0
 10
128.0583471764697
 20
226.109643869385
 30
0.0
 10
128.3862619368798
 20
226.0644345126621
 30
0.0
 10
128.678992123856
 20
225.9817860616989
 30
0.0
 10
128.9380878960469
 20
225.8679072825768
 30
0.0
 10
129.1643382615754
 20
225.7199468416663
 30
0.0
 10
129.3526213828198
 20
225.5354932511107
 30
0.0
 10
129.5073823598991
 20
225.3192545306261
 30
0.0
 10
129.6275202238115
 20
225.0705875902779
 30
0.0
 10
129.7078932971366
 20
224.7886962965909
 30
0.0
 10
129.754573501579
 20
224.4761793856134
 30
0.0
 10
129.7652706689624
 20
224.1309462587672
 30
0.0
 10
129.7406057036373
 20
223.7535178319188
 30
0.0
 10
129.6859198425981
 20
223.3426454278388
 30
0.0
 10
129.5909453148724
 20
222.9017196470398
 30
0.0
 10
129.4674420855774
 20
222.426178659233
 30
0.0
 10
129.3603835067349
 20
222.103002023917
 30
0.0
 10
129.3045548557774
 20
221.9344726471426
 30
0.0
  0
SPLINE
  5
AE
330
1F
100
AcDbEntity
  8
0
  6
Continuous
 62
     7
370
    25
100
AcDbSpline
210
0.0
220
0.0
230
1.0
 70
     8
 71
     3
 72
    21
 73
    17
 74
     0
 42
0.00000001
 43
0.00000001
 40
0.0
 40
0.0
 40
0.0
 40
0.0
 40
0.0806866514852312
 40
0.1577949685452253
 40
0.2308985280712565
 40
0.300959894596512
 40
0.3673274397664196
 40
0.4311911197599549
 40
0.4926672024526343
 40
0.5516186241002419
 40
0.6089565247080755
 40
0.6648103831568141
 40
0.7198288373972099
 40
0.7745663209273072
 40
0.8293781444242039
 40
0.8331689413403082
 40
0.8331689413403082
 40
0.8331689413403082
 40
0.8331689413403082
 10
129.3045548557774
 20
221.9344726471426
 30
0.0
 10
129.2366682498137
 20
221.7431485192981
 30
0.0
 10
129.1039057091021
 20
221.3689852075304
 30
0.0
 10
128.8802993109622
 20
220.8325534138186
 30
0.0
 10
128.641429924485
 20
220.3322327202494
 30
0.0
 10
128.3858799916844
 20
219.870869836054
 30
0.0
 10
128.1168579858926
 20
219.4443914330676
 30
0.0
 10
127.8301615435213
 20
219.0560914247583
 30
0.0
 10
127.5305123917161
 20
218.701809677069
 30
0.0
 10
127.2132638979035
 20
218.3856176041671
 30
0.0
 10
126.8784173853947
 20
218.110331016213
 30
0.0
 10
126.5327366793946
 20
217.8651137962301
 30
0.0
 10
126.1667148470875
 20
217.6645102757612
 30
0.0
 10
125.7879028188036
 20
217.49632071344
 30
0.0
 10
125.5165558256043
 20
217.406882577296
 30
0.0
 10
125.3742094211935
 20
217.3684400729185
 30
0.0
 10
125.3649932473211
 20
217.3659853526276
 30
0.0
  0
LINE
  5
AF
330
1F
100
AcDbEntity
  8
0
  6
Continuous
 62
     7
370
    25
100
AcDbLine
 10
125.3649932473
 20
217.3659853526
 30
0.0
 11
130.1783560329
 21
217.3659853526
 31
0.0
  0
SPLINE
  5
B0
330
1F
100
AcDbEntity
  8
0
  6
Continuous
 62
     7
370
    25
100
AcDbSpline
210
0.0
220
0.0
230
1.0
 70
     8
 71
     3
 72
    19
 73
    15
 74
     0
 42
0.00000001
 43
0.00000001
 40
0.2927059892027683
 40
0.2927059892027683
 40
0.2927059892027683
 40
0.2927059892027683
 40
0.3466710370658755
 40
0.4010394918309503
 40
0.4525572224282191
 40
0.5016980248351185
 40
0.5512228108128258
 40
0.6022263955706147
 40
0.6561002701097703
 40
0.714029455545824
 40
0.7763291536742668
 40
0.8443937893250024
 40
0.9188028232748394
 40
1.0
 40
1.0
 40
1.0
 40
1.0
 10
130.1783560328568
 20
217.3659853526277
 30
0.0
 10
130.1127086192814
 20
217.3895529265495
 30
0.0
 10
129.9835731708881
 20
217.4443573116972
 30
0.0
 10
129.8044398298856
 20
217.5484191983457
 30
0.0
 10
129.6483844810744
 20
217.6755350267205
 30
0.0
 10
129.5213901215427
 20
217.8234062900497
 30
0.0
 10
129.4203717948489
 20
217.9893547515699
 30
0.0
 10
129.3480823805834
 20
218.1763041824585
 30
0.0
 10
129.3038052895599
 20
218.3826727125586
 30
0.0
 10
129.2874442147481
 20
218.6076040673508
 30
0.0
 10
129.2985234033015
 20
218.8510790461112
 30
0.0
 10
129.3372844714149
 20
219.1130856940213
 30
0.0
 10
129.4022415234453
 20
219.3950080384083
 30
0.0
 10
129.4638830509213
 20
219.5864123878022
 30
0.0
 10
129.4960483351882
 20
219.6862894602937
 30
0.0
  0
SPLINE
  5
B1
330
1F
100
AcDbEntity
  8
0
  6
Continuous
 62
     7
370
    25
100
AcDbSpline
210
0.0
220
0.0
230
1.0
 70
     8
 71
     3
 72
    23
 73
    19
 74
     0
 42
0.00000001
 43
0.00000001
 40
0.0
 40
0.0
 40
0.0
 40
0.0
 40
0.0559957968380312
 40
0.1114530915529046
 40
0.1669533154147416
 40
0.2230624183112468
 40
0.2793071871794733
 40
0.3359794224404326
 40
0.3941612649044211
 40
0.4533281178531627
 40
0.5140759267881579
 40
0.5762804025706897
 40
0.6409379607780009
 40
0.707975455794159
 40
0.7770933550857306
 40
0.8486691919737254
 40
0.9228142978114298
 40
1.0
 40
1.0
 40
1.0
 40
1.0
 10
129.4960483351882
 20
219.6862894602937
 30
0.0
 10
129.5236864276711
 20
219.7639477847354
 30
0.0
 10
129.5786968217682
 20
219.9185176066254
 30
0.0
 10
129.6855991459907
 20
220.1400255341378
 30
0.0
 10
129.8044489179908
 20
220.355305818884
 30
0.0
 10
129.9414880772796
 20
220.5610487821784
 30
0.0
 10
130.0934673905844
 20
220.7580869994754
 30
0.0
 10
130.2614486980481
 20
220.9458152763432
 30
0.0
 10
130.4450914124347
 20
221.1244858042702
 30
0.0
 10
130.6454013864185
 20
221.2935891812922
 30
0.0
 10
130.8588819110547
 20
221.4557206849252
 30
0.0
 10
131.0894914306674
 20
221.6076426930477
 30
0.0
 10
131.3355011571016
 20
221.7522928105439
 30
0.0
 10
131.599181154898
 20
221.8858786104518
 30
0.0
 10
131.8785743553962
 20
222.0099215623283
 30
0.0
 10
132.1724004537213
 20
222.1264384605851
 30
0.0
 10
132.4811261866048
 20
222.2374030072386
 30
0.0
 10
132.6947201779087
 20
222.3003005325771
 30
0.0
 10
132.8036629795567
 20
222.3323811757885
 30
0.0
  0
SPLINE
  5
B2
330
1F
100
AcDbEntity
  8
0
  6
Continuous
 62
     7
370
    25
100
AcDbSpline
210
0.0
220
0.0
230
1.0
 70
     8
 71
     3
 72
    15
 73
    11
 74
     0
 42
0.00000001
 43
0.00000001
 40
0.0
 40
0.0
 40
0.0
 40
0.0
 40
0.1807540462627536
 40
0.343300276026768
 40
0.4888205504858684
 40
0.6180316784835579
 40
0.7313824407784275
 40
0.830977688014461
 40
0.9195401110939487
 40
0.9999999999999999
 40
0.9999999999999999
 40
0.9999999999999999
 40
0.9999999999999999
 10
132.8036629795567
 20
222.3323811757885
 30
0.0
 10
132.9974998101283
 20
222.3908253657628
 30
0.0
 10
133.3656477925122
 20
222.5018265132624
 30
0.0
 10
133.8792874757945
 20
222.6917921555452
 30
0.0
 10
134.3298274358149
 20
222.8847966634585
 30
0.0
 10
134.711757737032
 20
223.0933737296799
 30
0.0
 10
135.0296255979219
 20
223.3091068580214
 30
0.0
 10
135.2823459604384
 20
223.5336194885103
 30
0.0
 10
135.4770469523418
 20
223.7675466280241
 30
0.0
 10
135.551224789279
 20
223.9426328511955
 30
0.0
 10
135.5865357517735
 20
224.0259793508373
 30
0.0
  0
SPLINE
  5
B3
330
1F
100
AcDbEntity
  8
0
  6
Continuous
 62
     7
370
    25
100
AcDbSpline
210
0.0
220
0.0
230
1.0
 70
     8
 71
     3
 72
    15
 73
    11
 74
     0
 42
0.00000001
 43
0.00000001
 40
0.0
 40
0.0
 40
0.0
 40
0.0
 40
0.1584024287805819
 40
0.2921049883994364
 40
0.4059037620848939
 40
0.5074551716006123
 40
0.6076047306110898
 40
0.7163567272288294
 40
0.8467642370199517
 40
1.0
 40
1.0
 40
1.0
 40
1.0
 10
135.5865357517735
 20
224.0259793508373
 30
0.0
 10
135.6167781032088
 20
224.1263264431809
 30
0.0
 10
135.6725470821516
 20
224.3113733927171
 30
0.0
 10
135.7091281573502
 20
224.579681984748
 30
0.0
 10
135.680300680826
 20
224.8111859255442
 30
0.0
 10
135.5981864755475
 20
225.0073922402987
 30
0.0
 10
135.4488579694753
 20
225.1554738150458
 30
0.0
 10
135.245169527039
 20
225.2554088978692
 30
0.0
 10
134.9906083952677
 20
225.3158837143602
 30
0.0
 10
134.8027033240575
 20
225.3212544391176
 30
0.0
 10
134.7011892755366
 20
225.3241559255443
 30
0.0
  0
SPLINE
  5
B4
330
1F
100
AcDbEntity
  8
0
  6
Continuous
 62
     7
370
    25
100
AcDbSpline
210
0.0
220
0.0
230
1.0
 70
     8
 71
     3
 72
    15
 73
    11
 74
     0
 42
0.00000001
 43
0.00000001
 40
0.0
 40
0.0
 40
0.0
 40
0.0
 40
0.1459556805337147
 40
0.2790426637036677
 40
0.4036047098325127
 40
0.5212029255056022
 40
0.6362459389633569
 40
0.752045103934306
 40
0.8719825728721146
 40
1.0
 40
1.0
 40
1.0
 40
1.0
 10
134.7011892755366
 20
225.3241559255443
 30
0.0
 10
134.5782334822147
 20
225.3207457572394
 30
0.0
 10
134.3431627267576
 20
225.314226090146
 30
0.0
 10
134.0073984627149
 20
225.2537005445535
 30
0.0
 10
133.7064477171778
 20
225.1545896146392
 30
0.0
 10
133.4370744601334
 20
225.0175775460035
 30
0.0
 10
133.2046084003672
 20
224.8353845560007
 30
0.0
 10
133.00977747117
 20
224.6120604884757
 30
0.0
 10
132.8426737654793
 20
224.3530578363804
 30
0.0
 10
132.7693820652814
 20
224.1570302174527
 30
0.0
 10
132.7315420587397
 20
224.0558224904857
 30
0.0
  0
SPLINE
  5
B5
330
1F
100
AcDbEntity
  8
0
  6
Continuous
 62
     7
370
    25
100
AcDbSpline
210
0.0
220
0.0
230
1.0
 70
     8
 71
     3
 72
    11
 73
     7
 74
     0
 42
0.00000001
 43
0.00000001
 40
0.0
 40
0.0
 40
0.0
 40
0.0
 40
0.2077549446549156
 40
0.4408456684149455
 40
0.7039492794420822
 40
1.0
 40
1.0
 40
1.0
 40
1.0
 10
132.7315420587397
 20
224.0558224904857
 30
0.0
 10
132.7117143686453
 20
223.9849796315639
 30
0.0
 10
132.6696409955794
 20
223.8346546053861
 30
0.0
 10
132.6546391017541
 20
223.5849265467856
 30
0.0
 10
132.6677275904366
 20
223.3050839617267
 30
0.0
 10
132.6980689678286
 20
223.1097569101694
 30
0.0
 10
132.7141335606114
 20
223.0063387461823
 30
0.0
  0
LINE
  5
B6
330
1F
100
AcDbEntity
  8
0
  6
Continuous
 62
     7
370
    25
100
AcDbLine
 10
132.7141335606
 20
223.0063387462
 30
0.0
 11
131.294097499
 21
223.2997962861
 31
0.0
  0
SPLINE
  5
B7
330
1F
100
AcDbEntity
  8
0
  6
Continuous
 62
     7
370
    25
100
AcDbSpline
210
0.0
220
0.0
230
1.0
 70
     8
 71
     3
 72
     9
 73
     5
 74
     0
 42
0.00000001
 43
0.00000001
 40
0.0
 40
0.0
 40
0.0
 40
0.0
 40
0.5109047599946579
 40
0.9999999999999999
 40
0.9999999999999999
 40
0.9999999999999999
 40
0.9999999999999999
 10
131.2940974990066
 20
223.2997962860586
 30
0.0
 10
131.3123084674463
 20
223.4306750692663
 30
0.0
 10
131.3479530138777
 20
223.6868456776768
 30
0.0
 10
131.4220125838989
 20
223.9346315834377
 30
0.0
 10
131.458234767073
 20
224.0558224904857
 30
0.0
  0
SPLINE
  5
B8
330
1F
100
AcDbEntity
  8
0
  6
Continuous
 62
     7
370
    25
100
AcDbSpline
210
0.0
220
0.0
230
1.0
 70
     8
 71
     3
 72
    23
 73
    19
 74
     0
 42
0.00000001
 43
0.00000001
 40
0.0
 40
0.0
 40
0.0
 40
0.0
 40
0.0521933872977406
 40
0.1031242776377395
 40
0.153629608073995
 40
0.2044425186449875
 40
0.2560868024961346
 40
0.3091399756787113
 40
0.3633828924988274
 40
0.420981857830453
 40
0.4804113190846658
 40
0.5433128892644281
 40
0.6099772938203256
 40
0.6796106649185101
 40
0.7534717196983165
 40
0.8312066143544717
 40
0.9135054201808939
 40
1.0
 40
1.0
 40
1.0
 40
1.0
 10
131.458234767073
 20
224.0558224904857
 30
0.0
 10
131.4896322033129
 20
224.140294920441
 30
0.0
 10
131.5516676085539
 20
224.3071964911274
 30
0.0
 10
131.674820134663
 20
224.542825558512
 30
0.0
 10
131.8231224438562
 20
224.7602341103458
 30
0.0
 10
131.9932468927223
 20
224.9625083227446
 30
0.0
 10
132.1852674203635
 20
225.1506788288204
 30
0.0
 10
132.4025928875264
 20
225.3188107604601
 30
0.0
 10
132.6425269584517
 20
225.4722216116185
 30
0.0
 10
132.9039917077795
 20
225.610806752231
 30
0.0
 10
133.1910061004088
 20
225.7300787010245
 30
0.0
 10
133.5002210216504
 20
225.8342439242739
 30
0.0
 10
133.8324213687568
 20
225.9233700075881
 30
0.0
 10
134.1881022948079
 20
225.9947773693274
 30
0.0
 10
134.5656230235228
 20
226.0523466778793
 30
0.0
 10
134.9674991735341
 20
226.0905511787786
 30
0.0
 10
135.3922072391132
 20
226.1166983936632
 30
0.0
 10
135.6834833876984
 20
226.1188635133235
 30
0.0
 10
135.8327416538731
 20
226.119972982836
 30
0.0
  0
SPLINE
  5
B9
330
1F
100
AcDbEntity
  8
0
  6
Continuous
 62
     7
370
    25
100
AcDbSpline
210
0.0
220
0.0
230
1.0
 70
     8
 71
     3
 72
    13
 73
     9
 74
     0
 42
0.00000001
 43
0.00000001
 40
0.0
 40
0.0
 40
0.0
 40
0.0
 40
0.1007734485246137
 40
0.1939350942864326
 40
0.2791310284568773
 40
0.3576415874518111
 40
0.429366541962717
 40
0.4786934068301026
 40
0.4786934068301026
 40
0.4786934068301026
 40
0.4786934068301026
 10
135.8327416538731
 20
226.119972982836
 30
0.0
 10
135.9728566656025
 20
226.1185407779289
 30
0.0
 10
136.242503268041
 20
226.1157845480116
 30
0.0
 10
136.6303173076258
 20
226.0949507253152
 30
0.0
 10
136.9851350425893
 20
226.0534689756834
 30
0.0
 10
137.3091070663565
 20
226.004561676228
 30
0.0
 10
137.5788236747281
 20
225.9385979160714
 30
0.0
 10
137.7404728569669
 20
225.890852051824
 30
0.0
 10
137.8053407201404
 20
225.8685968764973
 30
0.0
  0
LINE
  5
BA
330
1F
100
AcDbEntity
  8
0
  6
Continuous
 62
     7
370
    25
100
AcDbLine
 10
137.8053407201
 20
225.8685968765
 30
0.0
 11
137.8053407201
 21
228.8257509776
 31
0.0
  0
CIRCLE
  5
BB
330
1F
100
AcDbEntity
  8
0
  6
Continuous
 62
     7
370
    25
100
AcDbCircle
 10
116.5584652589
 20
228.8534679608
 30
0.0
 40
1.5
  0
ENDSEC
  0
SECTION
  2
OBJECTS
  0
DICTIONARY
  5
C
330
0
100
AcDbDictionary
281
     1
  3
ACAD_GROUP
350
D
  3
ACAD_LAYOUT
350
1A
  3
ACAD_MLINESTYLE
350
17
  3
ACAD_PLOTSETTINGS
350
19
  3
ACAD_PLOTSTYLENAME
350
E
  3
ACAD_SCALELIST
350
47
  3
DWGPROPS
350
BC
  0
DICTIONARY
  5
D
102
{ACAD_REACTORS
330
C
102
}
330
C
100
AcDbDictionary
281
     1
  0
DICTIONARY
  5
1A
102
{ACAD_REACTORS
330
C
102
}
330
C
100
AcDbDictionary
281
     1
  3
Layout1
350
1E
  3
Layout2
350
26
  3
Model
350
22
  0
DICTIONARY
  5
17
102
{ACAD_REACTORS
330
C
102
}
330
C
100
AcDbDictionary
281
     1
  3
Standard
350
18
  0
DICTIONARY
  5
19
102
{ACAD_REACTORS
330
C
102
}
330
C
100
AcDbDictionary
281
     1
  0
ACDBDICTIONARYWDFLT
  5
E
102
{ACAD_REACTORS
330
C
102
}
330
C
100
AcDbDictionary
281
     1
  3
Normal
350
F
100
AcDbDictionaryWithDefault
340
F
  0
DICTIONARY
  5
47
102
{ACAD_REACTORS
330
C
102
}
330
C
100
AcDbDictionary
281
     1
  3
A0
350
48
  3
A1
350
49
  3
A2
350
4A
  3
A3
350
4B
  3
A4
350
4C
  3
A5
350
4D
  3
A6
350
4E
  3
A7
350
4F
  3
A8
350
50
  3
A9
350
51
  3
B0
350
52
  3
B1
350
53
  3
B2
350
54
  3
B3
350
55
  3
B4
350
56
  3
B5
350
57
  3
B6
350
58
  0
XRECORD
  5
BC
102
{ACAD_REACTORS
330
C
102
}
330
C
100
AcDbXrecord
280
     1
  1
DWGPROPS COOKIE
  2

  3

  4

  6

  7

  8
purkw
  9

300
=
301
=
302
=
303
=
304
=
305
=
306
=
307
=
308
=
309
=
 40
0.0
 41
2461166.40950316
 42
2461166.409503519
  1

 90
        0
  0
LAYOUT
  5
1E
102
{ACAD_REACTORS
330
1A
102
}
330
1A
100
AcDbPlotSettings
  1

  2
none_device
  4

  6

 40
0.0
 41
0.0
 42
0.0
 43
0.0
 44
0.0
 45
0.0
 46
0.0
 47
0.0
 48
0.0
 49
0.0
140
0.0
141
0.0
142
1.0
143
1.0
 70
   688
 72
     1
 73
     0
 74
     5
  7

 75
    16
147
1.0
148
0.0
149
0.0
100
AcDbLayout
  1
Layout1
 70
     1
 71
     1
 10
0.0
 20
0.0
 11
420.0
 21
297.0
 12
0.0
 22
0.0
 32
0.0
 14
1.0000000000E+20
 24
1.0000000000E+20
 34
1.0000000000E+20
 15
-1.0000000000E+20
 25
-1.0000000000E+20
 35
-1.0000000000E+20
146
0.0
 13
0.0
 23
0.0
 33
0.0
 16
1.0
 26
0.0
 36
0.0
 17
0.0
 27
1.0
 37
0.0
 76
     0
330
1B
  0
LAYOUT
  5
26
102
{ACAD_REACTORS
330
1A
102
}
330
1A
100
AcDbPlotSettings
  1

  2
none_device
  4

  6

 40
0.0
 41
0.0
 42
0.0
 43
0.0
 44
0.0
 45
0.0
 46
0.0
 47
0.0
 48
0.0
 49
0.0
140
0.0
141
0.0
142
1.0
143
1.0
 70
   688
 72
     1
 73
     0
 74
     5
  7

 75
    16
147
1.0
148
0.0
149
0.0
100
AcDbLayout
  1
Layout2
 70
     1
 71
     2
 10
0.0
 20
0.0
 11
0.0
 21
0.0
 12
0.0
 22
0.0
 32
0.0
 14
0.0
 24
0.0
 34
0.0
 15
0.0
 25
0.0
 35
0.0
146
0.0
 13
0.0
 23
0.0
 33
0.0
 16
1.0
 26
0.0
 36
0.0
 17
0.0
 27
1.0
 37
0.0
 76
     0
330
23
  0
LAYOUT
  5
22
102
{ACAD_REACTORS
330
1A
102
}
330
1A
100
AcDbPlotSettings
  1

  2
none_device
  4
Letter_(8.50_x_11.00_Inches)
  6

 40
6.35
 41
6.35
 42
6.35000508
 43
6.35000508
 44
215.9
 45
279.4
 46
0.0
 47
0.0
 48
0.0
 49
0.0
140
0.0
141
0.0
142
1.0
143
1.0
 70
  1712
 72
     1
 73
     0
 74
     0
  7

 75
     0
147
1.0
148
0.0
149
0.0
100
AcDbLayout
  1
Model
 70
     1
 71
     0
 10
0.0
 20
0.0
 11
210.0
 21
297.0
 12
0.0
 22
0.0
 32
0.0
 14
0.0
 24
0.0
 34
0.0
 15
210.0
 25
297.0
 35
0.0
146
0.0
 13
0.0
 23
0.0
 33
0.0
 16
1.0
 26
0.0
 36
0.0
 17
0.0
 27
1.0
 37
0.0
 76
     0
330
1F
331
29
  0
MLINESTYLE
  5
18
102
{ACAD_REACTORS
330
17
102
}
330
17
100
AcDbMlineStyle
  2
Standard
 70
     0
  3

 62
   256
 51
90.0
 52
90.0
 71
     2
 49
0.5
 62
   256
  6
BYLAYER
 49
-0.5
 62
   256
  6
BYLAYER
  0
ACDBPLACEHOLDER
  5
F
102
{ACAD_REACTORS
330
E
102
}
330
E
  0
SCALE
  5
48
102
{ACAD_REACTORS
330
47
102
}
330
47
100
AcDbScale
 70
     0
300
1:1
140
1.0
141
1.0
290
     1
  0
SCALE
  5
49
102
{ACAD_REACTORS
330
47
102
}
330
47
100
AcDbScale
 70
     0
300
1:2
140
1.0
141
2.0
290
     0
  0
SCALE
  5
4A
102
{ACAD_REACTORS
330
47
102
}
330
47
100
AcDbScale
 70
     0
300
1:4
140
1.0
141
4.0
290
     0
  0
SCALE
  5
4B
102
{ACAD_REACTORS
330
47
102
}
330
47
100
AcDbScale
 70
     0
300
1:5
140
1.0
141
5.0
290
     0
  0
SCALE
  5
4C
102
{ACAD_REACTORS
330
47
102
}
330
47
100
AcDbScale
 70
     0
300
1:8
140
1.0
141
8.0
290
     0
  0
SCALE
  5
4D
102
{ACAD_REACTORS
330
47
102
}
330
47
100
AcDbScale
 70
     0
300
1:10
140
1.0
141
10.0
290
     0
  0
SCALE
  5
4E
102
{ACAD_REACTORS
330
47
102
}
330
47
100
AcDbScale
 70
     0
300
1:16
140
1.0
141
16.0
290
     0
  0
SCALE
  5
4F
102
{ACAD_REACTORS
330
47
102
}
330
47
100
AcDbScale
 70
     0
300
1:20
140
1.0
141
20.0
290
     0
  0
SCALE
  5
50
102
{ACAD_REACTORS
330
47
102
}
330
47
100
AcDbScale
 70
     0
300
1:30
140
1.0
141
30.0
290
     0
  0
SCALE
  5
51
102
{ACAD_REACTORS
330
47
102
}
330
47
100
AcDbScale
 70
     0
300
1:40
140
1.0
141
40.0
290
     0
  0
SCALE
  5
52
102
{ACAD_REACTORS
330
47
102
}
330
47
100
AcDbScale
 70
     0
300
1:50
140
1.0
141
50.0
290
     0
  0
SCALE
  5
53
102
{ACAD_REACTORS
330
47
102
}
330
47
100
AcDbScale
 70
     0
300
1:100
140
1.0
141
100.0
290
     0
  0
SCALE
  5
54
102
{ACAD_REACTORS
330
47
102
}
330
47
100
AcDbScale
 70
     0
300
2:1
140
2.0
141
1.0
290
     0
  0
SCALE
  5
55
102
{ACAD_REACTORS
330
47
102
}
330
47
100
AcDbScale
 70
     0
300
4:1
140
4.0
141
1.0
290
     0
  0
SCALE
  5
56
102
{ACAD_REACTORS
330
47
102
}
330
47
100
AcDbScale
 70
     0
300
8:1
140
8.0
141
1.0
290
     0
  0
SCALE
  5
57
102
{ACAD_REACTORS
330
47
102
}
330
47
100
AcDbScale
 70
     0
300
10:1
140
10.0
141
1.0
290
     0
  0
SCALE
  5
58
102
{ACAD_REACTORS
330
47
102
}
330
47
100
AcDbScale
 70
     0
300
100:1
140
100.0
141
1.0
290
     0
  0
ENDSEC
  0
EOF
