  0
SECTION
  2
HEADER
  9
$ACADVER
  1
AC1015
  9
$ACADMAINTVER
 70
     6
  9
$DWGCODEPAGE
  3
ANSI_1252
  9
$INSBASE
 10
0.0
 20
0.0
 30
0.0
  9
$EXTMIN
 10
0.0
 20
0.0
 30
0.0
  9
$EXTMAX
 10
210.0
 20
297.0
 30
0.0
  9
$LIMMIN
 10
0.0
 20
0.0
  9
$LIMMAX
 10
210.0
 20
297.0
  9
$ORTHOMODE
 70
     0
  9
$REGENMODE
 70
     1
  9
$FILLMODE
 70
     1
  9
$QTEXTMODE
 70
     0
  9
$MIRRTEXT
 70
     1
  9
$LTSCALE
 40
1.0
  9
$ATTMODE
 70
     1
  9
$TEXTSIZE
 40
3.5
  9
$TRACEWID
 40
1.0
  9
$TEXTSTYLE
  7
Standard
  9
$CLAYER
  8
0
  9
$CELTYPE
  6
ByLayer
  9
$CECOLOR
 62
   256
  9
$CELTSCALE
 40
1.0
  9
$DISPSILH
 70
     0
  9
$DIMSCALE
 40
1.0
  9
$DIMASZ
 40
3.302
  9
$DIMEXO
 40
1.0
  9
$DIMDLI
 40
3.75
  9
$DIMRND
 40
0.0
  9
$DIMDLE
 40
0.0
  9
$DIMEXE
 40
1.0
  9
$DIMTP
 40
0.0
  9
$DIMTM
 40
0.0
  9
$DIMTXT
 40
3.5
  9
$DIMCEN
 40
2.5
  9
$DIMTSZ
 40
0.0
  9
$DIMTOL
 70
     0
  9
$DIMLIM
 70
     0
  9
$DIMTIH
 70
     1
  9
$DIMTOH
 70
     1
  9
$DIMSE1
 70
     0
  9
$DIMSE2
 70
     0
  9
$DIMTAD
 70
     1
  9
$DIMZIN
 70
     1
  9
$DIMBLK
  1

  9
$DIMASO
 70
     1
  9
$DIMSHO
 70
     1
  9
$DIMPOST
  1

  9
$DIMAPOST
  1

  9
$DIMALT
 70
     0
  9
$DIMALTD
 70
     3
  9
$DIMALTF
 40
0.0393700787
  9
$DIMLFAC
 40
1.0
  9
$DIMTOFL
 70
     1
  9
$DIMTVP
 40
0.0
  9
$DIMTIX
 70
     0
  9
$DIMSOXD
 70
     0
  9
$DIMSAH
 70
     0
  9
$DIMBLK1
  1

  9
$DIMBLK2
  1

  9
$DIMSTYLE
  2
ISO-25
  9
$DIMCLRD
 70
     0
  9
$DIMCLRE
 70
     0
  9
$DIMCLRT
 70
     0
  9
$DIMTFAC
 40
1.0
  9
$DIMGAP
 40
1.524
  9
$DIMJUST
 70
     0
  9
$DIMSD1
 70
     0
  9
$DIMSD2
 70
     0
  9
$DIMTOLJ
 70
     0
  9
$DIMTZIN
 70
     1
  9
$DIMALTZ
 70
     0
  9
$DIMALTTZ
 70
     0
  9
$DIMUPT
 70
     0
  9
$DIMDEC
 70
     2
  9
$DIMTDEC
 70
     2
  9
$DIMALTU
 70
     2
  9
$DIMALTTD
 70
     3
  9
$DIMTXSTY
  7
Standard
  9
$DIMAUNIT
 70
     0
  9
$DIMADEC
 70
     2
  9
$DIMALTRND
 40
0.0
  9
$DIMAZIN
 70
     0
  9
$DIMDSEP
 70
    44
  9
$DIMATFIT
 70
     3
  9
$DIMFRAC
 70
     0
  9
$DIMLDRBLK
  1

  9
$DIMLUNIT
 70
     2
  9
$DIMLWD
 70
    -2
  9
$DIMLWE
 70
    -2
  9
$DIMTMOVE
 70
     0
  9
$LUNITS
 70
     2
  9
$LUPREC
 70
     2
  9
$SKETCHINC
 40
1.0
  9
$FILLETRAD
 40
0.0
  9
$AUNITS
 70
     0
  9
$AUPREC
 70
     2
  9
$MENU
  1
.
  9
$ELEVATION
 40
0.0
  9
$PELEVATION
 40
0.0
  9
$THICKNESS
 40
0.0
  9
$LIMCHECK
 70
     0
  9
$CHAMFERA
 40
0.0
  9
$CHAMFERB
 40
0.0
  9
$CHAMFERC
 40
0.0
  9
$CHAMFERD
 40
0.0
  9
$SKPOLY
 70
     0
  9
$TDCREATE
 40
2461165.461999966
  9
$TDUCREATE
 40
2461165.170333299
  9
$TDUPDATE
 40
2461165.462000544
  9
$TDUUPDATE
 40
2461165.170333877
  9
$TDINDWG
 40
0.0000000116
  9
$TDUSRTIMER
 40
0.0000000116
  9
$USRTIMER
 70
     1
  9
$ANGBASE
 50
0.0
  9
$ANGDIR
 70
     0
  9
$PDMODE
 70
     0
  9
$PDSIZE
 40
-1.0
  9
$PLINEWID
 40
0.0
  9
$SPLFRAME
 70
     0
  9
$SPLINETYPE
 70
     6
  9
$SPLINESEGS
 70
     8
  9
$HANDSEED
  5
14E
  9
$SURFTAB1
 70
     6
  9
$SURFTAB2
 70
     6
  9
$SURFTYPE
 70
     6
  9
$SURFU
 70
     6
  9
$SURFV
 70
     6
  9
$UCSBASE
  2

  9
$UCSNAME
  2

  9
$UCSORG
 10
0.0
 20
0.0
 30
0.0
  9
$UCSXDIR
 10
1.0
 20
0.0
 30
0.0
  9
$UCSYDIR
 10
0.0
 20
1.0
 30
0.0
  9
$UCSORTHOREF
  2

  9
$UCSORTHOVIEW
 70
     0
  9
$UCSORGTOP
 10
0.0
 20
0.0
 30
0.0
  9
$UCSORGBOTTOM
 10
0.0
 20
0.0
 30
0.0
  9
$UCSORGLEFT
 10
0.0
 20
0.0
 30
0.0
  9
$UCSORGRIGHT
 10
0.0
 20
0.0
 30
0.0
  9
$UCSORGFRONT
 10
0.0
 20
0.0
 30
0.0
  9
$UCSORGBACK
 10
0.0
 20
0.0
 30
0.0
  9
$PUCSBASE
  2

  9
$PUCSNAME
  2

  9
$PUCSORG
 10
0.0
 20
0.0
 30
0.0
  9
$PUCSXDIR
 10
1.0
 20
0.0
 30
0.0
  9
$PUCSYDIR
 10
0.0
 20
1.0
 30
0.0
  9
$PUCSORTHOREF
  2

  9
$PUCSORTHOVIEW
 70
     0
  9
$PUCSORGTOP
 10
0.0
 20
0.0
 30
0.0
  9
$PUCSORGBOTTOM
 10
0.0
 20
0.0
 30
0.0
  9
$PUCSORGLEFT
 10
0.0
 20
0.0
 30
0.0
  9
$PUCSORGRIGHT
 10
0.0
 20
0.0
 30
0.0
  9
$PUCSORGFRONT
 10
0.0
 20
0.0
 30
0.0
  9
$PUCSORGBACK
 10
0.0
 20
0.0
 30
0.0
  9
$USERI1
 70
     0
  9
$USERI2
 70
     0
  9
$USERI3
 70
     0
  9
$USERI4
 70
     0
  9
$USERI5
 70
     0
  9
$USERR1
 40
0.0
  9
$USERR2
 40
0.0
  9
$USERR3
 40
0.0
  9
$USERR4
 40
0.0
  9
$USERR5
 40
0.0
  9
$WORLDVIEW
 70
     1
  9
$SHADEDGE
 70
     3
  9
$SHADEDIF
 70
    70
  9
$TILEMODE
 70
     1
  9
$MAXACTVP
 70
    64
  9
$PINSBASE
 10
0.0
 20
0.0
 30
0.0
  9
$PLIMCHECK
 70
     0
  9
$PEXTMIN
 10
1.0000000000E+20
 20
1.0000000000E+20
 30
1.0000000000E+20
  9
$PEXTMAX
 10
-1.0000000000E+20
 20
-1.0000000000E+20
 30
-1.0000000000E+20
  9
$PLIMMIN
 10
0.0
 20
0.0
  9
$PLIMMAX
 10
420.0
 20
297.0
  9
$UNITMODE
 70
     0
  9
$VISRETAIN
 70
     1
  9
$PLINEGEN
 70
     0
  9
$PSLTSCALE
 70
     1
  9
$TREEDEPTH
 70
  3020
  9
$CMLSTYLE
  2
Standard
  9
$CMLJUST
 70
     0
  9
$CMLSCALE
 40
20.0
  9
$PROXYGRAPHICS
 70
     1
  9
$MEASUREMENT
 70
     1
  9
$CELWEIGHT
370
    -1
  9
$ENDCAPS
280
     0
  9
$JOINSTYLE
280
     0
  9
$LWDISPLAY
290
     1
  9
$INSUNITS
 70
     4
  9
$HYPERLINKBASE
  1

  9
$STYLESHEET
  1

  9
$XEDIT
290
     1
  9
$CEPSNTYPE
380
     0
  9
$PSTYLEMODE
290
     1
  9
$FINGERPRINTGUID
  2
{4eceb44f-7306-4256-a640-31fef658f2e1}
  9
$VERSIONGUID
  2
{FAEB1C32-E019-11D5-929B-00C0DF256EC4}
  9
$EXTNAMES
290
     1
  9
$PSVPSCALE
 40
0.0
  9
$OLESTARTUP
290
     0
  0
ENDSEC
  0
SECTION
  2
CLASSES
  0
CLASS
  1
ACDBDICTIONARYWDFLT
  2
AcDbDictionaryWithDefault
  3
ObjectDBX Classes
 90
        0
280
     0
281
     0
  0
CLASS
  1
VISUALSTYLE
  2
AcDbVisualStyle
  3
ObjectDBX Classes
 90
     4095
280
     0
281
     0
  0
CLASS
  1
MATERIAL
  2
AcDbMaterial
  3
ObjectDBX Classes
 90
     1153
280
     0
281
     0
  0
CLASS
  1
SCALE
  2
AcDbScale
  3
ObjectDBX Classes
 90
     1153
280
     0
281
     0
  0
CLASS
  1
TABLESTYLE
  2
AcDbTableStyle
  3
ObjectDBX Classes
 90
     4095
280
     0
281
     0
  0
CLASS
  1
MLEADERSTYLE
  2
AcDbMLeaderStyle
  3
ACDB_MLEADERSTYLE_CLASS
 90
     4095
280
     0
281
     0
  0
CLASS
  1
SUN
  2
AcDbSun
  3
SCENEOE
 90
     1153
280
     0
281
     0
  0
CLASS
  1
ACDBPLACEHOLDER
  2
AcDbPlaceHolder
  3
ObjectDBX Classes
 90
        0
280
     0
281
     0
  0
CLASS
  1
LAYOUT
  2
AcDbLayout
  3
ObjectDBX Classes
 90
        0
280
     0
281
     0
  0
ENDSEC
  0
SECTION
  2
TABLES
  0
TABLE
  2
VPORT
  5
8
330
0
100
AcDbSymbolTable
 70
     1
  0
VPORT
  5
29
330
8
100
AcDbSymbolTableRecord
100
AcDbViewportTableRecord
  2
*Active
 70
     0
 10
0.0
 20
0.0
 11
1.0
 21
1.0
 12
105.0
 22
148.5
 13
0.0
 23
0.0
 14
10.0
 24
10.0
 15
10.0
 25
10.0
 16
0.0
 26
0.0
 36
1.0
 17
0.0
 27
0.0
 37
0.0
 40
297.0
 41
0.7070707071
 42
50.0
 43
0.0
 44
0.0
 50
0.0
 51
0.0
 71
     0
 72
  2000
 73
     1
 74
     3
 75
     0
 76
     0
 77
     0
 78
     0
281
     0
 65
     1
110
0.0
120
0.0
130
0.0
111
1.0
121
0.0
131
0.0
112
0.0
122
1.0
132
0.0
 79
     0
146
0.0
  0
ENDTAB
  0
TABLE
  2
LTYPE
  5
5
330
0
100
AcDbSymbolTable
 70
     6
  0
LTYPE
  5
14
330
5
100
AcDbSymbolTableRecord
100
AcDbLinetypeTableRecord
  2
ByBlock
 70
     0
  3

 72
    65
 73
     0
 40
0.0
  0
LTYPE
  5
15
330
5
100
AcDbSymbolTableRecord
100
AcDbLinetypeTableRecord
  2
ByLayer
 70
     0
  3

 72
    65
 73
     0
 40
0.0
  0
LTYPE
  5
16
330
5
100
AcDbSymbolTableRecord
100
AcDbLinetypeTableRecord
  2
Continuous
 70
     0
  3
Solid line
 72
    65
 73
     0
 40
0.0
  0
LTYPE
  5
5E
330
5
100
AcDbSymbolTableRecord
100
AcDbLinetypeTableRecord
  2
HIDDEN
 70
     0
  3
Hidden __ __ __ __ __ __ __ __ __ __ __ __ __ __
 72
    65
 73
     2
 40
1.905
 49
1.27
 74
     0
 49
-0.635
 74
     0
  0
LTYPE
  5
5F
330
5
100
AcDbSymbolTableRecord
100
AcDbLinetypeTableRecord
  2
PHANTOM
 70
     0
  3
Phantom ______  __  __  ______  __  __  ______
 72
    65
 73
     6
 40
12.7
 49
6.35
 74
     0
 49
-1.27
 74
     0
 49
1.27
 74
     0
 49
-1.27
 74
     0
 49
1.27
 74
     0
 49
-1.27
 74
     0
  0
LTYPE
  5
60
330
5
100
AcDbSymbolTableRecord
100
AcDbLinetypeTableRecord
  2
CENTER
 70
     0
  3
Center ____ _ ____ _ ____ _ ____ _ ____ _ ____
 72
    65
 73
     4
 40
10.16
 49
6.35
 74
     0
 49
-1.27
 74
     0
 49
1.27
 74
     0
 49
-1.27
 74
     0
  0
LTYPE
  5
61
330
5
100
AcDbSymbolTableRecord
100
AcDbLinetypeTableRecord
  2
CENTERX2
 70
     0
  3
Center (2x) ________  __  ________  __  _____
 72
    65
 73
     4
 40
20.32
 49
12.7
 74
     0
 49
-2.54
 74
     0
 49
2.54
 74
     0
 49
-2.54
 74
     0
  0
LTYPE
  5
62
330
5
100
AcDbSymbolTableRecord
100
AcDbLinetypeTableRecord
  2
DOT2
 70
     0
  3
Dot (.5x) ........................................
 72
    65
 73
     2
 40
0.635
 49
0.0
 74
     0
 49
-0.635
 74
     0
  0
ENDTAB
  0
TABLE
  2
LAYER
  5
2
330
0
100
AcDbSymbolTable
 70
     2
  0
LAYER
  5
10
330
2
100
AcDbSymbolTableRecord
100
AcDbLayerTableRecord
  2
0
 70
     0
 62
     7
  6
Continuous
370
    -3
390
F
  0
LAYER
  5
63
330
2
100
AcDbSymbolTableRecord
100
AcDbLayerTableRecord
  2
FORMAT
 70
     0
 62
     7
  6
Continuous
370
    -3
390
F
  0
ENDTAB
  0
TABLE
  2
STYLE
  5
3
330
0
100
AcDbSymbolTable
 70
     1
  0
STYLE
  5
11
330
3
100
AcDbSymbolTableRecord
100
AcDbTextStyleTableRecord
  2
Standard
 70
     0
 40
0.0
 41
1.0
 50
0.0
 71
     0
 42
3.5
  3
txt
  4

  0
ENDTAB
  0
TABLE
  2
VIEW
  5
6
330
0
100
AcDbSymbolTable
 70
     0
  0
ENDTAB
  0
TABLE
  2
UCS
  5
7
330
0
100
AcDbSymbolTable
 70
     0
  0
ENDTAB
  0
TABLE
  2
APPID
  5
9
330
0
100
AcDbSymbolTable
 70
     1
  0
APPID
  5
12
330
9
100
AcDbSymbolTableRecord
100
AcDbRegAppTableRecord
  2
ACAD
 70
     0
  0
ENDTAB
  0
TABLE
  2
DIMSTYLE
  5
A
330
0
100
AcDbSymbolTable
 70
     1
100
AcDbDimStyleTable
  0
DIMSTYLE
105
27
330
A
100
AcDbSymbolTableRecord
100
AcDbDimStyleTableRecord
  2
ISO-25
 70
     0
 41
2.5
 42
0.625
 43
3.75
 44
1.25
 73
     0
 74
     0
 77
     1
 78
     8
140
2.5
141
2.5
143
0.0393700787
147
0.625
171
     3
172
     1
178
     0
271
     2
272
     2
274
     3
278
    44
283
     0
284
     8
340
11
  0
ENDTAB
  0
TABLE
  2
BLOCK_RECORD
  5
1
330
0
100
AcDbSymbolTable
 70
     2
  0
BLOCK_RECORD
  5
1F
330
1
100
AcDbSymbolTableRecord
100
AcDbBlockTableRecord
  2
*Model_Space
340
22
  0
BLOCK_RECORD
  5
1B
330
1
100
AcDbSymbolTableRecord
100
AcDbBlockTableRecord
  2
*Paper_Space
340
1E
  0
BLOCK_RECORD
  5
23
330
1
100
AcDbSymbolTableRecord
100
AcDbBlockTableRecord
  2
*Paper_Space0
340
26
  0
BLOCK_RECORD
  5
141
330
1
100
AcDbSymbolTableRecord
100
AcDbBlockTableRecord
  2
SW_CENTERMARKSYMBOL_0
340
0
102
{BLKREFS
331
14C
102
}
  0
ENDTAB
  0
ENDSEC
  0
SECTION
  2
BLOCKS
  0
BLOCK
  5
20
330
1F
100
AcDbEntity
  8
0
100
AcDbBlockBegin
  2
*Model_Space
 70
     0
 10
0.0
 20
0.0
 30
0.0
  3
*Model_Space
  1

  0
ENDBLK
  5
21
330
1F
100
AcDbEntity
  8
0
100
AcDbBlockEnd
  0
BLOCK
  5
1C
330
1B
100
AcDbEntity
 67
     1
  8
0
100
AcDbBlockBegin
  2
*Paper_Space
 70
     0
 10
0.0
 20
0.0
 30
0.0
  3
*Paper_Space
  1

  0
ENDBLK
  5
1D
330
1B
100
AcDbEntity
 67
     1
  8
0
100
AcDbBlockEnd
  0
BLOCK
  5
24
330
23
100
AcDbEntity
  8
0
100
AcDbBlockBegin
  2
*Paper_Space0
 70
     0
 10
0.0
 20
0.0
 30
0.0
  3
*Paper_Space0
  1

  0
ENDBLK
  5
25
330
23
100
AcDbEntity
  8
0
100
AcDbBlockEnd
  0
BLOCK
  5
142
330
141
100
AcDbEntity
  8
0
100
AcDbBlockBegin
  2
SW_CENTERMARKSYMBOL_0
 70
     0
 10
0.0
 20
0.0
 30
0.0
  3
SW_CENTERMARKSYMBOL_0
  1

  0
LINE
  5
144
330
141
100
AcDbEntity
  8
0
  6
Continuous
 62
     0
370
    18
100
AcDbLine
 10
0.0
 20
0.0
 30
0.0
 11
0.0
 21
2.5
 31
0.0
  0
LINE
  5
145
330
141
100
AcDbEntity
  8
0
  6
Continuous
 62
     0
370
    18
100
AcDbLine
 10
0.0
 20
0.0
 30
0.0
 11
-2.5
 21
0.0
 31
0.0
  0
LINE
  5
146
330
141
100
AcDbEntity
  8
0
  6
Continuous
 62
     0
370
    18
100
AcDbLine
 10
0.0
 20
0.0
 30
0.0
 11
0.0
 21
-2.5
 31
0.0
  0
LINE
  5
147
330
141
100
AcDbEntity
  8
0
  6
Continuous
 62
     0
370
    18
100
AcDbLine
 10
0.0
 20
0.0
 30
0.0
 11
2.5
 21
0.0
 31
0.0
  0
LINE
  5
148
330
141
100
AcDbEntity
  8
0
  6
Continuous
 62
     0
370
    18
100
AcDbLine
 10
0.0
 20
2.5
 30
0.0
 11
0.0
 21
4.0
 31
0.0
  0
LINE
  5
149
330
141
100
AcDbEntity
  8
0
  6
Continuous
 62
     0
370
    18
100
AcDbLine
 10
-2.5
 20
0.0
 30
0.0
 11
-4.0
 21
0.0
 31
0.0
  0
LINE
  5
14A
330
141
100
AcDbEntity
  8
0
  6
Continuous
 62
     0
370
    18
100
AcDbLine
 10
0.0
 20
-2.5
 30
0.0
 11
0.0
 21
-4.0
 31
0.0
  0
LINE
  5
14B
330
141
100
AcDbEntity
  8
0
  6
Continuous
 62
     0
370
    18
100
AcDbLine
 10
2.5
 20
0.0
 30
0.0
 11
4.0
 21
0.0
 31
0.0
  0
ENDBLK
  5
143
330
141
100
AcDbEntity
  8
0
100
AcDbBlockEnd
  0
ENDSEC
  0
SECTION
  2
ENTITIES
  0
SPLINE
  5
64
330
1F
100
AcDbEntity
  8
0
  6
Continuous
 62
     7
370
    25
100
AcDbSpline
210
0.0
220
0.0
230
1.0
 70
     8
 71
     3
 72
     8
 73
     4
 74
     0
 42
0.00000001
 43
0.00000001
 40
0.8916109454521294
 40
0.8916109454521294
 40
0.8916109454521294
 40
0.8916109454521294
 40
1.0
 40
1.0
 40
1.0
 40
1.0
 10
126.8449770020572
 20
221.8871683640722
 30
0.0
 10
126.8197486937198
 20
221.8008495408756
 30
0.0
 10
126.7932562695323
 20
221.7148413601875
 30
0.0
 10
126.7667638453447
 20
221.6288331794995
 30
0.0
  0
SPLINE
  5
65
330
1F
100
AcDbEntity
  8
0
  6
Continuous
 62
     7
370
    25
100
AcDbSpline
210
0.0
220
0.0
230
1.0
 70
     8
 71
     3
 72
    14
 73
    10
 74
     0
 42
0.00000001
 43
0.00000001
 40
0.0
 40
0.0
 40
0.0
 40
0.0
 40
0.1268769987438673
 40
0.252379265978895
 40
0.3772487150976684
 40
0.500842808028573
 40
0.6249802328846313
 40
0.748792240929673
 40
0.8199238503996834
 40
0.8199238503996834
 40
0.8199238503996834
 40
0.8199238503996834
 10
126.7667638453447
 20
221.6288331794995
 30
0.0
 10
126.7106453813031
 20
221.4739069096064
 30
0.0
 10
126.5990165052822
 20
221.1657330194325
 30
0.0
 10
126.3955739469539
 20
220.7197619007369
 30
0.0
 10
126.1731222120905
 20
220.2879894504227
 30
0.0
 10
125.9235820425287
 20
219.8732177780507
 30
0.0
 10
125.6510055943157
 20
219.4748496170091
 30
0.0
 10
125.3945020822288
 20
219.1493428508417
 30
0.0
 10
125.2304933594958
 20
218.9563998475417
 30
0.0
 10
125.1693595756257
 20
218.8871683640722
 30
0.0
  0
LINE
  5
66
330
1F
100
AcDbEntity
  8
0
  6
Continuous
 62
     7
370
    25
100
AcDbLine
 10
125.1693595756
 20
218.8871683641
 30
0.0
 11
126.5029382537
 21
218.8871683641
 31
0.0
  0
SPLINE
  5
67
330
1F
100
AcDbEntity
  8
0
  6
Continuous
 62
     7
370
    25
100
AcDbSpline
210
0.0
220
0.0
230
1.0
 70
     8
 71
     3
 72
     8
 73
     4
 74
     0
 42
0.00000001
 43
0.00000001
 40
0.7833902322350567
 40
0.7833902322350567
 40
0.7833902322350567
 40
0.7833902322350567
 40
1.0
 40
1.0
 40
1.0
 40
1.0
 10
126.5029382536923
 20
218.8871683640748
 30
0.0
 10
126.5806224596315
 20
219.0746053602817
 30
0.0
 10
126.6583618693302
 20
219.2620188362064
 30
0.0
 10
126.736101279029
 20
219.4494323121311
 30
0.0
  0
LINE
  5
68
330
1F
100
AcDbEntity
  8
0
  6
Continuous
 62
     7
370
    25
100
AcDbLine
 10
126.736101279
 20
219.4494323121
 30
0.0
 11
127.7287876095
 21
221.8871683641
 31
0.0
  0
LINE
  5
69
330
1F
100
AcDbEntity
  8
0
  6
Continuous
 62
     7
370
    25
100
AcDbLine
 10
127.7287876095
 20
221.8871683641
 30
0.0
 11
126.8449770021
 21
221.8871683641
 31
0.0
  0
LINE
  5
6A
330
1F
100
AcDbEntity
  8
0
  6
Continuous
 62
     7
370
    25
100
AcDbLine
 10
130.434073921
 20
218.8871683641
 30
0.0
 11
130.1231355275
 21
221.025016489
 31
0.0
  0
LINE
  5
6B
330
1F
100
AcDbEntity
  8
0
  6
Continuous
 62
     7
370
    25
100
AcDbLine
 10
130.1231355275
 20
221.025016489
 30
0.0
 11
129.9768986727
 21
220.7915092532
 31
0.0
  0
LINE
  5
6C
330
1F
100
AcDbEntity
  8
0
  6
Continuous
 62
     7
370
    25
100
AcDbLine
 10
129.9768986727
 20
220.7915092532
 30
0.0
 11
129.6773489864
 21
220.0131518006
 31
0.0
  0
SPLINE
  5
6D
330
1F
100
AcDbEntity
  8
0
  6
Continuous
 62
     7
370
    25
100
AcDbSpline
210
0.0
220
0.0
230
1.0
 70
     8
 71
     3
 72
     9
 73
     5
 74
     0
 42
0.00000001
 43
0.00000001
 40
0.0
 40
0.0
 40
0.0
 40
0.0
 40
0.2348127600528213
 40
0.3477173001831721
 40
0.3477173001831721
 40
0.3477173001831721
 40
0.3477173001831721
 10
129.6773489863974
 20
220.0131518005522
 30
0.0
 10
129.5798960122765
 20
219.7602699375904
 30
0.0
 10
129.4355849235243
 20
219.3857954046281
 30
0.0
 10
129.2961943123679
 20
219.0094731922153
 30
0.0
 10
129.2512341362892
 20
218.8871683626456
 30
0.0
  0
LINE
  5
6E
330
1F
100
AcDbEntity
  8
0
  6
Continuous
 62
     7
370
    25
100
AcDbLine
 10
129.2512341363
 20
218.8871683626
 30
0.0
 11
130.434073921
 21
218.8871683641
 31
0.0
  0
SPLINE
  5
6F
330
1F
100
AcDbEntity
  8
0
  6
Continuous
 62
     7
370
    25
100
AcDbSpline
210
0.0
220
0.0
230
1.0
 70
     8
 71
     3
 72
    15
 73
    11
 74
     0
 42
0.00000001
 43
0.00000001
 40
0.0
 40
0.0
 40
0.0
 40
0.0
 40
0.1800401172408262
 40
0.3359529373220454
 40
0.4740658737018343
 40
0.5937809723797095
 40
0.7012840504657043
 40
0.7991000642035614
 40
0.8966465261457571
 40
1.0
 40
1.0
 40
1.0
 40
1.0
 10
121.4527052369237
 20
219.8433283563416
 30
0.0
 10
121.4584692694737
 20
219.7732068064659
 30
0.0
 10
121.4692248926961
 20
219.6423607427588
 30
0.0
 10
121.5037404012892
 20
219.4599043649521
 30
0.0
 10
121.5552659606766
 20
219.3061504403586
 30
0.0
 10
121.6187685611082
 20
219.1779087041157
 30
0.0
 10
121.6958590379019
 20
219.0751799303994
 30
0.0
 10
121.7922625418402
 20
219.004455872997
 30
0.0
 10
121.9017544436675
 20
218.9589159976174
 30
0.0
 10
121.9805866287084
 20
218.954187738798
 30
0.0
 10
122.0211420432395
 20
218.9517552742363
 30
0.0
  0
SPLINE
  5
70
330
1F
100
AcDbEntity
  8
0
  6
Continuous
 62
     7
370
    25
100
AcDbSpline
210
0.0
220
0.0
230
1.0
 70
     8
 71
     3
 72
    15
 73
    11
 74
     0
 42
0.00000001
 43
0.00000001
 40
0.0
 40
0.0
 40
0.0
 40
0.0
 40
0.0857699064722052
 40
0.1767721184981466
 40
0.2786689995296849
 40
0.3926680872716574
 40
0.5202759491373123
 40
0.6646099146895152
 40
0.8236476819294999
 40
0.9999999999999999
 40
0.9999999999999999
 40
0.9999999999999999
 40
0.9999999999999999
 10
122.0211420432395
 20
218.9517552742363
 30
0.0
 10
122.0694340961545
 20
218.955314811289
 30
0.0
 10
122.1689642093554
 20
218.9626510313171
 30
0.0
 10
122.319183915032
 20
219.0132686941422
 30
0.0
 10
122.4699382042696
 20
219.0986755028068
 30
0.0
 10
122.625945115425
 20
219.213443917062
 30
0.0
 10
122.7877236751028
 20
219.3589703908126
 30
0.0
 10
122.9508135357613
 20
219.5389150979526
 30
0.0
 10
123.1192735227383
 20
219.7501668744578
 30
0.0
 10
123.2265940823191
 20
219.9055199528651
 30
0.0
 10
123.2830245800816
 20
219.9872065521311
 30
0.0
  0
SPLINE
  5
71
330
1F
100
AcDbEntity
  8
0
  6
Continuous
 62
     7
370
    25
100
AcDbSpline
210
0.0
220
0.0
230
1.0
 70
     8
 71
     3
 72
    11
 73
     7
 74
     0
 42
0.00000001
 43
0.00000001
 40
0.0
 40
0.0
 40
0.0
 40
0.0
 40
0.272745591194236
 40
0.530366864969552
 40
0.7713090058155919
 40
1.0
 40
1.0
 40
1.0
 40
1.0
 10
123.2830245800816
 20
219.9872065521311
 30
0.0
 10
123.3755028032417
 20
220.126679256536
 30
0.0
 10
123.5553311373336
 20
220.3978906101646
 30
0.0
 10
123.7828211411855
 20
220.8131080754513
 30
0.0
 10
123.9717489716958
 20
221.217959211102
 30
0.0
 10
124.0637531581165
 20
221.4911054667004
 30
0.0
 10
124.1085552116606
 20
221.6241158616048
 30
0.0
  0
SPLINE
  5
72
330
1F
100
AcDbEntity
  8
0
  6
Continuous
 62
     7
370
    25
100
AcDbSpline
210
0.0
220
0.0
230
1.0
 70
     8
 71
     3
 72
    11
 73
     7
 74
     0
 42
0.00000001
 43
0.00000001
 40
0.0
 40
0.0
 40
0.0
 40
0.0
 40
0.2567642069007556
 40
0.5072868902445359
 40
0.7532456364992636
 40
0.9999999999999999
 40
0.9999999999999999
 40
0.9999999999999999
 40
0.9999999999999999
 10
124.1085552116606
 20
221.6241158616048
 30
0.0
 10
124.1636704782165
 20
221.8109204575169
 30
0.0
 10
124.272561248132
 20
222.1799887310409
 30
0.0
 10
124.3508353468226
 20
222.7471597933356
 30
0.0
 10
124.3598335931716
 20
223.3124294160829
 30
0.0
 10
124.3039879216031
 20
223.6820778536022
 30
0.0
 10
124.2760199969237
 20
223.8672005205521
 30
0.0
  0
LINE
  5
73
330
1F
100
AcDbEntity
  8
0
  6
Continuous
 62
     7
370
    25
100
AcDbLine
 10
124.2760199969
 20
223.8672005206
 30
0.0
 11
124.5732110243
 21
223.9568295606
 31
0.0
  0
SPLINE
  5
74
330
1F
100
AcDbEntity
  8
0
  6
Continuous
 62
     7
370
    25
100
AcDbSpline
210
0.0
220
0.0
230
1.0
 70
     8
 71
     3
 72
     9
 73
     5
 74
     0
 42
0.00000001
 43
0.00000001
 40
0.0
 40
0.0
 40
0.0
 40
0.0
 40
0.466247950292328
 40
1.0
 40
1.0
 40
1.0
 40
1.0
 10
124.5732110242921
 20
223.9568295605521
 30
0.0
 10
124.5398743839214
 20
223.9892321704612
 30
0.0
 10
124.4683745728233
 20
224.0587286902608
 30
0.0
 10
124.4229276502587
 20
224.1476123034899
 30
0.0
 10
124.3986702621869
 20
224.1950541142363
 30
0.0
  0
SPLINE
  5
75
330
1F
100
AcDbEntity
  8
0
  6
Continuous
 62
     7
370
    25
100
AcDbSpline
210
0.0
220
0.0
230
1.0
 70
     8
 71
     3
 72
    11
 73
     7
 74
     0
 42
0.00000001
 43
0.00000001
 40
0.0
 40
0.0
 40
0.0
 40
0.0
 40
0.2774366320390029
 40
0.5275788897870026
 40
0.7617099163257698
 40
1.0
 40
1.0
 40
1.0
 40
1.0
 10
124.3986702621869
 20
224.1950541142363
 30
0.0
 10
124.3647415074709
 20
224.2449240619359
 30
0.0
 10
124.3002219283031
 20
224.339757723402
 30
0.0
 10
124.1720263433657
 20
224.4467524030799
 30
0.0
 10
124.0271067785308
 20
224.513082990591
 30
0.0
 10
123.9244630193271
 20
224.5211814758778
 30
0.0
 10
123.8726893169237
 20
224.5252663668679
 30
0.0
  0
SPLINE
  5
76
330
1F
100
AcDbEntity
  8
0
  6
Continuous
 62
     7
370
    25
100
AcDbSpline
210
0.0
220
0.0
230
1.0
 70
     8
 71
     3
 72
    15
 73
    11
 74
     0
 42
0.00000001
 43
0.00000001
 40
0.0
 40
0.0
 40
0.0
 40
0.0
 40
0.0713930669820646
 40
0.155349725424254
 40
0.2521981208648023
 40
0.3651388687640099
 40
0.4961988665003541
 40
0.6451551495115533
 40
0.8125571938378707
 40
1.0
 40
1.0
 40
1.0
 40
1.0
 10
123.8726893169237
 20
224.5252663668679
 30
0.0
 10
123.8416628864661
 20
224.5229369929608
 30
0.0
 10
123.7741500640558
 20
224.5178683271619
 30
0.0
 10
123.6729390305265
 20
224.4727037937726
 30
0.0
 10
123.5638443517003
 20
224.4077671311047
 30
0.0
 10
123.4445749968964
 20
224.3199721155242
 30
0.0
 10
123.3216004484577
 20
224.2020865139085
 30
0.0
 10
123.1862364166389
 20
224.0634286420857
 30
0.0
 10
123.04515250873
 20
223.8968200766955
 30
0.0
 10
122.9507754511178
 20
223.7755752485199
 30
0.0
 10
122.9009218306079
 20
223.7115290300258
 30
0.0
  0
SPLINE
  5
77
330
1F
100
AcDbEntity
  8
0
  6
Continuous
 62
     7
370
    25
100
AcDbSpline
210
0.0
220
0.0
230
1.0
 70
     8
 71
     3
 72
    11
 73
     7
 74
     0
 42
0.00000001
 43
0.00000001
 40
0.0
 40
0.0
 40
0.0
 40
0.0
 40
0.2259730038496024
 40
0.4666046186272332
 40
0.7244133176428722
 40
0.9999999999999999
 40
0.9999999999999999
 40
0.9999999999999999
 40
0.9999999999999999
 10
122.9009218306079
 20
223.7115290300258
 30
0.0
 10
122.7861442717219
 20
223.551592000018
 30
0.0
 10
122.5491436646643
 20
223.2213430073513
 30
0.0
 10
122.2434387754469
 20
222.6684269541068
 30
0.0
 10
121.9589088260431
 20
222.0569801765341
 30
0.0
 10
121.7993259256086
 20
221.6207241361629
 30
0.0
 10
121.716875039029
 20
221.39532594371
 30
0.0
  0
SPLINE
  5
78
330
1F
100
AcDbEntity
  8
0
  6
Continuous
 62
     7
370
    25
100
AcDbSpline
210
0.0
220
0.0
230
1.0
 70
     8
 71
     3
 72
    11
 73
     7
 74
     0
 42
0.00000001
 43
0.00000001
 40
0.0
 40
0.0
 40
0.0
 40
0.0
 40
0.2817983385909826
 40
0.5395106748006434
 40
0.7795279814922874
 40
0.9999999999999999
 40
0.9999999999999999
 40
0.9999999999999999
 40
0.9999999999999999
 10
121.716875039029
 20
221.39532594371
 30
0.0
 10
121.6712055780681
 20
221.2536895964838
 30
0.0
 10
121.5837701381576
 20
220.9825229116467
 30
0.0
 10
121.4960032844263
 20
220.5800839499232
 30
0.0
 10
121.4467214233301
 20
220.2030973056791
 30
0.0
 10
121.4507678825151
 20
219.9598092508738
 30
0.0
 10
121.4527052369237
 20
219.8433283563416
 30
0.0
  0
LINE
  5
79
330
1F
100
AcDbEntity
  8
0
  6
Continuous
 62
     7
370
    25
100
AcDbLine
 10
91.1921365868
 20
221.8871683641
 30
0.0
 11
90.3207657906
 21
219.6074624616
 31
0.0
  0
SPLINE
  5
7A
330
1F
100
AcDbEntity
  8
0
  6
Continuous
 62
     7
370
    25
100
AcDbSpline
210
0.0
220
0.0
230
1.0
 70
     8
 71
     3
 72
     8
 73
     4
 74
     0
 42
0.00000001
 43
0.00000001
 40
0.0
 40
0.0
 40
0.0
 40
0.0
 40
0.2515335637088491
 40
0.2515335637088491
 40
0.2515335637088491
 40
0.2515335637088491
 10
90.32076579060792
 20
219.6074624616048
 30
0.0
 10
90.22668562268291
 20
219.3676132875242
 30
0.0
 10
90.13260545475788
 20
219.1277641134436
 30
0.0
 10
90.04048432905104
 20
218.8871683657976
 30
0.0
  0
LINE
  5
7B
330
1F
100
AcDbEntity
  8
0
  6
Continuous
 62
     7
370
    25
100
AcDbLine
 10
90.0404843291
 20
218.8871683658
 30
0.0
 11
93.7895457836
 21
218.8871683641
 31
0.0
  0
SPLINE
  5
7C
330
1F
100
AcDbEntity
  8
0
  6
Continuous
 62
     7
370
    25
100
AcDbSpline
210
0.0
220
0.0
230
1.0
 70
     8
 71
     3
 72
    14
 73
    10
 74
     0
 42
0.00000001
 43
0.00000001
 40
0.2045455223073596
 40
0.2045455223073596
 40
0.2045455223073596
 40
0.2045455223073596
 40
0.215164590926794
 40
0.329207226428296
 40
0.4489434113583753
 40
0.5752698088515483
 40
0.7081902222117941
 40
0.8497619706582878
 40
1.0
 40
1.0
 40
1.0
 40
1.0
 10
93.78954578357443
 20
218.8871683640722
 30
0.0
 10
93.78819391724599
 20
218.898471276878
 30
0.0
 10
93.77290407895933
 20
219.031227056557
 30
0.0
 10
93.75555639180807
 20
219.2926651116977
 30
0.0
 10
93.7694070870902
 20
219.678591629376
 30
0.0
 10
93.8144827433545
 20
220.0822608425186
 30
0.0
 10
93.89444247912121
 20
220.504236874211
 30
0.0
 10
94.00409006438184
 20
220.9460374971318
 30
0.0
 10
94.10277745593277
 20
221.2426270506691
 30
0.0
 10
94.15358658008161
 20
221.39532594371
 30
0.0
  0
SPLINE
  5
7D
330
1F
100
AcDbEntity
  8
0
  6
Continuous
 62
     7
370
    25
100
AcDbSpline
210
0.0
220
0.0
230
1.0
 70
     8
 71
     3
 72
     8
 73
     4
 74
     0
 42
0.00000001
 43
0.00000001
 40
0.0
 40
0.0
 40
0.0
 40
0.0
 40
0.1229218590506702
 40
0.1229218590506702
 40
0.1229218590506702
 40
0.1229218590506702
 10
94.15358658008161
 20
221.39532594371
 30
0.0
 10
94.21208182176869
 20
221.5598893869323
 30
0.0
 10
94.27057706345579
 20
221.7244528301546
 30
0.0
 10
94.3337743255908
 20
221.887168364136
 30
0.0
  0
LINE
  5
7E
330
1F
100
AcDbEntity
  8
0
  6
Continuous
 62
     7
370
    25
100
AcDbLine
 10
94.3337743258
 20
221.8871683641
 30
0.0
 11
91.1921365868
 21
221.8871683641
 31
0.0
  0
SPLINE
  5
7F
330
1F
100
AcDbEntity
  8
0
  6
Continuous
 62
     7
370
    25
100
AcDbSpline
210
0.0
220
0.0
230
1.0
 70
     8
 71
     3
 72
    15
 73
    11
 74
     0
 42
0.00000001
 43
0.00000001
 40
0.0
 40
0.0
 40
0.0
 40
0.0
 40
0.1800401172408268
 40
0.3359529373220465
 40
0.474065873701834
 40
0.5937809723797095
 40
0.7012840504657046
 40
0.7991000642035667
 40
0.8966465261457628
 40
1.0
 40
1.0
 40
1.0
 40
1.0
 10
96.54526675271319
 20
219.8433283563416
 30
0.0
 10
96.55103078526311
 20
219.7732068064659
 30
0.0
 10
96.56178640848556
 20
219.6423607427588
 30
0.0
 10
96.59630191707872
 20
219.4599043649521
 30
0.0
 10
96.64782747646608
 20
219.3061504403586
 30
0.0
 10
96.71133007689761
 20
219.1779087041157
 30
0.0
 10
96.78842055369137
 20
219.0751799303994
 30
0.0
 10
96.88482405762969
 20
219.004455872997
 30
0.0
 10
96.99431595945693
 20
218.9589159976174
 30
0.0
 10
97.07314814449785
 20
218.954187738798
 30
0.0
 10
97.11370355902899
 20
218.9517552742363
 30
0.0
  0
SPLINE
  5
80
330
1F
100
AcDbEntity
  8
0
  6
Continuous
 62
     7
370
    25
100
AcDbSpline
210
0.0
220
0.0
230
1.0
 70
     8
 71
     3
 72
    15
 73
    11
 74
     0
 42
0.00000001
 43
0.00000001
 40
0.0
 40
0.0
 40
0.0
 40
0.0
 40
0.0857699064722092
 40
0.1767721184981505
 40
0.278668999529685
 40
0.3926680872716607
 40
0.5202759491373156
 40
0.6646099146895182
 40
0.8236476819295002
 40
1.0
 40
1.0
 40
1.0
 40
1.0
 10
97.11370355902898
 20
218.9517552742363
 30
0.0
 10
97.16199561194396
 20
218.955314811289
 30
0.0
 10
97.26152572514484
 20
218.9626510313171
 30
0.0
 10
97.41174543082144
 20
219.0132686941422
 30
0.0
 10
97.56249972005912
 20
219.0986755028068
 30
0.0
 10
97.71850663121442
 20
219.213443917062
 30
0.0
 10
97.88028519089234
 20
219.3589703908126
 30
0.0
 10
98.04337505155081
 20
219.5389150979526
 30
0.0
 10
98.21183503852781
 20
219.7501668744578
 30
0.0
 10
98.31915559810855
 20
219.9055199528651
 30
0.0
 10
98.37558609587107
 20
219.9872065521311
 30
0.0
  0
SPLINE
  5
81
330
1F
100
AcDbEntity
  8
0
  6
Continuous
 62
     7
370
    25
100
AcDbSpline
210
0.0
220
0.0
230
1.0
 70
     8
 71
     3
 72
    11
 73
     7
 74
     0
 42
0.00000001
 43
0.00000001
 40
0.0
 40
0.0
 40
0.0
 40
0.0
 40
0.2727455911942375
 40
0.5303668649695513
 40
0.7713090058155925
 40
1.0
 40
1.0
 40
1.0
 40
1.0
 10
98.37558609587107
 20
219.9872065521311
 30
0.0
 10
98.46806431903116
 20
220.126679256536
 30
0.0
 10
98.64789265312304
 20
220.3978906101646
 30
0.0
 10
98.87538265697502
 20
220.8131080754513
 30
0.0
 10
99.06431048748529
 20
221.2179592111019
 30
0.0
 10
99.15631467390601
 20
221.4911054667004
 30
0.0
 10
99.20111672745004
 20
221.6241158616048
 30
0.0
  0
SPLINE
  5
82
330
1F
100
AcDbEntity
  8
0
  6
Continuous
 62
     7
370
    25
100
AcDbSpline
210
0.0
220
0.0
230
1.0
 70
     8
 71
     3
 72
    11
 73
     7
 74
     0
 42
0.00000001
 43
0.00000001
 40
0.0
 40
0.0
 40
0.0
 40
0.0
 40
0.2567642069007556
 40
0.5072868902445354
 40
0.7532456364992633
 40
0.9999999999999999
 40
0.9999999999999999
 40
0.9999999999999999
 40
0.9999999999999999
 10
99.20111672745003
 20
221.6241158616048
 30
0.0
 10
99.25623199400596
 20
221.8109204575169
 30
0.0
 10
99.36512276392142
 20
222.1799887310409
 30
0.0
 10
99.4433968626121
 20
222.7471597933356
 30
0.0
 10
99.4523951089611
 20
223.3124294160829
 30
0.0
 10
99.39654943739255
 20
223.6820778536022
 30
0.0
 10
99.36858151271319
 20
223.8672005205521
 30
0.0
  0
LINE
  5
83
330
1F
100
AcDbEntity
  8
0
  6
Continuous
 62
     7
370
    25
100
AcDbLine
 10
99.3685815127
 20
223.8672005206
 30
0.0
 11
99.6657725401
 21
223.9568295606
 31
0.0
  0
SPLINE
  5
84
330
1F
100
AcDbEntity
  8
0
  6
Continuous
 62
     7
370
    25
100
AcDbSpline
210
0.0
220
0.0
230
1.0
 70
     8
 71
     3
 72
     9
 73
     5
 74
     0
 42
0.00000001
 43
0.00000001
 40
0.0
 40
0.0
 40
0.0
 40
0.0
 40
0.4662479502923224
 40
1.0
 40
1.0
 40
1.0
 40
1.0
 10
99.6657725400816
 20
223.9568295605521
 30
0.0
 10
99.63243589971084
 20
223.9892321704612
 30
0.0
 10
99.56093608861278
 20
224.0587286902608
 30
0.0
 10
99.51548916604813
 20
224.1476123034899
 30
0.0
 10
99.49123177797634
 20
224.1950541142363
 30
0.0
  0
SPLINE
  5
85
330
1F
100
AcDbEntity
  8
0
  6
Continuous
 62
     7
370
    25
100
AcDbSpline
210
0.0
220
0.0
230
1.0
 70
     8
 71
     3
 72
    11
 73
     7
 74
     0
 42
0.00000001
 43
0.00000001
 40
0.0
 40
0.0
 40
0.0
 40
0.0
 40
0.2774366320390051
 40
0.5275788897869985
 40
0.7617099163257677
 40
1.0
 40
1.0
 40
1.0
 40
1.0
 10
99.49123177797634
 20
224.1950541142363
 30
0.0
 10
99.45730302326041
 20
224.2449240619359
 30
0.0
 10
99.39278344409259
 20
224.339757723402
 30
0.0
 10
99.26458785915523
 20
224.4467524030799
 30
0.0
 10
99.1196682943202
 20
224.513082990591
 30
0.0
 10
99.01702453511662
 20
224.5211814758778
 30
0.0
 10
98.9652508327132
 20
224.5252663668679
 30
0.0
  0
SPLINE
  5
86
330
1F
100
AcDbEntity
  8
0
  6
Continuous
 62
     7
370
    25
100
AcDbSpline
210
0.0
220
0.0
230
1.0
 70
     8
 71
     3
 72
    15
 73
    11
 74
     0
 42
0.00000001
 43
0.00000001
 40
0.0
 40
0.0
 40
0.0
 40
0.0
 40
0.0713930669820645
 40
0.1553497254242588
 40
0.252198120864807
 40
0.3651388687640143
 40
0.4961988665003544
 40
0.6451551495115572
 40
0.8125571938378743
 40
1.0
 40
1.0
 40
1.0
 40
1.0
 10
98.96525083271318
 20
224.5252663668679
 30
0.0
 10
98.93422440225558
 20
224.5229369929608
 30
0.0
 10
98.8667115798453
 20
224.5178683271619
 30
0.0
 10
98.76550054631595
 20
224.4727037937726
 30
0.0
 10
98.65640586748977
 20
224.4077671311047
 30
0.0
 10
98.53713651268583
 20
224.3199721155242
 30
0.0
 10
98.41416196424716
 20
224.2020865139085
 30
0.0
 10
98.27879793242833
 20
224.0634286420857
 30
0.0
 10
98.1377140245195
 20
223.8968200766955
 30
0.0
 10
98.04333696690732
 20
223.7755752485199
 30
0.0
 10
97.9934833463974
 20
223.7115290300258
 30
0.0
  0
SPLINE
  5
87
330
1F
100
AcDbEntity
  8
0
  6
Continuous
 62
     7
370
    25
100
AcDbSpline
210
0.0
220
0.0
230
1.0
 70
     8
 71
     3
 72
    11
 73
     7
 74
     0
 42
0.00000001
 43
0.00000001
 40
0.0
 40
0.0
 40
0.0
 40
0.0
 40
0.2259730038496023
 40
0.4666046186272343
 40
0.7244133176428733
 40
1.0
 40
1.0
 40
1.0
 40
1.0
 10
97.9934833463974
 20
223.7115290300258
 30
0.0
 10
97.87870578751135
 20
223.551592000018
 30
0.0
 10
97.64170518045373
 20
223.2213430073513
 30
0.0
 10
97.33600029123635
 20
222.6684269541069
 30
0.0
 10
97.05147034183257
 20
222.0569801765341
 30
0.0
 10
96.8918874413981
 20
221.6207241361629
 30
0.0
 10
96.80943655481845
 20
221.39532594371
 30
0.0
  0
SPLINE
  5
88
330
1F
100
AcDbEntity
  8
0
  6
Continuous
 62
     7
370
    25
100
AcDbSpline
210
0.0
220
0.0
230
1.0
 70
     8
 71
     3
 72
    11
 73
     7
 74
     0
 42
0.00000001
 43
0.00000001
 40
0.0
 40
0.0
 40
0.0
 40
0.0
 40
0.2817983385909824
 40
0.5395106748006431
 40
0.7795279814922875
 40
0.9999999999999999
 40
0.9999999999999999
 40
0.9999999999999999
 40
0.9999999999999999
 10
96.80943655481845
 20
221.39532594371
 30
0.0
 10
96.76376709385761
 20
221.2536895964838
 30
0.0
 10
96.67633165394705
 20
220.9825229116467
 30
0.0
 10
96.58856480021579
 20
220.5800839499232
 30
0.0
 10
96.53928293911956
 20
220.2030973056791
 30
0.0
 10
96.54332939830452
 20
219.9598092508738
 30
0.0
 10
96.54526675271319
 20
219.8433283563416
 30
0.0
  0
SPLINE
  5
89
330
1F
100
AcDbEntity
  8
0
  6
Continuous
 62
     7
370
    25
100
AcDbSpline
210
0.0
220
0.0
230
1.0
 70
     8
 71
     3
 72
     9
 73
     5
 74
     0
 42
0.00000001
 43
0.00000001
 40
0.8344795710151313
 40
0.8344795710151313
 40
0.8344795710151313
 40
0.8344795710151313
 40
0.8366094585094096
 40
1.0
 40
1.0
 40
1.0
 40
1.0
 10
85.3180519990131
 20
221.8871683641025
 30
0.0
 10
85.31726619290579
 20
221.8843956221299
 30
0.0
 10
85.25611904886618
 20
221.6689399080324
 30
0.0
 10
85.18876692213237
 20
221.4552811782541
 30
0.0
 10
85.12228147060792
 20
221.2443717710784
 30
0.0
  0
SPLINE
  5
8A
330
1F
100
AcDbEntity
  8
0
  6
Continuous
 62
     7
370
    25
100
AcDbSpline
210
0.0
220
0.0
230
1.0
 70
     8
 71
     3
 72
     9
 73
     5
 74
     0
 42
0.00000001
 43
0.00000001
 40
0.0
 40
0.0
 40
0.0
 40
0.0
 40
0.5136147910945373
 40
1.0
 40
1.0
 40
1.0
 40
1.0
 10
85.12228147060792
 20
221.2443717710784
 30
0.0
 10
84.86293455521295
 20
221.2626418309904
 30
0.0
 10
84.3579901496161
 20
221.2982133531288
 30
0.0
 10
83.85184518957573
 20
221.3048349270449
 30
0.0
 10
83.60566376745003
 20
221.3080555626574
 30
0.0
  0
SPLINE
  5
8B
330
1F
100
AcDbEntity
  8
0
  6
Continuous
 62
     7
370
    25
100
AcDbSpline
210
0.0
220
0.0
230
1.0
 70
     8
 71
     3
 72
    11
 73
     7
 74
     0
 42
0.00000001
 43
0.00000001
 40
0.0
 40
0.0
 40
0.0
 40
0.0
 40
0.2428931212857047
 40
0.4898298950968449
 40
0.7428631547605296
 40
0.9999999999999999
 40
0.9999999999999999
 40
0.9999999999999999
 40
0.9999999999999999
 10
83.60566376745003
 20
221.3080555626574
 30
0.0
 10
83.32026130000692
 20
221.3070908262332
 30
0.0
 10
82.74470502262845
 20
221.3051452925805
 30
0.0
 10
81.8719190966647
 20
221.2909503490842
 30
0.0
 10
80.98266890677189
 20
221.2648093557505
 30
0.0
 10
80.38371374690936
 20
221.240243090984
 30
0.0
 10
80.08182730008161
 20
221.2278611584469
 30
0.0
  0
SPLINE
  5
8C
330
1F
100
AcDbEntity
  8
0
  6
Continuous
 62
     7
370
    25
100
AcDbSpline
210
0.0
220
0.0
230
1.0
 70
     8
 71
     3
 72
    11
 73
     7
 74
     0
 42
0.00000001
 43
0.00000001
 40
0.0
 40
0.0
 40
0.0
 40
0.0
 40
0.270583355980404
 40
0.5269517165734565
 40
0.7680017394124738
 40
1.0
 40
1.0
 40
1.0
 40
1.0
 10
80.08182730008161
 20
221.2278611584469
 30
0.0
 10
80.0440955905911
 20
221.1050351821207
 30
0.0
 10
79.9706143928536
 20
220.8658358461883
 30
0.0
 10
79.9025191174703
 20
220.5070927998651
 30
0.0
 10
79.87166078378182
 20
220.1613946507958
 30
0.0
 10
79.88132094853144
 20
219.9369115540204
 30
0.0
 10
79.88605860745002
 20
219.8268177437101
 30
0.0
  0
SPLINE
  5
8D
330
1F
100
AcDbEntity
  8
0
  6
Continuous
 62
     7
370
    25
100
AcDbSpline
210
0.0
220
0.0
230
1.0
 70
     8
 71
     3
 72
    15
 73
    11
 74
     0
 42
0.00000001
 43
0.00000001
 40
0.0
 40
0.0
 40
0.0
 40
0.0
 40
0.1778428764713581
 40
0.3331691911937327
 40
0.4706049815330141
 40
0.5905425785480451
 40
0.6974251736190412
 40
0.7961228780882654
 40
0.8957149220405635
 40
1.0
 40
1.0
 40
1.0
 40
1.0
 10
79.88605860745002
 20
219.8268177437101
 30
0.0
 10
79.89284301596298
 20
219.758283608594
 30
0.0
 10
79.90555286378952
 20
219.6298923970999
 30
0.0
 10
79.93953453062932
 20
219.4505168211362
 30
0.0
 10
79.99036179016933
 20
219.298307055271
 30
0.0
 10
80.05705511997171
 20
219.1734308502281
 30
0.0
 10
80.13468487242741
 20
219.0728975152046
 30
0.0
 10
80.2302917022095
 20
219.0008117338007
 30
0.0
 10
80.34214526565981
 20
218.9600208354968
 30
0.0
 10
80.42115643135655
 20
218.9545524203522
 30
0.0
 10
80.46157139060792
 20
218.9517552742363
 30
0.0
  0
SPLINE
  5
8E
330
1F
100
AcDbEntity
  8
0
  6
Continuous
 62
     7
370
    25
100
AcDbSpline
210
0.0
220
0.0
230
1.0
 70
     8
 71
     3
 72
    15
 73
    11
 74
     0
 42
0.00000001
 43
0.00000001
 40
0.0
 40
0.0
 40
0.0
 40
0.0
 40
0.0953793005313788
 40
0.1946249045392157
 40
0.3026582693523038
 40
0.420082832280336
 40
0.5469703993172788
 40
0.6851825050957022
 40
0.8359646100010585
 40
1.0
 40
1.0
 40
1.0
 40
1.0
 10
80.46157139060792
 20
218.9517552742363
 30
0.0
 10
80.50815456620711
 20
218.9542350248293
 30
0.0
 10
80.60320921699207
 20
218.9592950453972
 30
0.0
 10
80.74721575119679
 20
218.9953564250378
 30
0.0
 10
80.89636339947961
 20
219.049490220453
 30
0.0
 10
81.05002409553971
 20
219.1279329574532
 30
0.0
 10
81.20507265742931
 20
219.2322652011032
 30
0.0
 10
81.36918531055076
 20
219.3518623177771
 30
0.0
 10
81.53667648431262
 20
219.4966797730944
 30
0.0
 10
81.64551551292865
 20
219.6051784653648
 30
0.0
 10
81.70222599692372
 20
219.6617116173942
 30
0.0
  0
SPLINE
  5
8F
330
1F
100
AcDbEntity
  8
0
  6
Continuous
 62
     7
370
    25
100
AcDbSpline
210
0.0
220
0.0
230
1.0
 70
     8
 71
     3
 72
    11
 73
     7
 74
     0
 42
0.00000001
 43
0.00000001
 40
0.0
 40
0.0
 40
0.0
 40
0.0
 40
0.2506511497061264
 40
0.500488494829986
 40
0.7500623513184884
 40
0.9999999999999999
 40
0.9999999999999999
 40
0.9999999999999999
 40
0.9999999999999999
 10
81.70222599692372
 20
219.6617116173942
 30
0.0
 10
81.81063357835663
 20
219.7759706280978
 30
0.0
 10
82.02709676762638
 20
220.0041176777118
 30
0.0
 10
82.32494110273606
 20
220.369609776732
 30
0.0
 10
82.6075586593176
 20
220.7463243168678
 30
0.0
 10
82.77917446272674
 20
221.0091048298933
 30
0.0
 10
82.86504485797634
 20
221.1405907773942
 30
0.0
  0
LINE
  5
90
330
1F
100
AcDbEntity
  8
0
  6
Continuous
 62
     7
370
    25
100
AcDbLine
 10
82.865044858
 20
221.1405907774
 30
0.0
 11
84.4453463527
 21
219.2937608216
 31
0.0
  0
SPLINE
  5
91
330
1F
100
AcDbEntity
  8
0
  6
Continuous
 62
     7
370
    25
100
AcDbSpline
210
0.0
220
0.0
230
1.0
 70
     8
 71
     3
 72
     9
 73
     5
 74
     0
 42
0.00000001
 43
0.00000001
 40
0.0
 40
0.0
 40
0.0
 40
0.0
 40
0.0869419108238489
 40
0.1147960193994418
 40
0.1147960193994418
 40
0.1147960193994418
 40
0.1147960193994418
 10
84.44534635271319
 20
219.2937608216048
 30
0.0
 10
84.32073295542311
 20
219.190282585544
 30
0.0
 10
84.1561964063964
 20
219.0536523978509
 30
0.0
 10
83.9895911807853
 20
218.9195508030813
 30
0.0
 10
83.94904114834847
 20
218.8871683640721
 30
0.0
  0
LINE
  5
92
330
1F
100
AcDbEntity
  8
0
  6
Continuous
 62
     7
370
    25
100
AcDbLine
 10
83.9490411483
 20
218.8871683641
 30
0.0
 11
87.3020746426
 21
218.8871683653
 31
0.0
  0
SPLINE
  5
93
330
1F
100
AcDbEntity
  8
0
  6
Continuous
 62
     7
370
    25
100
AcDbSpline
210
0.0
220
0.0
230
1.0
 70
     8
 71
     3
 72
    11
 73
     7
 74
     0
 42
0.00000001
 43
0.00000001
 40
0.507728245814382
 40
0.507728245814382
 40
0.507728245814382
 40
0.507728245814382
 40
0.587261254725544
 40
0.7202386626648534
 40
0.8576057616043932
 40
0.9999999999999999
 40
0.9999999999999999
 40
0.9999999999999999
 40
0.9999999999999999
 10
87.30207464256792
 20
218.8871683652747
 30
0.0
 10
87.34442343723813
 20
218.9896675259155
 30
0.0
 10
87.45724507343152
 20
219.2636826470305
 30
0.0
 10
87.64509230322967
 20
219.7139607259279
 30
0.0
 10
87.8578156014443
 20
220.2487570074216
 30
0.0
 10
88.00508295955278
 20
220.6100005026272
 30
0.0
 10
88.08003979060793
 20
220.7938679121311
 30
0.0
  0
LINE
  5
94
330
1F
100
AcDbEntity
  8
0
  6
Continuous
 62
     7
370
    25
100
AcDbLine
 10
88.0800397906
 20
220.7938679121
 30
0.0
 11
88.5199290847
 21
221.8871683641
 31
0.0
  0
LINE
  5
95
330
1F
100
AcDbEntity
  8
0
  6
Continuous
 62
     7
370
    25
100
AcDbLine
 10
88.5199290847
 20
221.8871683641
 30
0.0
 11
85.318051999
 21
221.8871683641
 31
0.0
  0
LINE
  5
96
330
1F
100
AcDbEntity
  8
0
  6
Continuous
 62
     7
370
    25
100
AcDbLine
 10
81.0936919885
 20
223.5157603374
 30
0.0
 11
83.1103453885
 21
223.5157603374
 31
0.0
  0
SPLINE
  5
97
330
1F
100
AcDbEntity
  8
0
  6
Continuous
 62
     7
370
    25
100
AcDbSpline
210
0.0
220
0.0
230
1.0
 70
     8
 71
     3
 72
    11
 73
     7
 74
     0
 42
0.00000001
 43
0.00000001
 40
0.0
 40
0.0
 40
0.0
 40
0.0
 40
0.2588039736123938
 40
0.5051676302461537
 40
0.74986383180269
 40
1.0
 40
1.0
 40
1.0
 40
1.0
 10
83.11034538850267
 20
223.5157603373942
 30
0.0
 10
83.1219250534388
 20
223.5784305159809
 30
0.0
 10
83.14452776626882
 20
223.7007584121171
 30
0.0
 10
83.14168486117343
 20
223.8861983603045
 30
0.0
 10
83.10656504034945
 20
224.066250986414
 30
0.0
 10
83.05894173138907
 20
224.178440087366
 30
0.0
 10
83.03486830218687
 20
224.2351513163416
 30
0.0
  0
SPLINE
  5
98
330
1F
100
AcDbEntity
  8
0
  6
Continuous
 62
     7
370
    25
100
AcDbSpline
210
0.0
220
0.0
230
1.0
 70
     8
 71
     3
 72
    11
 73
     7
 74
     0
 42
0.00000001
 43
0.00000001
 40
0.0
 40
0.0
 40
0.0
 40
0.0
 40
0.222813354379409
 40
0.4499512131230276
 40
0.7037204267413056
 40
1.0
 40
1.0
 40
1.0
 40
1.0
 10
83.03486830218687
 20
224.2351513163416
 30
0.0
 10
83.00633415878188
 20
224.2803613896479
 30
0.0
 10
82.94871206303154
 20
224.3716590023345
 30
0.0
 10
82.80282292854952
 20
224.4617488732259
 30
0.0
 10
82.62529088088344
 20
224.5163888752546
 30
0.0
 10
82.49445134850603
 20
224.5221585666917
 30
0.0
 10
82.42397563481846
 20
224.5252663668679
 30
0.0
  0
SPLINE
  5
99
330
1F
100
AcDbEntity
  8
0
  6
Continuous
 62
     7
370
    25
100
AcDbSpline
210
0.0
220
0.0
230
1.0
 70
     8
 71
     3
 72
    15
 73
    11
 74
     0
 42
0.00000001
 43
0.00000001
 40
0.0
 40
0.0
 40
0.0
 40
0.0
 40
0.0835428240715147
 40
0.1753387569217424
 40
0.277811930389315
 40
0.3935981066848947
 40
0.5221701555208441
 40
0.6664125630375507
 40
0.8247459607713215
 40
1.0
 40
1.0
 40
1.0
 40
1.0
 10
82.42397563481846
 20
224.5252663668679
 30
0.0
 10
82.38520811601904
 20
224.522792223733
 30
0.0
 10
82.30384327552227
 20
224.5175995194338
 30
0.0
 10
82.1800091922252
 20
224.4788665594002
 30
0.0
 10
82.04882602203578
 20
224.4194689189069
 30
0.0
 10
81.91337320235819
 20
224.3321735416087
 30
0.0
 10
81.76767054417134
 20
224.2260307020289
 30
0.0
 10
81.6188115631597
 20
224.0923593542286
 30
0.0
 10
81.45879389385905
 20
223.9390891296496
 30
0.0
 10
81.35551352085514
 20
223.8239232571999
 30
0.0
 10
81.30125397587108
 20
223.7634195268679
 30
0.0
  0
SPLINE
  5
9A
330
1F
100
AcDbEntity
  8
0
  6
Continuous
 62
     7
370
    25
100
AcDbSpline
210
0.0
220
0.0
230
1.0
 70
     8
 71
     3
 72
     9
 73
     5
 74
     0
 42
0.00000001
 43
0.00000001
 40
0.0
 40
0.0
 40
0.0
 40
0.0
 40
0.5859559613878709
 40
1.0
 40
1.0
 40
1.0
 40
1.0
 10
81.30125397587108
 20
223.7634195268679
 30
0.0
 10
81.2614706131038
 20
223.714409861108
 30
0.0
 10
81.19357581317195
 20
223.6307693335095
 30
0.0
 10
81.12293881606163
 20
223.5494359429115
 30
0.0
 10
81.09369198850267
 20
223.5157603373942
 30
0.0
  0
SPLINE
  5
9B
330
1F
100
AcDbEntity
  8
0
  6
Continuous
 62
     7
370
    25
100
AcDbSpline
210
0.0
220
0.0
230
1.0
 70
     8
 71
     3
 72
    11
 73
     7
 74
     0
 42
0.00000001
 43
0.00000001
 40
0.5352852207218616
 40
0.5352852207218616
 40
0.5352852207218616
 40
0.5352852207218616
 40
0.5659233527525344
 40
0.7027064947571758
 40
0.8470423250922603
 40
1.0
 40
1.0
 40
1.0
 40
1.0
 10
72.35215893576749
 20
218.8871683640722
 30
0.0
 10
72.34349167272163
 20
218.9291121739774
 30
0.0
 10
72.29686425814572
 20
219.1584632743495
 30
0.0
 10
72.21730417637838
 20
219.5869653938602
 30
0.0
 10
72.11425973721275
 20
220.1849979551194
 30
0.0
 10
72.05509079154629
 20
220.5963691537733
 30
0.0
 10
72.02464833587108
 20
220.8080198658153
 30
0.0
  0
LINE
  5
9C
330
1F
100
AcDbEntity
  8
0
  6
Continuous
 62
     7
370
    25
100
AcDbLine
 10
72.0246483359
 20
220.8080198658
 30
0.0
 11
71.2973895303
 21
218.8871683641
 31
0.0
  0
LINE
  5
9D
330
1F
100
AcDbEntity
  8
0
  6
Continuous
 62
     7
370
    25
100
AcDbLine
 10
71.2973895303
 20
218.8871683641
 30
0.0
 11
72.3521589358
 21
218.8871683641
 31
0.0
  0
LINE
  5
9E
330
1F
100
AcDbEntity
  8
0
  6
Continuous
 62
     7
370
    25
100
AcDbLine
 10
67.9617678091
 20
221.8871683641
 30
0.0
 11
67.9617678091
 21
218.8871683641
 31
0.0
  0
LINE
  5
9F
330
1F
100
AcDbEntity
  8
0
  6
Continuous
 62
     7
370
    25
100
AcDbLine
 10
67.9617678091
 20
218.8871683641
 30
0.0
 11
68.5080560811
 21
218.8871683641
 31
0.0
  0
SPLINE
  5
A0
330
1F
100
AcDbEntity
  8
0
  6
Continuous
 62
     7
370
    25
100
AcDbSpline
210
0.0
220
0.0
230
1.0
 70
     8
 71
     3
 72
     8
 73
     4
 74
     0
 42
0.00000001
 43
0.00000001
 40
0.8648354878811928
 40
0.8648354878811928
 40
0.8648354878811928
 40
0.8648354878811928
 40
1.0
 40
1.0
 40
1.0
 40
1.0
 10
68.50805608115756
 20
218.8871683640551
 30
0.0
 10
68.55140435524387
 20
219.0006218898043
 30
0.0
 10
68.59450922134694
 20
219.1141701304414
 30
0.0
 10
68.63761408745003
 20
219.2277183710785
 30
0.0
  0
LINE
  5
A1
330
1F
100
AcDbEntity
  8
0
  6
Continuous
 62
     7
370
    25
100
AcDbLine
 10
68.6376140875
 20
219.2277183711
 30
0.0
 11
69.6459194339
 21
221.8871683641
 31
0.0
  0
LINE
  5
A2
330
1F
100
AcDbEntity
  8
0
  6
Continuous
 62
     7
370
    25
100
AcDbLine
 10
69.6459194339
 20
221.8871683641
 30
0.0
 11
67.9617678091
 21
221.8871683641
 31
0.0
  0
SPLINE
  5
A3
330
1F
100
AcDbEntity
  8
0
  6
Continuous
 62
     7
370
    25
100
AcDbSpline
210
0.0
220
0.0
230
1.0
 70
     8
 71
     3
 72
     8
 73
     4
 74
     0
 42
0.00000001
 43
0.00000001
 40
0.0
 40
0.0
 40
0.0
 40
0.0
 40
0.0766921792044954
 40
0.0766921792044954
 40
0.0766921792044954
 40
0.0766921792044954
 10
77.54391027271318
 20
221.5675080468679
 30
0.0
 10
77.58234595081345
 20
221.674225122093
 30
0.0
 10
77.6207816289137
 20
221.7809421973182
 30
0.0
 10
77.66045558176849
 20
221.8871683640687
 30
0.0
  0
LINE
  5
A4
330
1F
100
AcDbEntity
  8
0
  6
Continuous
 62
     7
370
    25
100
AcDbLine
 10
77.6604555818
 20
221.8871683641
 30
0.0
 11
74.7290260889
 21
221.8871683641
 31
0.0
  0
SPLINE
  5
A5
330
1F
100
AcDbEntity
  8
0
  6
Continuous
 62
     7
370
    25
100
AcDbSpline
210
0.0
220
0.0
230
1.0
 70
     8
 71
     3
 72
    13
 73
     9
 74
     0
 42
0.00000001
 43
0.00000001
 40
0.4087713427214695
 40
0.4087713427214695
 40
0.4087713427214695
 40
0.4087713427214695
 40
0.4257129945307357
 40
0.5536746290249231
 40
0.6755516551762726
 40
0.7903778082018482
 40
0.8983047444609444
 40
0.9327104307546574
 40
0.9327104307546574
 40
0.9327104307546574
 40
0.9327104307546574
 10
74.72902608958759
 20
221.8871683642883
 30
0.0
 10
74.7387655105556
 20
221.8545105428542
 30
0.0
 10
74.82232388585082
 20
221.5752627763612
 30
0.0
 10
74.98017117176747
 20
221.062360152636
 30
0.0
 10
75.20146516387206
 20
220.362935403103
 30
0.0
 10
75.42759275281254
 20
219.7075834872391
 30
0.0
 10
75.5997623573973
 20
219.2197364639114
 30
0.0
 10
75.70076039574711
 20
218.9518434217387
 30
0.0
 10
75.7253949703924
 20
218.8871683638446
 30
0.0
  0
LINE
  5
A6
330
1F
100
AcDbEntity
  8
0
  6
Continuous
 62
     7
370
    25
100
AcDbLine
 10
75.725394971
 20
218.8871683641
 30
0.0
 11
77.1333557114
 21
218.8871683641
 31
0.0
  0
SPLINE
  5
A7
330
1F
100
AcDbEntity
  8
0
  6
Continuous
 62
     7
370
    25
100
AcDbSpline
210
0.0
220
0.0
230
1.0
 70
     8
 71
     3
 72
    14
 73
    10
 74
     0
 42
0.00000001
 43
0.00000001
 40
0.2019027062105294
 40
0.2019027062105294
 40
0.2019027062105294
 40
0.2019027062105294
 40
0.2077059762486651
 40
0.3194962237082438
 40
0.4387220112068232
 40
0.5649874211026004
 40
0.7010138196510922
 40
0.8453448169571798
 40
1.0
 40
1.0
 40
1.0
 40
1.0
 10
77.1333557114417
 20
218.8871683640722
 30
0.0
 10
77.13260241239198
 20
218.8937576024974
 30
0.0
 10
77.11767374157868
 20
219.027310869263
 30
0.0
 10
77.10084951734372
 20
219.2974092552058
 30
0.0
 10
77.11628766522303
 20
219.7056550895766
 30
0.0
 10
77.17050637845082
 20
220.1381693574072
 30
0.0
 10
77.25827354300371
 20
220.5942195780007
 30
0.0
 10
77.38110506249033
 20
221.0757945217058
 30
0.0
 10
77.48840680319029
 20
221.3998733217846
 30
0.0
 10
77.54391027271318
 20
221.5675080468679
 30
0.0
  0
LINE
  5
A8
330
1F
100
AcDbEntity
  8
0
  6
Continuous
 62
     7
370
    25
100
AcDbLine
 10
106.6212711617
 20
218.8871683543
 30
0.0
 11
106.7681927852
 21
218.8871683641
 31
0.0
  0
SPLINE
  5
A9
330
1F
100
AcDbEntity
  8
0
  6
Continuous
 62
     7
370
    25
100
AcDbSpline
210
0.0
220
0.0
230
1.0
 70
     8
 71
     3
 72
    11
 73
     7
 74
     0
 42
0.00000001
 43
0.00000001
 40
0.3377573919777422
 40
0.3377573919777422
 40
0.3377573919777422
 40
0.3377573919777422
 40
0.435005077208201
 40
0.5641152715928629
 40
0.7011235471931122
 40
0.8220582440278514
 40
0.8220582440278514
 40
0.8220582440278514
 40
0.8220582440278514
 10
106.7681927851944
 20
218.8871683640685
 30
0.0
 10
106.8426409609391
 20
219.0879839454938
 30
0.0
 10
107.0160244716657
 20
219.5553753174394
 30
0.0
 10
107.2956439250023
 20
220.3051874558853
 30
0.0
 10
107.5897349034047
 20
221.1052700668019
 30
0.0
 10
107.7882488215045
 20
221.6375321062139
 30
0.0
 10
107.8810804169597
 20
221.8871683667098
 30
0.0
  0
LINE
  5
AA
330
1F
100
AcDbEntity
  8
0
  6
Continuous
 62
     7
370
    25
100
AcDbLine
 10
107.881080417
 20
221.8871683667
 30
0.0
 11
107.6143716482
 21
221.8871683583
 31
0.0
  0
SPLINE
  5
AB
330
1F
100
AcDbEntity
  8
0
  6
Continuous
 62
     7
370
    25
100
AcDbSpline
210
0.0
220
0.0
230
1.0
 70
     8
 71
     3
 72
    13
 73
     9
 74
     0
 42
0.00000001
 43
0.00000001
 40
0.2810094925591376
 40
0.2810094925591376
 40
0.2810094925591376
 40
0.2810094925591376
 40
0.3389613175171488
 40
0.4122456577074036
 40
0.4924342979257871
 40
0.5798233046923711
 40
0.6741166008994035
 40
0.6988959564143671
 40
0.6988959564143671
 40
0.6988959564143671
 40
0.6988959564143671
 10
107.6143716482327
 20
221.8871683583466
 30
0.0
 10
107.5688268659122
 20
221.7483700576355
 30
0.0
 10
107.4659630231032
 20
221.4339615636386
 30
0.0
 10
107.2975221372373
 20
220.9283391746326
 30
0.0
 10
107.1062308082628
 20
220.3521200742533
 30
0.0
 10
106.8990018115726
 20
219.7253926854576
 30
0.0
 10
106.7357746197144
 20
219.2312230982878
 30
0.0
 10
106.6410097039405
 20
218.9464289448401
 30
0.0
 10
106.6212711616598
 20
218.8871683543438
 30
0.0
  0
SPLINE
  5
AC
330
1F
100
AcDbEntity
  8
0
  6
Continuous
 62
     7
370
    25
100
AcDbSpline
210
0.0
220
0.0
230
1.0
 70
     8
 71
     3
 72
    17
 73
    13
 74
     0
 42
0.00000001
 43
0.00000001
 40
0.0
 40
0.0
 40
0.0
 40
0.0
 40
0.0312251617881729
 40
0.0669691360570288
 40
0.1061983461661794
 40
0.1501366658126738
 40
0.1980795663142749
 40
0.2502122414860625
 40
0.3063494861578741
 40
0.366676522867473
 40
0.431527908710462
 40
0.4656212216310475
 40
0.4656212216310475
 40
0.4656212216310475
 40
0.4656212216310475
 10
104.5434792432395
 20
220.7632053458153
 30
0.0
 10
104.5276093373404
 20
220.7215894780996
 30
0.0
 10
104.4935728799931
 20
220.6323352181507
 30
0.0
 10
104.442782772077
 20
220.4896208356736
 30
0.0
 10
104.3856749567389
 20
220.3299179559909
 30
0.0
 10
104.3217961017764
 20
220.1541545254602
 30
0.0
 10
104.2542128853491
 20
219.9601724431231
 30
0.0
 10
104.1778019921607
 20
219.7508652941177
 30
0.0
 10
104.0985905965519
 20
219.523803028216
 30
0.0
 10
104.0100015326109
 20
219.2808242116782
 30
0.0
 10
103.9352994825539
 20
219.0662774406733
 30
0.0
 10
103.8887060268113
 20
218.9330613492602
 30
0.0
 10
103.8726254186221
 20
218.8871683543434
 30
0.0
  0
LINE
  5
AD
330
1F
100
AcDbEntity
  8
0
  6
Continuous
 62
     7
370
    25
100
AcDbLine
 10
103.8726254186
 20
218.8871683543
 30
0.0
 11
104.1080732249
 21
218.8871683688
 31
0.0
  0
SPLINE
  5
AE
330
1F
100
AcDbEntity
  8
0
  6
Continuous
 62
     7
370
    25
100
AcDbSpline
210
0.0
220
0.0
230
1.0
 70
     8
 71
     3
 72
    14
 73
    10
 74
     0
 42
0.00000001
 43
0.00000001
 40
0.3186585003059667
 40
0.3186585003059667
 40
0.3186585003059667
 40
0.3186585003059667
 40
0.3876402394146257
 40
0.470033672188597
 40
0.5468555032035166
 40
0.618105979749635
 40
0.6834544881984369
 40
0.7431109773635489
 40
0.7955592952751549
 40
0.7955592952751549
 40
0.7955592952751549
 40
0.7955592952751549
 10
104.1080732248504
 20
218.8871683687541
 30
0.0
 10
104.159672469917
 20
219.0321252015096
 30
0.0
 10
104.2724758443101
 20
219.3503745765846
 30
0.0
 10
104.4448291846666
 20
219.829311063299
 30
0.0
 10
104.6194125996858
 20
220.3128201734512
 30
0.0
 10
104.7813015317938
 20
220.7604951946277
 30
0.0
 10
104.9335636505754
 20
221.1709214699226
 30
0.0
 10
105.0680986440552
 20
221.5431777855725
 30
0.0
 10
105.1552584649358
 20
221.7775517590547
 30
0.0
 10
105.1961312124099
 20
221.8871683737237
 30
0.0
  0
LINE
  5
AF
330
1F
100
AcDbEntity
  8
0
  6
Continuous
 62
     7
370
    25
100
AcDbLine
 10
105.1961312124
 20
221.8871683737
 30
0.0
 11
104.9739928385
 21
221.8871683641
 31
0.0
  0
LINE
  5
B0
330
1F
100
AcDbEntity
  8
0
  6
Continuous
 62
     7
370
    25
100
AcDbLine
 10
104.9739928385
 20
221.8871683641
 30
0.0
 11
104.5434792432
 21
220.7632053458
 31
0.0
  0
LINE
  5
B1
330
1F
100
AcDbEntity
  8
0
  6
Continuous
 62
     7
370
    25
100
AcDbLine
 10
102.4392280786
 20
221.8871683641
 30
0.0
 11
101.9375385178
 21
221.8871683641
 31
0.0
  0
SPLINE
  5
B2
330
1F
100
AcDbEntity
  8
0
  6
Continuous
 62
     7
370
    25
100
AcDbSpline
210
0.0
220
0.0
230
1.0
 70
     8
 71
     3
 72
     8
 73
     4
 74
     0
 42
0.00000001
 43
0.00000001
 40
0.8916109454521495
 40
0.8916109454521495
 40
0.8916109454521495
 40
0.8916109454521495
 40
1.0
 40
1.0
 40
1.0
 40
1.0
 10
101.9375385178466
 20
221.8871683640722
 30
0.0
 10
101.9123102095092
 20
221.8008495408755
 30
0.0
 10
101.8858177853217
 20
221.7148413601875
 30
0.0
 10
101.8593253611342
 20
221.6288331794995
 30
0.0
  0
SPLINE
  5
B3
330
1F
100
AcDbEntity
  8
0
  6
Continuous
 62
     7
370
    25
100
AcDbSpline
210
0.0
220
0.0
230
1.0
 70
     8
 71
     3
 72
    14
 73
    10
 74
     0
 42
0.00000001
 43
0.00000001
 40
0.0
 40
0.0
 40
0.0
 40
0.0
 40
0.1268769987438684
 40
0.2523792659788958
 40
0.3772487150976691
 40
0.5008428080285734
 40
0.6249802328846326
 40
0.7487922409296719
 40
0.8199238503996799
 40
0.8199238503996799
 40
0.8199238503996799
 40
0.8199238503996799
 10
101.8593253611342
 20
221.6288331794995
 30
0.0
 10
101.8032068970926
 20
221.4739069096064
 30
0.0
 10
101.6915780210716
 20
221.1657330194325
 30
0.0
 10
101.4881354627434
 20
220.7197619007369
 30
0.0
 10
101.26568372788
 20
220.2879894504227
 30
0.0
 10
101.0161435583181
 20
219.8732177780507
 30
0.0
 10
100.7435671101052
 20
219.4748496170091
 30
0.0
 10
100.4870635980183
 20
219.1493428508417
 30
0.0
 10
100.3230548752853
 20
218.9563998475417
 30
0.0
 10
100.2619210914151
 20
218.8871683640722
 30
0.0
  0
LINE
  5
B4
330
1F
100
AcDbEntity
  8
0
  6
Continuous
 62
     7
370
    25
100
AcDbLine
 10
100.2619210914
 20
218.8871683641
 30
0.0
 11
101.3169626435
 21
218.8871683641
 31
0.0
  0
LINE
  5
B5
330
1F
100
AcDbEntity
  8
0
  6
Continuous
 62
     7
370
    25
100
AcDbLine
 10
101.3169626435
 20
218.8871683641
 30
0.0
 11
102.4392280786
 21
221.8871683641
 31
0.0
  0
SPLINE
  5
B6
330
1F
100
AcDbEntity
  8
0
  6
Continuous
 62
     7
370
    25
100
AcDbSpline
210
0.0
220
0.0
230
1.0
 70
     8
 71
     3
 72
    15
 73
    11
 74
     0
 42
0.00000001
 43
0.00000001
 40
0.0
 40
0.0
 40
0.0
 40
0.0
 40
0.0851468229029114
 40
0.1758859640643105
 40
0.2789967421327311
 40
0.3951139123087876
 40
0.52397558616805
 40
0.6655078768200136
 40
0.8250802725673362
 40
1.0
 40
1.0
 40
1.0
 40
1.0
 10
113.9757563737658
 20
219.46830158371
 30
0.0
 10
114.0042564517088
 20
219.4703478966583
 30
0.0
 10
114.0631284508512
 20
219.4745749213834
 30
0.0
 10
114.1525300161049
 20
219.5035869578978
 30
0.0
 10
114.2472786799722
 20
219.5458977647795
 30
0.0
 10
114.3463726011439
 20
219.6078748212238
 30
0.0
 10
114.4466008323863
 20
219.6897322690971
 30
0.0
 10
114.5542867924103
 20
219.7850500909049
 30
0.0
 10
114.6673679203715
 20
219.8973930871436
 30
0.0
 10
114.7398149013968
 20
219.982695568441
 30
0.0
 10
114.7777004158711
 20
220.0273037542364
 30
0.0
  0
SPLINE
  5
B7
330
1F
100
AcDbEntity
  8
0
  6
Continuous
 62
     7
370
    25
100
AcDbSpline
210
0.0
220
0.0
230
1.0
 70
     8
 71
     3
 72
    11
 73
     7
 74
     0
 42
0.00000001
 43
0.00000001
 40
0.0
 40
0.0
 40
0.0
 40
0.0
 40
0.2442897522753593
 40
0.4914137727461407
 40
0.7433149310099453
 40
1.0
 40
1.0
 40
1.0
 40
1.0
 10
114.7777004158711
 20
220.0273037542364
 30
0.0
 10
114.8839765980511
 20
220.1774195656941
 30
0.0
 10
115.0977619867204
 20
220.479392843616
 30
0.0
 10
115.3753170282992
 20
220.9659904399538
 30
0.0
 10
115.6194116264486
 20
221.480381645543
 30
0.0
 10
115.7528705380428
 20
221.8392490544381
 30
0.0
 10
115.8202276706079
 20
222.0203705647627
 30
0.0
  0
SPLINE
  5
B8
330
1F
100
AcDbEntity
  8
0
  6
Continuous
 62
     7
370
    25
100
AcDbSpline
210
0.0
220
0.0
230
1.0
 70
     8
 71
     3
 72
    11
 73
     7
 74
     0
 42
0.00000001
 43
0.00000001
 40
0.0
 40
0.0
 40
0.0
 40
0.0
 40
0.272219003747978
 40
0.5284970684267908
 40
0.7704508857532203
 40
1.0
 40
1.0
 40
1.0
 40
1.0
 10
115.8202276706079
 20
222.0203705647627
 30
0.0
 10
115.871545483898
 20
222.1784672496669
 30
0.0
 10
115.9711759781269
 20
222.4854025971244
 30
0.0
 10
116.0740178222065
 20
222.9447210401224
 30
0.0
 10
116.1397813295827
 20
223.3848882642639
 30
0.0
 10
116.1469499245331
 20
223.6727884394177
 30
0.0
 10
116.1504399232395
 20
223.8129513647627
 30
0.0
  0
SPLINE
  5
B9
330
1F
100
AcDbEntity
  8
0
  6
Continuous
 62
     7
370
    25
100
AcDbSpline
210
0.0
220
0.0
230
1.0
 70
     8
 71
     3
 72
    15
 73
    11
 74
     0
 42
0.00000001
 43
0.00000001
 40
0.0
 40
0.0
 40
0.0
 40
0.0
 40
0.1884658115208539
 40
0.3540557159050482
 40
0.4962441654654478
 40
0.6187488990214789
 40
0.7233135887753872
 40
0.8158973371104056
 40
0.9048992364211723
 40
1.0
 40
1.0
 40
1.0
 40
1.0
 10
116.1504399232395
 20
223.8129513647627
 30
0.0
 10
116.1494733462555
 20
223.869557890964
 30
0.0
 10
116.1476575150271
 20
223.9759000651621
 30
0.0
 10
116.1361216740815
 20
224.1249682800103
 30
0.0
 10
116.1067662549244
 20
224.2511911644817
 30
0.0
 10
116.071148201466
 20
224.3566789185961
 30
0.0
 10
116.0215031934729
 20
224.4400460766006
 30
0.0
 10
115.9582490861592
 20
224.5001454159628
 30
0.0
 10
115.8807567232936
 20
224.5351911276755
 30
0.0
 10
115.8252920969884
 20
224.5395337422112
 30
0.0
 10
115.7966410811342
 20
224.5417769794995
 30
0.0
  0
SPLINE
  5
BA
330
1F
100
AcDbEntity
  8
0
  6
Continuous
 62
     7
370
    25
100
AcDbSpline
210
0.0
220
0.0
230
1.0
 70
     8
 71
     3
 72
    11
 73
     7
 74
     0
 42
0.00000001
 43
0.00000001
 40
0.0
 40
0.0
 40
0.0
 40
0.0
 40
0.1829963075932204
 40
0.4061574471212073
 40
0.6802594718981956
 40
1.0
 40
1.0
 40
1.0
 40
1.0
 10
115.7966410811342
 20
224.5417769794995
 30
0.0
 10
115.7609073694132
 20
224.538653361925
 30
0.0
 10
115.6815969542488
 20
224.5317205414953
 30
0.0
 10
115.5575204468718
 20
224.4806621478117
 30
0.0
 10
115.4169808467213
 20
224.4056747820514
 30
0.0
 10
115.3218702144435
 20
224.3392937358217
 30
0.0
 10
115.2706601358711
 20
224.3035524258153
 30
0.0
  0
SPLINE
  5
BB
330
1F
100
AcDbEntity
  8
0
  6
Continuous
 62
     7
370
    25
100
AcDbSpline
210
0.0
220
0.0
230
1.0
 70
     8
 71
     3
 72
    11
 73
     7
 74
     0
 42
0.00000001
 43
0.00000001
 40
0.0
 40
0.0
 40
0.0
 40
0.0
 40
0.235416159801492
 40
0.4767986874400766
 40
0.7322576426768266
 40
1.0
 40
1.0
 40
1.0
 40
1.0
 10
115.2706601358711
 20
224.3035524258153
 30
0.0
 10
115.224081419864
 20
224.2652773534403
 30
0.0
 10
115.1297435006934
 20
224.1877571683968
 30
0.0
 10
115.003344411683
 20
224.0491251948607
 30
0.0
 10
114.8760341863838
 20
223.9003684622462
 30
0.0
 10
114.8031862361683
 20
223.7879349040425
 30
0.0
 10
114.7659071211342
 20
223.7303983016048
 30
0.0
  0
LINE
  5
BC
330
1F
100
AcDbEntity
  8
0
  6
Continuous
 62
     7
370
    25
100
AcDbLine
 10
114.7659071211
 20
223.7303983016
 30
0.0
 11
113.7021519359
 21
221.0627550321
 31
0.0
  0
SPLINE
  5
BD
330
1F
100
AcDbEntity
  8
0
  6
Continuous
 62
     7
370
    25
100
AcDbSpline
210
0.0
220
0.0
230
1.0
 70
     8
 71
     3
 72
    15
 73
    11
 74
     0
 42
0.00000001
 43
0.00000001
 40
0.0
 40
0.0
 40
0.0
 40
0.0
 40
0.2113646927342158
 40
0.3946418412393762
 40
0.5479654258861133
 40
0.6740522217330878
 40
0.775337582425948
 40
0.85714170581116
 40
0.9271837714281259
 40
1.0
 40
1.0
 40
1.0
 40
1.0
 10
113.7021519358711
 20
221.0627550321311
 30
0.0
 10
113.6810189583842
 20
220.9387404565413
 30
0.0
 10
113.6415612938215
 20
220.7071911858558
 30
0.0
 10
113.6082291785534
 20
220.382659602245
 30
0.0
 10
113.5975040511958
 20
220.1071144710571
 30
0.0
 10
113.6168038719688
 20
219.8808208937416
 30
0.0
 10
113.6601365291968
 20
219.700739085028
 30
0.0
 10
113.7345677468429
 20
219.5667730020683
 30
0.0
 10
113.846203193804
 20
219.4826263417663
 30
0.0
 10
113.9320165112936
 20
219.4731379215561
 30
0.0
 10
113.9757563737658
 20
219.46830158371
 30
0.0
  0
LINE
  5
BE
330
1F
100
AcDbEntity
  8
0
  6
Continuous
 62
     7
370
    25
100
AcDbLine
 10
111.2263317377
 20
221.8871683641
 30
0.0
 11
110.4913819289
 21
221.8871683651
 31
0.0
  0
SPLINE
  5
BF
330
1F
100
AcDbEntity
  8
0
  6
Continuous
 62
     7
370
    25
100
AcDbSpline
210
0.0
220
0.0
230
1.0
 70
     8
 71
     3
 72
    11
 73
     7
 74
     0
 42
0.00000001
 43
0.00000001
 40
0.4213795436667354
 40
0.4213795436667354
 40
0.4213795436667354
 40
0.4213795436667354
 40
0.4959801709793057
 40
0.6473393069596522
 40
0.8148955756430581
 40
1.0
 40
1.0
 40
1.0
 40
1.0
 10
110.4913819288713
 20
221.8871683651179
 30
0.0
 10
110.4680990386195
 20
221.8269665410038
 30
0.0
 10
110.3972330838708
 20
221.6447516647373
 30
0.0
 10
110.2730364735111
 20
221.3277204644624
 30
0.0
 10
110.108566665649
 20
220.923819441712
 30
0.0
 10
109.9949884775693
 20
220.6406102899248
 30
0.0
 10
109.9353735969237
 20
220.4919595668679
 30
0.0
  0
SPLINE
  5
C0
330
1F
100
AcDbEntity
  8
0
  6
Continuous
 62
     7
370
    25
100
AcDbSpline
210
0.0
220
0.0
230
1.0
 70
     8
 71
     3
 72
    17
 73
    13
 74
     0
 42
0.00000001
 43
0.00000001
 40
0.0
 40
0.0
 40
0.0
 40
0.0
 40
0.0177713773540752
 40
0.0411411221627008
 40
0.0708724560404024
 40
0.10600041585433
 40
0.1474870625683784
 40
0.1951324046637266
 40
0.2485805536391822
 40
0.3079903787270456
 40
0.3737565478570019
 40
0.4272044416495073
 40
0.4272044416495073
 40
0.4272044416495073
 40
0.4272044416495073
 10
109.9353735969237
 20
220.4919595668679
 30
0.0
 10
109.9266485365529
 20
220.4699748254259
 30
0.0
 10
109.9064498334676
 20
220.419079674456
 30
0.0
 10
109.8737770080376
 20
220.3305897406474
 30
0.0
 10
109.8305065320678
 20
220.2214070197539
 30
0.0
 10
109.7845780969653
 20
220.0874986982647
 30
0.0
 10
109.7266991484692
 20
219.9325722797477
 30
0.0
 10
109.6647353000297
 20
219.7531982402759
 30
0.0
 10
109.5894737581403
 20
219.553254199157
 30
0.0
 10
109.5134692166155
 20
219.327973285648
 30
0.0
 10
109.4334006798063
 20
219.1041292783062
 30
0.0
 10
109.3812210012603
 20
218.9542914753895
 30
0.0
 10
109.3576720407454
 20
218.8871683643443
 30
0.0
  0
LINE
  5
C1
330
1F
100
AcDbEntity
  8
0
  6
Continuous
 62
     7
370
    25
100
AcDbLine
 10
109.3576720407
 20
218.8871683643
 30
0.0
 11
109.9968618832
 21
218.8871683641
 31
0.0
  0
LINE
  5
C2
330
1F
100
AcDbEntity
  8
0
  6
Continuous
 62
     7
370
    25
100
AcDbLine
 10
109.9968618832
 20
218.8871683641
 30
0.0
 11
111.2263317377
 21
221.8871683641
 31
0.0
  0
SPLINE
  5
C3
330
1F
100
AcDbEntity
  8
0
  6
Continuous
 62
     7
370
    25
100
AcDbSpline
210
0.0
220
0.0
230
1.0
 70
     8
 71
     3
 72
     8
 73
     4
 74
     0
 42
0.00000001
 43
0.00000001
 40
0.0
 40
0.0
 40
0.0
 40
0.0
 40
0.1229218590346011
 40
0.1229218590346011
 40
0.1229218590346011
 40
0.1229218590346011
 10
119.0610250642921
 20
221.39532594371
 30
0.0
 10
119.1195203059716
 20
221.5598893869108
 30
0.0
 10
119.178015547651
 20
221.7244528301116
 30
0.0
 10
119.2412128097765
 20
221.8871683640722
 30
0.0
  0
LINE
  5
C4
330
1F
100
AcDbEntity
  8
0
  6
Continuous
 62
     7
370
    25
100
AcDbLine
 10
119.2412128098
 20
221.8871683641
 30
0.0
 11
118.4278910801
 21
221.8871683641
 31
0.0
  0
SPLINE
  5
C5
330
1F
100
AcDbEntity
  8
0
  6
Continuous
 62
     7
370
    25
100
AcDbSpline
210
0.0
220
0.0
230
1.0
 70
     8
 71
     3
 72
    14
 73
    10
 74
     0
 42
0.00000001
 43
0.00000001
 40
0.0338898123639645
 40
0.0338898123639645
 40
0.0338898123639645
 40
0.0338898123639645
 40
0.1332580539055272
 40
0.2636481624069967
 40
0.3906362032636191
 40
0.5154221479399481
 40
0.6384853705192408
 40
0.7595332094679481
 40
0.8789722313965097
 40
0.8789722313965097
 40
0.8789722313965097
 40
0.8789722313965097
 10
118.4278910800925
 20
221.8871683640722
 30
0.0
 10
118.3805787987347
 20
221.7570670291441
 30
0.0
 10
118.26898337186
 20
221.4571220020703
 30
0.0
 10
118.0646462874761
 20
221.0037361226437
 30
0.0
 10
117.8220151040546
 20
220.529718743757
 30
0.0
 10
117.5549854606225
 20
220.0806533656387
 30
0.0
 10
117.2649809861689
 20
219.6561046835585
 30
0.0
 10
116.9534723518181
 20
219.2565144243671
 30
0.0
 10
116.7299365277417
 20
219.0065338161024
 30
0.0
 10
116.614083609475
 20
218.8871683640722
 30
0.0
  0
LINE
  5
C6
330
1F
100
AcDbEntity
  8
0
  6
Continuous
 62
     7
370
    25
100
AcDbLine
 10
116.6140836095
 20
218.8871683641
 30
0.0
 11
118.6969842678
 21
218.8871683641
 31
0.0
  0
SPLINE
  5
C7
330
1F
100
AcDbEntity
  8
0
  6
Continuous
 62
     7
370
    25
100
AcDbSpline
210
0.0
220
0.0
230
1.0
 70
     8
 71
     3
 72
    14
 73
    10
 74
     0
 42
0.00000001
 43
0.00000001
 40
0.2045455223073588
 40
0.2045455223073588
 40
0.2045455223073588
 40
0.2045455223073588
 40
0.2151645909267937
 40
0.3292072264282958
 40
0.448943411358375
 40
0.5752698088515482
 40
0.7081902222117935
 40
0.8497619706582877
 40
0.9999999999999999
 40
0.9999999999999999
 40
0.9999999999999999
 40
0.9999999999999999
 10
118.6969842677849
 20
218.8871683640722
 30
0.0
 10
118.6956324014565
 20
218.898471276878
 30
0.0
 10
118.6803425631698
 20
219.031227056557
 30
0.0
 10
118.6629948760186
 20
219.2926651116977
 30
0.0
 10
118.6768455713007
 20
219.678591629376
 30
0.0
 10
118.7219212275651
 20
220.0822608425186
 30
0.0
 10
118.8018809633317
 20
220.504236874211
 30
0.0
 10
118.9115285485924
 20
220.9460374971318
 30
0.0
 10
119.0102159401433
 20
221.2426270506691
 30
0.0
 10
119.0610250642921
 20
221.39532594371
 30
0.0
  0
LINE
  5
C8
330
1F
100
AcDbEntity
  8
0
  6
Continuous
 62
     7
370
    25
100
AcDbLine
 10
132.8768491659
 20
221.8871683641
 30
0.0
 11
133.2059027717
 21
220.1074981584
 31
0.0
  0
SPLINE
  5
C9
330
1F
100
AcDbEntity
  8
0
  6
Continuous
 62
     7
370
    25
100
AcDbSpline
210
0.0
220
0.0
230
1.0
 70
     8
 71
     3
 72
    13
 73
     9
 74
     0
 42
0.00000001
 43
0.00000001
 40
0.0
 40
0.0
 40
0.0
 40
0.0
 40
0.0559255732107476
 40
0.1311739101357735
 40
0.2267673770630394
 40
0.3419179325597952
 40
0.4766314530281068
 40
0.5567454425771433
 40
0.5567454425771433
 40
0.5567454425771433
 40
0.5567454425771433
 10
133.2059027716606
 20
220.1074981584469
 30
0.0
 10
133.2153451684777
 20
220.066616552523
 30
0.0
 10
133.237492390946
 20
219.9707283962863
 30
0.0
 10
133.2755580471151
 20
219.8049095865509
 30
0.0
 10
133.3218598534328
 20
219.5953975229707
 30
0.0
 10
133.3811734973783
 20
219.3430911595383
 30
0.0
 10
133.4395098684095
 20
219.1024979565266
 30
0.0
 10
133.4766807401596
 20
218.945669483716
 30
0.0
 10
133.4904742548676
 20
218.8871683638606
 30
0.0
  0
LINE
  5
CA
330
1F
100
AcDbEntity
  8
0
  6
Continuous
 62
     7
370
    25
100
AcDbLine
 10
133.4904742549
 20
218.8871683639
 30
0.0
 11
134.7456727206
 21
218.8871683641
 31
0.0
  0
LINE
  5
CB
330
1F
100
AcDbEntity
  8
0
  6
Continuous
 62
     7
370
    25
100
AcDbLine
 10
134.7456727206
 20
218.8871683641
 30
0.0
 11
134.7012925443
 21
219.0201563837
 31
0.0
  0
SPLINE
  5
CC
330
1F
100
AcDbEntity
  8
0
  6
Continuous
 62
     7
370
    25
100
AcDbSpline
210
0.0
220
0.0
230
1.0
 70
     8
 71
     3
 72
    12
 73
     8
 74
     0
 42
0.00000001
 43
0.00000001
 40
0.0
 40
0.0
 40
0.0
 40
0.0
 40
0.1516048780796648
 40
0.2955454183694808
 40
0.4318017022687802
 40
0.5605072736455851
 40
0.6678818595296759
 40
0.6678818595296759
 40
0.6678818595296759
 40
0.6678818595296759
 10
134.7012925442921
 20
219.02015638371
 30
0.0
 10
134.9746298456063
 20
219.2286124247779
 30
0.0
 10
135.5074859653838
 20
219.6349860761368
 30
0.0
 10
136.2773600083149
 20
220.2400115622491
 30
0.0
 10
136.9931867972945
 20
220.8293006774429
 30
0.0
 10
137.6412665849795
 20
221.3704558640338
 30
0.0
 10
138.0426492510703
 20
221.7246859371923
 30
0.0
 10
138.2239771613585
 20
221.8871683639614
 30
0.0
  0
LINE
  5
CD
330
1F
100
AcDbEntity
  8
0
  6
Continuous
 62
     7
370
    25
100
AcDbLine
 10
138.2239771614
 20
221.887168364
 30
0.0
 11
132.8768491659
 21
221.8871683641
 31
0.0
  0
SPLINE
  5
CE
330
1F
100
AcDbEntity
  8
0
  6
Continuous
 62
     7
370
    25
100
AcDbSpline
210
0.0
220
0.0
230
1.0
 70
     8
 71
     3
 72
    15
 73
    11
 74
     0
 42
0.00000001
 43
0.00000001
 40
0.0
 40
0.0
 40
0.0
 40
0.0
 40
0.1286621629575114
 40
0.2556920589515596
 40
0.3809524929021602
 40
0.504645759298726
 40
0.627958537958292
 40
0.7512913715525136
 40
0.8747469705341269
 40
1.0
 40
1.0
 40
1.0
 40
1.0
 10
138.1567279021869
 20
226.2871846005521
 30
0.0
 10
138.2007051729007
 20
226.4081233975906
 30
0.0
 10
138.2881017985863
 20
226.6484667068516
 30
0.0
 10
138.4469713473104
 20
226.9951267129996
 30
0.0
 10
138.6264063455636
 20
227.3257751881511
 30
0.0
 10
138.8257100359339
 20
227.6404030537442
 30
0.0
 10
139.0421092494153
 20
227.9412740393778
 30
0.0
 10
139.2814503881184
 20
228.2238712168085
 30
0.0
 10
139.5389225833594
 20
228.4929046073468
 30
0.0
 10
139.7255795080006
 20
228.6573652843063
 30
0.0
 10
139.8195824600816
 20
228.7401899058153
 30
0.0
  0
SPLINE
  5
CF
330
1F
100
AcDbEntity
  8
0
  6
Continuous
 62
     7
370
    25
100
AcDbSpline
210
0.0
220
0.0
230
1.0
 70
     8
 71
     3
 72
    15
 73
    11
 74
     0
 42
0.00000001
 43
0.00000001
 40
0.0
 40
0.0
 40
0.0
 40
0.0
 40
0.136446657592946
 40
0.2678191269604587
 40
0.3947613753043727
 40
0.51813441176037
 40
0.6396241710266957
 40
0.7595023131216315
 40
0.8794746250206366
 40
1.0
 40
1.0
 40
1.0
 40
1.0
 10
139.8195824600816
 20
228.7401899058153
 30
0.0
 10
139.9242688450011
 20
228.8262453056409
 30
0.0
 10
140.1297485299445
 20
228.9951558708251
 30
0.0
 10
140.4573806033215
 20
229.2112494707008
 30
0.0
 10
140.7880951018885
 20
229.396698080844
 30
0.0
 10
141.1248064613129
 20
229.5490808402489
 30
0.0
 10
141.4675963187957
 20
229.6671171031955
 30
0.0
 10
141.8162473572897
 20
229.7532484794972
 30
0.0
 10
142.1712462677212
 20
229.8037306956395
 30
0.0
 10
142.4100201166996
 20
229.8101584559026
 30
0.0
 10
142.5296815906079
 20
229.8133797268679
 30
0.0
  0
SPLINE
  5
D0
330
1F
100
AcDbEntity
  8
0
  6
Continuous
 62
     7
370
    25
100
AcDbSpline
210
0.0
220
0.0
230
1.0
 70
     8
 71
     3
 72
    15
 73
    11
 74
     0
 42
0.00000001
 43
0.00000001
 40
0.0
 40
0.0
 40
0.0
 40
0.0
 40
0.154920754375161
 40
0.2964771476550127
 40
0.4272413056113084
 40
0.5500986420187881
 40
0.6644439307468117
 40
0.7761564155660544
 40
0.8871186968614
 40
1.0
 40
1.0
 40
1.0
 40
1.0
 10
142.5296815906079
 20
229.8133797268679
 30
0.0
 10
142.6729273824025
 20
229.8096476217325
 30
0.0
 10
142.947061754754
 20
229.8025053644555
 30
0.0
 10
143.3396704028387
 20
229.7517173322739
 30
0.0
 10
143.6950191264099
 20
229.6627733558616
 30
0.0
 10
144.0119676892311
 20
229.5362761014694
 30
0.0
 10
144.2924219462686
 20
229.373961802638
 30
0.0
 10
144.5324499145092
 20
229.1734646059656
 30
0.0
 10
144.7383942077964
 20
228.938446532947
 30
0.0
 10
144.8380735759065
 20
228.7564774006972
 30
0.0
 10
144.8883405379763
 20
228.6647128194995
 30
0.0
  0
SPLINE
  5
D1
330
1F
100
AcDbEntity
  8
0
  6
Continuous
 62
     7
370
    25
100
AcDbSpline
210
0.0
220
0.0
230
1.0
 70
     8
 71
     3
 72
    15
 73
    11
 74
     0
 42
0.00000001
 43
0.00000001
 40
0.0
 40
0.0
 40
0.0
 40
0.0
 40
0.117120900182277
 40
0.2343391099400125
 40
0.3517428685573314
 40
0.4712944216291049
 40
0.5955397108226785
 40
0.7237147532310493
 40
0.8588917132496197
 40
0.9999999999999999
 40
0.9999999999999999
 40
0.9999999999999999
 40
0.9999999999999999
 10
144.8883405379763
 20
228.6647128194995
 30
0.0
 10
144.9275710567989
 20
228.583060788389
 30
0.0
 10
145.0060646890119
 20
228.4196888858041
 30
0.0
 10
145.0828146466375
 20
228.1582248845374
 30
0.0
 10
145.1396399480169
 20
227.8903477219658
 30
0.0
 10
145.1624829368876
 20
227.6115702363042
 30
0.0
 10
145.1545461107602
 20
227.3239507841831
 30
0.0
 10
145.1178930072133
 20
227.0265551233985
 30
0.0
 10
145.0551161545904
 20
226.7200672718405
 30
0.0
 10
144.9915603968189
 20
226.5162764429125
 30
0.0
 10
144.9591003063974
 20
226.4121935247627
 30
0.0
  0
SPLINE
  5
D2
330
1F
100
AcDbEntity
  8
0
  6
Continuous
 62
     7
370
    25
100
AcDbSpline
210
0.0
220
0.0
230
1.0
 70
     8
 71
     3
 72
     9
 73
     5
 74
     0
 42
0.00000001
 43
0.00000001
 40
0.0
 40
0.0
 40
0.0
 40
0.0
 40
0.1026307678649693
 40
0.1210875323067665
 40
0.1210875323067665
 40
0.1210875323067665
 40
0.1210875323067665
 10
144.9591003063974
 20
226.4121935247627
 30
0.0
 10
144.9042132880477
 20
226.262920915155
 30
0.0
 10
144.8394555770231
 20
226.0868036326441
 30
0.0
 10
144.7675117463969
 20
225.9135139317832
 30
0.0
 10
144.7563803483268
 20
225.8871683655495
 30
0.0
  0
LINE
  5
D3
330
1F
100
AcDbEntity
  8
0
  6
Continuous
 62
     7
370
    25
100
AcDbLine
 10
145.5972538537
 20
225.8871683641
 30
0.0
 11
144.7563803518
 21
225.8871683641
 31
0.0
  0
LINE
  5
D4
330
1F
100
AcDbEntity
  8
0
  6
Continuous
 62
     7
370
    25
100
AcDbLine
 10
145.5972538537
 20
217.3871683641
 30
0.0
 11
145.5972538537
 21
225.8871683641
 31
0.0
  0
LINE
  5
D5
330
1F
100
AcDbEntity
  8
0
  6
Continuous
 62
     7
370
    25
100
AcDbLine
 10
141.4439812456
 20
217.3871683641
 30
0.0
 11
145.5972538537
 21
217.3871683641
 31
0.0
  0
LINE
  5
D6
330
1F
100
AcDbEntity
  8
0
  6
Continuous
 62
     7
370
    25
100
AcDbLine
 10
141.4439812456
 20
217.3871683641
 30
0.0
 11
141.2512884411
 21
216.9634057816
 31
0.0
  0
LINE
  5
D7
330
1F
100
AcDbEntity
  8
0
  6
Continuous
 62
     7
370
    25
100
AcDbLine
 10
141.2512884411
 20
216.9634057816
 30
0.0
 11
135.387662298
 21
216.9634057816
 31
0.0
  0
LINE
  5
D8
330
1F
100
AcDbEntity
  8
0
  6
Continuous
 62
     7
370
    25
100
AcDbLine
 10
135.387662298
 20
216.9634057816
 30
0.0
 11
135.2462461151
 21
217.3871683641
 31
0.0
  0
LINE
  5
D9
330
1F
100
AcDbEntity
  8
0
  6
Continuous
 62
     7
370
    25
100
AcDbLine
 10
132.3972513415
 20
217.3871683641
 30
0.0
 11
135.2462461151
 21
217.3871683641
 31
0.0
  0
LINE
  5
DA
330
1F
100
AcDbEntity
  8
0
  6
Continuous
 62
     7
370
    25
100
AcDbLine
 10
132.3972513415
 20
217.3871683641
 30
0.0
 11
130.7481801485
 21
216.7275398869
 31
0.0
  0
LINE
  5
DB
330
1F
100
AcDbEntity
  8
0
  6
Continuous
 62
     7
370
    25
100
AcDbLine
 10
130.7481801485
 20
216.7275398869
 30
0.0
 11
130.6522407706
 21
217.3871683641
 31
0.0
  0
LINE
  5
DC
330
1F
100
AcDbEntity
  8
0
  6
Continuous
 62
     7
370
    25
100
AcDbLine
 10
128.7098377858
 20
217.3871683641
 30
0.0
 11
130.6522407706
 21
217.3871683641
 31
0.0
  0
SPLINE
  5
DD
330
1F
100
AcDbEntity
  8
0
  6
Continuous
 62
     7
370
    25
100
AcDbSpline
210
0.0
220
0.0
230
1.0
 70
     8
 71
     3
 72
     8
 73
     4
 74
     0
 42
0.00000001
 43
0.00000001
 40
0.8083007693184143
 40
0.8083007693184143
 40
0.8083007693184143
 40
0.8083007693184143
 40
0.9999999999999999
 40
0.9999999999999999
 40
0.9999999999999999
 40
0.9999999999999999
 10
128.7098377857631
 20
217.3871683641016
 30
0.0
 10
128.6363842948427
 20
217.1784731921585
 30
0.0
 10
128.5636639153569
 20
216.9695171521448
 30
0.0
 10
128.4909435358711
 20
216.7605611121311
 30
0.0
  0
LINE
  5
DE
330
1F
100
AcDbEntity
  8
0
  6
Continuous
 62
     7
370
    25
100
AcDbLine
 10
128.4909435359
 20
216.7605611121
 30
0.0
 11
125.6511181632
 21
216.857266129
 31
0.0
  0
SPLINE
  5
DF
330
1F
100
AcDbEntity
  8
0
  6
Continuous
 62
     7
370
    25
100
AcDbSpline
210
0.0
220
0.0
230
1.0
 70
     8
 71
     3
 72
     8
 73
     4
 74
     0
 42
0.00000001
 43
0.00000001
 40
0.0
 40
0.0
 40
0.0
 40
0.0
 40
0.2046693029089698
 40
0.2046693029089698
 40
0.2046693029089698
 40
0.2046693029089698
 10
125.6511181632395
 20
216.8572661289732
 30
0.0
 10
125.72559263084
 20
217.0339219704279
 30
0.0
 10
125.8000670984406
 20
217.2105778118826
 30
0.0
 10
125.874697225758
 20
217.3871683625945
 30
0.0
  0
LINE
  5
E0
330
1F
100
AcDbEntity
  8
0
  6
Continuous
 62
     7
370
    25
100
AcDbLine
 10
123.383496044
 20
217.3871683641
 30
0.0
 11
125.8746972223
 21
217.3871683641
 31
0.0
  0
SPLINE
  5
E1
330
1F
100
AcDbEntity
  8
0
  6
Continuous
 62
     7
370
    25
100
AcDbSpline
210
0.0
220
0.0
230
1.0
 70
     8
 71
     3
 72
    13
 73
     9
 74
     0
 42
0.00000001
 43
0.00000001
 40
0.411057053814875
 40
0.411057053814875
 40
0.411057053814875
 40
0.411057053814875
 40
0.4176466807400759
 40
0.5419939440867451
 40
0.6616063242042602
 40
0.7768939262912135
 40
0.8892058624631142
 40
1.0
 40
1.0
 40
1.0
 40
1.0
 10
123.3834960440152
 20
217.3871683640722
 30
0.0
 10
123.3759614923104
 20
217.3826984549889
 30
0.0
 10
123.2260370924642
 20
217.2942351591196
 30
0.0
 10
122.9310302404947
 20
217.1386508727865
 30
0.0
 10
122.4893023866628
 20
216.9549797929595
 30
0.0
 10
122.0458176060263
 20
216.8246545882764
 30
0.0
 10
121.6019746440935
 20
216.7427403445969
 30
0.0
 10
121.3052338810088
 20
216.7325836740461
 30
0.0
 10
121.1578728685027
 20
216.7275398868679
 30
0.0
  0
SPLINE
  5
E2
330
1F
100
AcDbEntity
  8
0
  6
Continuous
 62
     7
370
    25
100
AcDbSpline
210
0.0
220
0.0
230
1.0
 70
     8
 71
     3
 72
    13
 73
     9
 74
     0
 42
0.00000001
 43
0.00000001
 40
0.0
 40
0.0
 40
0.0
 40
0.0
 40
0.145864299042567
 40
0.2802240677522916
 40
0.404214189932448
 40
0.5218473444049325
 40
0.6366888647067875
 40
0.6673273859174744
 40
0.6673273859174744
 40
0.6673273859174744
 40
0.6673273859174744
 10
121.1578728685027
 20
216.7275398868679
 30
0.0
 10
121.0121515860976
 20
216.7317850981885
 30
0.0
 10
120.7322022716893
 20
216.7399406948115
 30
0.0
 10
120.3327069936751
 20
216.8094728297377
 30
0.0
 10
119.9762214802784
 20
216.9313435529338
 30
0.0
 10
119.6585897837646
 20
217.0960425600748
 30
0.0
 10
119.4523456378409
 20
217.2615996244228
 30
0.0
 10
119.3499500621246
 20
217.364917692838
 30
0.0
 10
119.3289071030958
 20
217.3871683640722
 30
0.0
  0
LINE
  5
E3
330
1F
100
AcDbEntity
  8
0
  6
Continuous
 62
     7
370
    25
100
AcDbLine
 10
114.1910344897
 20
217.3871683641
 30
0.0
 11
119.3289071031
 21
217.3871683641
 31
0.0
  0
SPLINE
  5
E4
330
1F
100
AcDbEntity
  8
0
  6
Continuous
 62
     7
370
    25
100
AcDbSpline
210
0.0
220
0.0
230
1.0
 70
     8
 71
     3
 72
    10
 73
     6
 74
     0
 42
0.00000001
 43
0.00000001
 40
0.7068439650279909
 40
0.7068439650279909
 40
0.7068439650279909
 40
0.7068439650279909
 40
0.7616494507246138
 40
0.8807218105406219
 40
0.9999999999999999
 40
0.9999999999999999
 40
0.9999999999999999
 40
0.9999999999999999
 10
114.1910344897407
 20
217.3871683640722
 30
0.0
 10
114.1314069547826
 20
217.3719205375543
 30
0.0
 10
113.941072767449
 20
217.3279140874785
 30
0.0
 10
113.6153213390677
 20
217.2762777630194
 30
0.0
 10
113.3477904783829
 20
217.265826801994
 30
0.0
 10
113.2139095337658
 20
217.2605968089732
 30
0.0
  0
SPLINE
  5
E5
330
1F
100
AcDbEntity
  8
0
  6
Continuous
 62
     7
370
    25
100
AcDbSpline
210
0.0
220
0.0
230
1.0
 70
     8
 71
     3
 72
    12
 73
     8
 74
     0
 42
0.00000001
 43
0.00000001
 40
0.0
 40
0.0
 40
0.0
 40
0.0
 40
0.1651593286852354
 40
0.3130958471821132
 40
0.4471915181814898
 40
0.5677341212678397
 40
0.6270957474912852
 40
0.6270957474912852
 40
0.6270957474912852
 40
0.6270957474912852
 10
113.2139095337658
 20
217.2605968089732
 30
0.0
 10
113.1572250517596
 20
217.2599338649601
 30
0.0
 10
113.0497671439497
 20
217.2586771087171
 30
0.0
 10
112.8974667213687
 20
217.2791974281673
 30
0.0
 10
112.7623276100101
 20
217.3080057928083
 30
0.0
 10
112.6609697911812
 20
217.3460904660383
 30
0.0
 10
112.6071145008541
 20
217.3763545117537
 30
0.0
 10
112.5898461395087
 20
217.3871683640722
 30
0.0
  0
LINE
  5
E6
330
1F
100
AcDbEntity
  8
0
  6
Continuous
 62
     7
370
    25
100
AcDbLine
 10
112.2513795589
 20
217.3871683641
 30
0.0
 11
112.5898461395
 21
217.3871683641
 31
0.0
  0
SPLINE
  5
E7
330
1F
100
AcDbEntity
  8
0
  6
Continuous
 62
     7
370
    25
100
AcDbSpline
210
0.0
220
0.0
230
1.0
 70
     8
 71
     3
 72
    14
 73
    10
 74
     0
 42
0.00000001
 43
0.00000001
 40
0.1170545701868267
 40
0.1170545701868267
 40
0.1170545701868267
 40
0.1170545701868267
 40
0.1325932314870288
 40
0.2284785110291342
 40
0.3429851067974938
 40
0.4780623966993671
 40
0.632590324737181
 40
0.8065694059495178
 40
1.0
 40
1.0
 40
1.0
 40
1.0
 10
112.2513795588727
 20
217.3871683640722
 30
0.0
 10
112.2467157675615
 20
217.3740722805647
 30
0.0
 10
112.2133540726644
 20
217.2801347299724
 30
0.0
 10
112.1471562789381
 20
217.0891490106384
 30
0.0
 10
112.0451483332918
 20
216.7973917550723
 30
0.0
 10
111.9248121049435
 20
216.456463585038
 30
0.0
 10
111.7882007343055
 20
216.0648585691631
 30
0.0
 10
111.63485413064
 20
215.6238006951934
 30
0.0
 10
111.5274210101124
 20
215.3131471697145
 30
0.0
 10
111.4708605716606
 20
215.1495970510784
 30
0.0
  0
LINE
  5
E8
330
1F
100
AcDbEntity
  8
0
  6
Continuous
 62
     7
370
    25
100
AcDbLine
 10
111.4708605717
 20
215.1495970511
 30
0.0
 11
108.498950298
 21
215.2321501142
 31
0.0
  0
LINE
  5
E9
330
1F
100
AcDbEntity
  8
0
  6
Continuous
 62
     7
370
    25
100
AcDbLine
 10
108.498950298
 20
215.2321501142
 30
0.0
 11
109.382126956
 21
217.3871683641
 31
0.0
  0
LINE
  5
EA
330
1F
100
AcDbEntity
  8
0
  6
Continuous
 62
     7
370
    25
100
AcDbLine
 10
108.8344751573
 20
217.3871683641
 30
0.0
 11
109.382126956
 21
217.3871683641
 31
0.0
  0
SPLINE
  5
EB
330
1F
100
AcDbEntity
  8
0
  6
Continuous
 62
     7
370
    25
100
AcDbSpline
210
0.0
220
0.0
230
1.0
 70
     8
 71
     3
 72
     9
 73
     5
 74
     0
 42
0.00000001
 43
0.00000001
 40
0.8250875925454668
 40
0.8250875925454668
 40
0.8250875925454668
 40
0.8250875925454668
 40
0.892387885152973
 40
1.0
 40
1.0
 40
1.0
 40
1.0
 10
108.8344751602695
 20
217.3871683630336
 30
0.0
 10
108.8052496676337
 20
217.3025000501576
 30
0.0
 10
108.7291981352346
 20
217.0824815638706
 30
0.0
 10
108.6523621098835
 20
216.8627353176873
 30
0.0
 10
108.6050899506079
 20
216.7275398868679
 30
0.0
  0
LINE
  5
EC
330
1F
100
AcDbEntity
  8
0
  6
Continuous
 62
     7
370
    25
100
AcDbLine
 10
108.6050899506
 20
216.7275398869
 30
0.0
 11
105.989337178
 21
216.7959409963
 31
0.0
  0
SPLINE
  5
ED
330
1F
100
AcDbEntity
  8
0
  6
Continuous
 62
     7
370
    25
100
AcDbSpline
210
0.0
220
0.0
230
1.0
 70
     8
 71
     3
 72
     8
 73
     4
 74
     0
 42
0.00000001
 43
0.00000001
 40
0.0
 40
0.0
 40
0.0
 40
0.0
 40
0.0954614206356139
 40
0.0954614206356139
 40
0.0954614206356139
 40
0.0954614206356139
 10
105.9893371779763
 20
216.7959409963416
 30
0.0
 10
106.0623944277769
 20
216.9930769057432
 30
0.0
 10
106.1354516775775
 20
217.1902128151448
 30
0.0
 10
106.2089923618169
 20
217.3871683640769
 30
0.0
  0
LINE
  5
EE
330
1F
100
AcDbEntity
  8
0
  6
Continuous
 62
     7
370
    25
100
AcDbLine
 10
106.1209725337
 20
217.3871683641
 30
0.0
 11
106.2089923618
 21
217.3871683641
 31
0.0
  0
SPLINE
  5
EF
330
1F
100
AcDbEntity
  8
0
  6
Continuous
 62
     7
370
    25
100
AcDbSpline
210
0.0
220
0.0
230
1.0
 70
     8
 71
     3
 72
     8
 73
     4
 74
     0
 42
0.00000001
 43
0.00000001
 40
0.907995351364809
 40
0.907995351364809
 40
0.907995351364809
 40
0.907995351364809
 40
1.0
 40
1.0
 40
1.0
 40
1.0
 10
106.120972533705
 20
217.3871683640718
 30
0.0
 10
106.0473603616307
 20
217.1672445521752
 30
0.0
 10
105.9735342498035
 20
216.9473922195216
 30
0.0
 10
105.8997081379763
 20
216.7275398868679
 30
0.0
  0
LINE
  5
F0
330
1F
100
AcDbEntity
  8
0
  6
Continuous
 62
     7
370
    25
100
AcDbLine
 10
105.899708138
 20
216.7275398869
 30
0.0
 11
103.3924536769
 21
216.8784940595
 31
0.0
  0
LWPOLYLINE
  5
F1
330
1F
100
AcDbEntity
  8
0
  6
Continuous
 62
     7
370
    25
100
AcDbPolyline
 90
        3
 70
   128
 43
0.0
 10
103.3924536769
 20
216.8784940595
 10
103.493456301
 20
217.1633533754
 10
103.5728243612
 20
217.3871683641
  0
LINE
  5
F2
330
1F
100
AcDbEntity
  8
0
  6
Continuous
 62
     7
370
    25
100
AcDbLine
 10
103.3502324694
 20
217.3871683641
 30
0.0
 11
103.5728243612
 21
217.3871683641
 31
0.0
  0
SPLINE
  5
F3
330
1F
100
AcDbEntity
  8
0
  6
Continuous
 62
     7
370
    25
100
AcDbSpline
210
0.0
220
0.0
230
1.0
 70
     8
 71
     3
 72
     9
 73
     5
 74
     0
 42
0.00000001
 43
0.00000001
 40
0.8368189560299445
 40
0.8368189560299445
 40
0.8368189560299445
 40
0.8368189560299445
 40
0.9060395202791005
 40
1.0
 40
1.0
 40
1.0
 40
1.0
 10
103.3502324716838
 20
217.38716836328
 30
0.0
 10
103.3179179639673
 20
217.2938739917504
 30
0.0
 10
103.2418472568944
 20
217.0739038798163
 30
0.0
 10
103.1652899733816
 20
216.8541025923709
 30
0.0
 10
103.1212078979763
 20
216.7275398868679
 30
0.0
  0
LINE
  5
F4
330
1F
100
AcDbEntity
  8
0
  6
Continuous
 62
     7
370
    25
100
AcDbLine
 10
103.121207898
 20
216.7275398869
 30
0.0
 11
100.5408350096
 21
216.812451609
 31
0.0
  0
LINE
  5
F5
330
1F
100
AcDbEntity
  8
0
  6
Continuous
 62
     7
370
    25
100
AcDbLine
 10
100.5408350096
 20
216.812451609
 30
0.0
 11
100.755829926
 21
217.3871683641
 31
0.0
  0
LINE
  5
F6
330
1F
100
AcDbEntity
  8
0
  6
Continuous
 62
     7
370
    25
100
AcDbLine
 10
98.4760575598
 20
217.3871683641
 30
0.0
 11
100.755829926
 21
217.3871683641
 31
0.0
  0
SPLINE
  5
F7
330
1F
100
AcDbEntity
  8
0
  6
Continuous
 62
     7
370
    25
100
AcDbSpline
210
0.0
220
0.0
230
1.0
 70
     8
 71
     3
 72
    13
 73
     9
 74
     0
 42
0.00000001
 43
0.00000001
 40
0.4110570538148748
 40
0.4110570538148748
 40
0.4110570538148748
 40
0.4110570538148748
 40
0.4176466807400767
 40
0.5419939440867461
 40
0.6616063242042615
 40
0.7768939262912131
 40
0.889205862463114
 40
1.0
 40
1.0
 40
1.0
 40
1.0
 10
98.4760575598047
 20
217.3871683640722
 30
0.0
 10
98.46852300809988
 20
217.3826984549889
 30
0.0
 10
98.31859860825371
 20
217.2942351591196
 30
0.0
 10
98.02359175628422
 20
217.1386508727865
 30
0.0
 10
97.58186390245224
 20
216.9549797929595
 30
0.0
 10
97.13837912181577
 20
216.8246545882764
 30
0.0
 10
96.69453615988293
 20
216.7427403445969
 30
0.0
 10
96.3977953967983
 20
216.7325836740461
 30
0.0
 10
96.25043438429213
 20
216.7275398868679
 30
0.0
  0
SPLINE
  5
F8
330
1F
100
AcDbEntity
  8
0
  6
Continuous
 62
     7
370
    25
100
AcDbSpline
210
0.0
220
0.0
230
1.0
 70
     8
 71
     3
 72
    13
 73
     9
 74
     0
 42
0.00000001
 43
0.00000001
 40
0.0
 40
0.0
 40
0.0
 40
0.0
 40
0.1458642990425668
 40
0.2802240677522937
 40
0.4042141899324477
 40
0.5218473444049343
 40
0.6366888647067891
 40
0.6673273859174729
 40
0.6673273859174729
 40
0.6673273859174729
 40
0.6673273859174729
 10
96.25043438429213
 20
216.7275398868679
 30
0.0
 10
96.10471310188711
 20
216.7317850981885
 30
0.0
 10
95.8247637874788
 20
216.7399406948115
 30
0.0
 10
95.42526850946462
 20
216.8094728297377
 30
0.0
 10
95.06878299606792
 20
216.9313435529338
 30
0.0
 10
94.75115129955401
 20
217.0960425600748
 30
0.0
 10
94.54490715363036
 20
217.2615996244228
 30
0.0
 10
94.44251157791412
 20
217.364917692838
 30
0.0
 10
94.42146861888533
 20
217.3871683640722
 30
0.0
  0
LINE
  5
F9
330
1F
100
AcDbEntity
  8
0
  6
Continuous
 62
     7
370
    25
100
AcDbLine
 10
89.4824960848
 20
217.3871683641
 30
0.0
 11
94.4214686189
 21
217.3871683641
 31
0.0
  0
SPLINE
  5
FA
330
1F
100
AcDbEntity
  8
0
  6
Continuous
 62
     7
370
    25
100
AcDbSpline
210
0.0
220
0.0
230
1.0
 70
     8
 71
     3
 72
     9
 73
     5
 74
     0
 42
0.00000001
 43
0.00000001
 40
0.7723789019098176
 40
0.7723789019098176
 40
0.7723789019098176
 40
0.7723789019098176
 40
0.7737353910456225
 40
1.0
 40
1.0
 40
1.0
 40
1.0
 10
89.48249608478812
 20
217.3871683640721
 30
0.0
 10
89.48202504475441
 20
217.3858612963691
 30
0.0
 10
89.40299718966685
 20
217.16652835442
 30
0.0
 10
89.32623718663537
 20
216.9463781371246
 30
0.0
 10
89.24993462850266
 20
216.7275398868679
 30
0.0
  0
LINE
  5
FB
330
1F
100
AcDbEntity
  8
0
  6
Continuous
 62
     7
370
    25
100
AcDbLine
 10
89.2499346285
 20
216.7275398869
 30
0.0
 11
86.4761517064
 21
216.9303845563
 31
0.0
  0
SPLINE
  5
FC
330
1F
100
AcDbEntity
  8
0
  6
Continuous
 62
     7
370
    25
100
AcDbSpline
210
0.0
220
0.0
230
1.0
 70
     8
 71
     3
 72
     9
 73
     5
 74
     0
 42
0.00000001
 43
0.00000001
 40
0.0
 40
0.0
 40
0.0
 40
0.0
 40
0.1073496815576749
 40
0.1188082660040954
 40
0.1188082660040954
 40
0.1188082660040954
 40
0.1188082660040954
 10
86.4761517063974
 20
216.9303845563416
 30
0.0
 10
86.53498733616011
 20
217.0680284427519
 30
0.0
 10
86.60010312458107
 20
217.2203645394518
 30
0.0
 10
86.66569971537278
 20
217.372496886218
 30
0.0
 10
86.67202879052897
 20
217.3871683655874
 30
0.0
  0
LINE
  5
FD
330
1F
100
AcDbEntity
  8
0
  6
Continuous
 62
     7
370
    25
100
AcDbLine
 10
81.7303863874
 20
217.3871683641
 30
0.0
 11
86.672028794
 21
217.3871683641
 31
0.0
  0
SPLINE
  5
FE
330
1F
100
AcDbEntity
  8
0
  6
Continuous
 62
     7
370
    25
100
AcDbSpline
210
0.0
220
0.0
230
1.0
 70
     8
 71
     3
 72
    16
 73
    12
 74
     0
 42
0.00000001
 43
0.00000001
 40
0.5946272563636954
 40
0.5946272563636954
 40
0.5946272563636954
 40
0.5946272563636954
 40
0.5979382445865893
 40
0.6579554162968558
 40
0.7144318063056406
 40
0.7684270617556019
 40
0.8196740533018365
 40
0.8681988151991644
 40
0.9142993624401174
 40
0.9581669393377703
 40
1.0
 40
1.0
 40
1.0
 40
1.0
 10
81.73038638744066
 20
217.3871683640708
 30
0.0
 10
81.72493317324859
 20
217.3842841228615
 30
0.0
 10
81.62058355573397
 20
217.3292085930239
 30
0.0
 10
81.42147688665868
 20
217.2282448699517
 30
0.0
 10
81.13194598265707
 20
217.097330096646
 30
0.0
 10
80.85160021734515
 20
216.9867294963128
 30
0.0
 10
80.58058069847554
 20
216.8934589234812
 30
0.0
 10
80.31795822603009
 20
216.8226937459309
 30
0.0
 10
80.06518243374441
 20
216.7706867368197
 30
0.0
 10
79.8217888352783
 20
216.7351759502247
 30
0.0
 10
79.66209945508572
 20
216.7300446358564
 30
0.0
 10
79.58415026218688
 20
216.7275398868679
 30
0.0
  0
LINE
  5
FF
330
1F
100
AcDbEntity
  8
0
  6
Continuous
 62
     7
370
    25
100
AcDbLine
 10
74.0361872265
 20
217.3871683641
 30
0.0
 11
77.7737462613
 21
217.3871683641
 31
0.0
  0
LINE
  5
100
330
1F
100
AcDbEntity
  8
0
  6
Continuous
 62
     7
370
    25
100
AcDbLine
 10
74.0361872265
 20
217.3871683641
 30
0.0
 11
72.9563186201
 21
216.7275398869
 31
0.0
  0
SPLINE
  5
101
330
1F
100
AcDbEntity
  8
0
  6
Continuous
 62
     7
370
    25
100
AcDbSpline
210
0.0
220
0.0
230
1.0
 70
     8
 71
     3
 72
     9
 73
     5
 74
     0
 42
0.00000001
 43
0.00000001
 40
0.0
 40
0.0
 40
0.0
 40
0.0
 40
0.0980262359350426
 40
0.1663511297696209
 40
0.1663511297696209
 40
0.1663511297696209
 40
0.1663511297696209
 10
72.9563186200816
 20
216.7275398868679
 30
0.0
 10
72.90877619269062
 20
216.8560820446397
 30
0.0
 10
72.82809639882683
 20
217.0742188828483
 30
0.0
 10
72.75739926009918
 20
217.2957930690545
 30
0.0
 10
72.7295473732228
 20
217.3871683640724
 30
0.0
  0
LINE
  5
102
330
1F
100
AcDbEntity
  8
0
  6
Continuous
 62
     7
370
    25
100
AcDbLine
 10
70.7294704552
 20
217.3871683641
 30
0.0
 11
72.7295473732
 21
217.3871683641
 31
0.0
  0
LINE
  5
103
330
1F
100
AcDbEntity
  8
0
  6
Continuous
 62
     7
370
    25
100
AcDbLine
 10
70.7294704552
 20
217.3871683641
 30
0.0
 11
70.4797267253
 21
216.7275398869
 31
0.0
  0
LINE
  5
104
330
1F
100
AcDbEntity
  8
0
  6
Continuous
 62
     7
370
    25
100
AcDbLine
 10
70.4797267253
 20
216.7275398869
 30
0.0
 11
67.6304667169
 21
216.7275398869
 31
0.0
  0
SPLINE
  5
105
330
1F
100
AcDbEntity
  8
0
  6
Continuous
 62
     7
370
    25
100
AcDbSpline
210
0.0
220
0.0
230
1.0
 70
     8
 71
     3
 72
     9
 73
     5
 74
     0
 42
0.00000001
 43
0.00000001
 40
0.0
 40
0.0
 40
0.0
 40
0.0
 40
0.2234643729396709
 40
0.2658045333841867
 40
0.2658045333841867
 40
0.2658045333841867
 40
0.2658045333841867
 10
67.63046671692372
 20
216.7275398868679
 30
0.0
 10
67.70961976673608
 20
216.9120788397175
 30
0.0
 10
67.80377007443184
 20
217.131582689965
 30
0.0
 10
67.89566617722768
 20
217.3520316468136
 30
0.0
 10
67.91025347701438
 20
217.3871683640723
 30
0.0
  0
LINE
  5
106
330
1F
100
AcDbEntity
  8
0
  6
Continuous
 62
     7
370
    25
100
AcDbLine
 10
66.3892379496
 20
217.3871683641
 30
0.0
 11
67.910253477
 21
217.3871683641
 31
0.0
  0
LINE
  5
107
330
1F
100
AcDbEntity
  8
0
  6
Continuous
 62
     7
370
    25
100
AcDbLine
 10
66.3892379496
 20
225.8871683641
 30
0.0
 11
66.3892379496
 21
217.3871683641
 31
0.0
  0
LINE
  5
108
330
1F
100
AcDbEntity
  8
0
  6
Continuous
 62
     7
370
    25
100
AcDbLine
 10
71.1624816542
 20
225.8871683641
 30
0.0
 11
66.3892379496
 21
225.8871683641
 31
0.0
  0
LINE
  5
109
330
1F
100
AcDbEntity
  8
0
  6
Continuous
 62
     7
370
    25
100
AcDbLine
 10
71.1624816542
 20
225.8871683641
 30
0.0
 11
72.6331823443
 21
229.7662065479
 31
0.0
  0
LINE
  5
10A
330
1F
100
AcDbEntity
  8
0
  6
Continuous
 62
     7
370
    25
100
AcDbLine
 10
72.6331823443
 20
229.7662065479
 30
0.0
 11
75.4753663759
 21
229.6388389648
 31
0.0
  0
LINE
  5
10B
330
1F
100
AcDbEntity
  8
0
  6
Continuous
 62
     7
370
    25
100
AcDbLine
 10
75.4753663759
 20
229.6388389648
 30
0.0
 11
74.4729363232
 21
227.0631833942
 31
0.0
  0
SPLINE
  5
10C
330
1F
100
AcDbEntity
  8
0
  6
Continuous
 62
     7
370
    25
100
AcDbSpline
210
0.0
220
0.0
230
1.0
 70
     8
 71
     3
 72
    15
 73
    11
 74
     0
 42
0.00000001
 43
0.00000001
 40
0.0
 40
0.0
 40
0.0
 40
0.0
 40
0.1074439785743474
 40
0.2197190043039397
 40
0.3369325906846569
 40
0.4592046577663672
 40
0.586174987982632
 40
0.7187930676383467
 40
0.8571405585128429
 40
1.0
 40
1.0
 40
1.0
 40
1.0
 10
74.47293632323951
 20
227.0631833942363
 30
0.0
 10
74.56732604738764
 20
227.1715672282266
 30
0.0
 10
74.76034957910655
 20
227.3932082024625
 30
0.0
 10
75.07063672339682
 20
227.7201648708604
 30
0.0
 10
75.4024539024952
 20
228.0538306492505
 30
0.0
 10
75.76223135476529
 20
228.3868193863207
 30
0.0
 10
76.14214096905769
 20
228.7282261931213
 30
0.0
 10
76.54847200289646
 20
229.0721121681185
 30
0.0
 10
76.97878755184188
 20
229.4203178751229
 30
0.0
 10
77.27689214921888
 20
229.6496836032595
 30
0.0
 10
77.42833598429213
 20
229.7662065479206
 30
0.0
  0
LINE
  5
10D
330
1F
100
AcDbEntity
  8
0
  6
Continuous
 62
     7
370
    25
100
AcDbLine
 10
77.4283359843
 20
229.7662065479
 30
0.0
 11
78.963822959
 21
228.1198626027
 31
0.0
  0
SPLINE
  5
10E
330
1F
100
AcDbEntity
  8
0
  6
Continuous
 62
     7
370
    25
100
AcDbSpline
210
0.0
220
0.0
230
1.0
 70
     8
 71
     3
 72
    12
 73
     8
 74
     0
 42
0.00000001
 43
0.00000001
 40
0.0
 40
0.0
 40
0.0
 40
0.0
 40
0.1132150895832426
 40
0.2298396285030352
 40
0.3498781653260602
 40
0.4733348712695486
 40
0.5856996103577624
 40
0.5856996103577624
 40
0.5856996103577624
 40
0.5856996103577624
 10
78.96382295902899
 20
228.1198626026574
 30
0.0
 10
78.77572548114453
 20
227.9785957327674
 30
0.0
 10
78.39386600818506
 20
227.6918077700069
 30
0.0
 10
77.8161670299915
 20
227.2504832431841
 30
0.0
 10
77.22423956118294
 20
226.7927640017648
 30
0.0
 10
76.64142248911526
 20
226.3377311511016
 30
0.0
 10
76.25803566613357
 20
226.0326011749787
 30
0.0
 10
76.07539299852765
 20
225.8871683640722
 30
0.0
  0
LINE
  5
10F
330
1F
100
AcDbEntity
  8
0
  6
Continuous
 62
     7
370
    25
100
AcDbLine
 10
80.6016000784
 20
225.8871683641
 30
0.0
 11
76.0753929985
 21
225.8871683641
 31
0.0
  0
SPLINE
  5
110
330
1F
100
AcDbEntity
  8
0
  6
Continuous
 62
     7
370
    25
100
AcDbSpline
210
0.0
220
0.0
230
1.0
 70
     8
 71
     3
 72
    14
 73
    10
 74
     0
 42
0.00000001
 43
0.00000001
 40
0.2526052492116349
 40
0.2526052492116349
 40
0.2526052492116349
 40
0.2526052492116349
 40
0.271325071783171
 40
0.3989364135824698
 40
0.5224595555911904
 40
0.6433536909857147
 40
0.7620437730749648
 40
0.8806534236559344
 40
0.9999999999999999
 40
0.9999999999999999
 40
0.9999999999999999
 40
0.9999999999999999
 10
80.60160007836014
 20
225.8871683640722
 30
0.0
 10
80.62088949829985
 20
225.9003300238165
 30
0.0
 10
80.77228231901033
 20
226.0023162097723
 30
0.0
 10
81.05987111780445
 20
226.1775490128452
 30
0.0
 10
81.47653697118429
 20
226.3833594090073
 30
0.0
 10
81.90292541465716
 20
226.5377005912958
 30
0.0
 10
82.33479277923871
 20
226.653828588227
 30
0.0
 10
82.77570120721609
 20
226.7204688898734
 30
0.0
 10
83.07239569773289
 20
226.7303659469394
 30
0.0
 10
83.22120235902898
 20
226.7353298005521
 30
0.0
  0
SPLINE
  5
111
330
1F
100
AcDbEntity
  8
0
  6
Continuous
 62
     7
370
    25
100
AcDbSpline
210
0.0
220
0.0
230
1.0
 70
     8
 71
     3
 72
    13
 73
     9
 74
     0
 42
0.00000001
 43
0.00000001
 40
0.0
 40
0.0
 40
0.0
 40
0.0
 40
0.1491363331944633
 40
0.2852781840844892
 40
0.4107889557461034
 40
0.5286732065885513
 40
0.6425408136791357
 40
0.7559940594848918
 40
0.7559940594848918
 40
0.7559940594848918
 40
0.7559940594848918
 10
83.22120235902896
 20
226.7353298005521
 30
0.0
 10
83.37167790704663
 20
226.7312579043339
 30
0.0
 10
83.65951783289235
 20
226.7234689025927
 30
0.0
 10
84.06913352495015
 20
226.6523408572527
 30
0.0
 10
84.43505592810263
 20
226.5356347373396
 30
0.0
 10
84.75665866699089
 20
226.3692581721057
 30
0.0
 10
85.03318999029996
 20
226.1541328538557
 30
0.0
 10
85.18362218655085
 20
225.9797518971436
 30
0.0
 10
85.25130935190444
 20
225.8871683640721
 30
0.0
  0
LINE
  5
112
330
1F
100
AcDbEntity
  8
0
  6
Continuous
 62
     7
370
    25
100
AcDbLine
 10
90.1293285625
 20
225.8871683641
 30
0.0
 11
85.2513093519
 21
225.8871683641
 31
0.0
  0
LINE
  5
113
330
1F
100
AcDbEntity
  8
0
  6
Continuous
 62
     7
370
    25
100
AcDbLine
 10
90.1293285625
 20
225.8871683641
 30
0.0
 11
91.7147332285
 21
229.8275316806
 31
0.0
  0
LINE
  5
114
330
1F
100
AcDbEntity
  8
0
  6
Continuous
 62
     7
370
    25
100
AcDbLine
 10
91.7147332285
 20
229.8275316806
 30
0.0
 11
94.1866078053
 21
229.7213920279
 31
0.0
  0
LINE
  5
115
330
1F
100
AcDbEntity
  8
0
  6
Continuous
 62
     7
370
    25
100
AcDbLine
 10
94.1866078053
 20
229.7213920279
 30
0.0
 11
92.7210544973
 21
225.8871683641
 31
0.0
  0
LINE
  5
116
330
1F
100
AcDbEntity
  8
0
  6
Continuous
 62
     7
370
    25
100
AcDbLine
 10
97.2767691356
 20
225.8871683604
 30
0.0
 11
92.7210544973
 21
225.8871683641
 31
0.0
  0
SPLINE
  5
117
330
1F
100
AcDbEntity
  8
0
  6
Continuous
 62
     7
370
    25
100
AcDbSpline
210
0.0
220
0.0
230
1.0
 70
     8
 71
     3
 72
    13
 73
     9
 74
     0
 42
0.00000001
 43
0.00000001
 40
0.3311075347973995
 40
0.3311075347973995
 40
0.3311075347973995
 40
0.3311075347973995
 40
0.4168096754701802
 40
0.5414837637080323
 40
0.6602730832095691
 40
0.7753856590560022
 40
0.8885263970477177
 40
1.0
 40
1.0
 40
1.0
 40
1.0
 10
97.27676913555504
 20
225.8871683603583
 30
0.0
 10
97.36840782211348
 20
225.9516708297533
 30
0.0
 10
97.59782827485795
 20
226.1035977289773
 30
0.0
 10
97.9737907232259
 20
226.3139044699592
 30
0.0
 10
98.40320795264368
 20
226.504286933634
 30
0.0
 10
98.83811254191342
 20
226.6360029622021
 30
0.0
 10
99.27565250681947
 20
226.7206945239083
 30
0.0
 10
99.569480705891
 20
226.7304755740102
 30
0.0
 10
99.71530437797635
 20
226.7353298005521
 30
0.0
  0
SPLINE
  5
118
330
1F
100
AcDbEntity
  8
0
  6
Continuous
 62
     7
370
    25
100
AcDbSpline
210
0.0
220
0.0
230
1.0
 70
     8
 71
     3
 72
    15
 73
    11
 74
     0
 42
0.00000001
 43
0.00000001
 40
0.0
 40
0.0
 40
0.0
 40
0.0
 40
0.1521028038015668
 40
0.2944227958327645
 40
0.4274751715894469
 40
0.5526137234346318
 40
0.6711864861204387
 40
0.7842142322646111
 40
0.8932447916667448
 40
1.0
 40
1.0
 40
1.0
 40
1.0
 10
99.71530437797635
 20
226.7353298005521
 30
0.0
 10
99.81761632304972
 20
226.7339550462015
 30
0.0
 10
100.0156598052388
 20
226.7312939577179
 30
0.0
 10
100.3015135918748
 20
226.6985412732154
 30
0.0
 10
100.5672503196758
 20
226.6537050198327
 30
0.0
 10
100.8117165838079
 20
226.5853730232342
 30
0.0
 10
101.0346541412001
 20
226.4955563985054
 30
0.0
 10
101.2364936780118
 20
226.386615237452
 30
0.0
 10
101.4186266086086
 20
226.2597013914806
 30
0.0
 10
101.522525809933
 20
226.1581612478206
 30
0.0
 10
101.5739276285027
 20
226.1079265205522
 30
0.0
  0
SPLINE
  5
119
330
1F
100
AcDbEntity
  8
0
  6
Continuous
 62
     7
370
    25
100
AcDbSpline
210
0.0
220
0.0
230
1.0
 70
     8
 71
     3
 72
     9
 73
     5
 74
     0
 42
0.00000001
 43
0.00000001
 40
0.0
 40
0.0
 40
0.0
 40
0.0
 40
0.1075082328776646
 40
0.1364981581846189
 40
0.1364981581846189
 40
0.1364981581846189
 40
0.1364981581846189
 10
101.5739276285027
 20
226.1079265205522
 30
0.0
 10
101.6246545201725
 20
226.0514929936755
 30
0.0
 10
101.689060074036
 20
225.9798419928884
 30
0.0
 10
101.7476862799961
 20
225.9035459232556
 30
0.0
 10
101.7599153480264
 20
225.8871683605953
 30
0.0
  0
LINE
  5
11A
330
1F
100
AcDbEntity
  8
0
  6
Continuous
 62
     7
370
    25
100
AcDbLine
 10
103.9355819921
 20
225.8871683641
 30
0.0
 11
101.7599153527
 21
225.8871683641
 31
0.0
  0
LINE
  5
11B
330
1F
100
AcDbEntity
  8
0
  6
Continuous
 62
     7
370
    25
100
AcDbLine
 10
103.9355819921
 20
225.8871683641
 30
0.0
 11
104.1708111296
 21
226.5159745184
 31
0.0
  0
LINE
  5
11C
330
1F
100
AcDbEntity
  8
0
  6
Continuous
 62
     7
370
    25
100
AcDbLine
 10
104.1708111296
 20
226.5159745184
 30
0.0
 11
106.2676589338
 21
226.3909655942
 31
0.0
  0
SPLINE
  5
11D
330
1F
100
AcDbEntity
  8
0
  6
Continuous
 62
     7
370
    25
100
AcDbSpline
210
0.0
220
0.0
230
1.0
 70
     8
 71
     3
 72
    11
 73
     7
 74
     0
 42
0.00000001
 43
0.00000001
 40
0.0
 40
0.0
 40
0.0
 40
0.0
 40
0.2503662308909671
 40
0.497114603385502
 40
0.747041243606312
 40
1.0
 40
1.0
 40
1.0
 40
1.0
 10
106.2676589337658
 20
226.3909655942363
 30
0.0
 10
106.3445528483833
 20
226.4360254550582
 30
0.0
 10
106.4972295401713
 20
226.5254940497699
 30
0.0
 10
106.7434046827845
 20
226.6276352313044
 30
0.0
 10
107.0011401096287
 20
226.6990257411543
 30
0.0
 10
107.1785104403894
 20
226.7231799020833
 30
0.0
 10
107.26773032745
 20
226.7353298005521
 30
0.0
  0
SPLINE
  5
11E
330
1F
100
AcDbEntity
  8
0
  6
Continuous
 62
     7
370
    25
100
AcDbSpline
210
0.0
220
0.0
230
1.0
 70
     8
 71
     3
 72
    15
 73
    11
 74
     0
 42
0.00000001
 43
0.00000001
 40
0.0
 40
0.0
 40
0.0
 40
0.0
 40
0.1462920806351245
 40
0.2777024834201239
 40
0.4005686123002498
 40
0.5146000946035714
 40
0.6289030654299621
 40
0.7447451940336502
 40
0.8661855490779629
 40
1.0
 40
1.0
 40
1.0
 40
1.0
 10
107.26773032745
 20
226.7353298005521
 30
0.0
 10
107.3347434713129
 20
226.7333735735441
 30
0.0
 10
107.4619527938663
 20
226.7296601182708
 30
0.0
 10
107.6425678114677
 20
226.6935090525627
 30
0.0
 10
107.8015612938419
 20
226.6354239612913
 30
0.0
 10
107.9408841236438
 20
226.5533594449498
 30
0.0
 10
108.0581594903763
 20
226.4461798928746
 30
0.0
 10
108.1502676926308
 20
226.3131396056584
 30
0.0
 10
108.2235396199228
 20
226.1587518803103
 30
0.0
 10
108.2510310108129
 20
226.0449405569514
 30
0.0
 10
108.2654430621869
 20
225.985276255289
 30
0.0
  0
SPLINE
  5
11F
330
1F
100
AcDbEntity
  8
0
  6
Continuous
 62
     7
370
    25
100
AcDbSpline
210
0.0
220
0.0
230
1.0
 70
     8
 71
     3
 72
    15
 73
    11
 74
     0
 42
0.00000001
 43
0.00000001
 40
0.0
 40
0.0
 40
0.0
 40
0.0
 40
0.1442742548825715
 40
0.2800346900966741
 40
0.4112416879738308
 40
0.5359955620517399
 40
0.6558303250037775
 40
0.7725572871376106
 40
0.8868873825418773
 40
1.0
 40
1.0
 40
1.0
 40
1.0
 10
108.2654430621869
 20
225.985276255289
 30
0.0
 10
108.3408384154498
 20
226.0454091537762
 30
0.0
 10
108.4871799398118
 20
226.1621264267657
 30
0.0
 10
108.7164942559833
 20
226.314170045448
 30
0.0
 10
108.9441775619749
 20
226.4435424360484
 30
0.0
 10
109.171129515336
 20
226.5519120253959
 30
0.0
 10
109.3994730640866
 20
226.6314917152659
 30
0.0
 10
109.6263130879014
 20
226.6915151804441
 30
0.0
 10
109.8539747770617
 20
226.7283936729469
 30
0.0
 10
110.0060031576667
 20
226.7330260235191
 30
0.0
 10
110.0816104516606
 20
226.7353298005521
 30
0.0
  0
SPLINE
  5
120
330
1F
100
AcDbEntity
  8
0
  6
Continuous
 62
     7
370
    25
100
AcDbSpline
210
0.0
220
0.0
230
1.0
 70
     8
 71
     3
 72
    14
 73
    10
 74
     0
 42
0.00000001
 43
0.00000001
 40
0.0
 40
0.0
 40
0.0
 40
0.0
 40
0.149839797805686
 40
0.2820511997862939
 40
0.4006436533806222
 40
0.5129467068835519
 40
0.6215970094642678
 40
0.7357103653775005
 40
0.8324621502980658
 40
0.8324621502980658
 40
0.8324621502980658
 40
0.8324621502980658
 10
110.0816104516606
 20
226.7353298005521
 30
0.0
 10
110.1809236192266
 20
226.7319432857324
 30
0.0
 10
110.3678659301265
 20
226.725568673767
 30
0.0
 10
110.6296436853733
 20
226.672677210795
 30
0.0
 10
110.8531050287097
 20
226.5795820771548
 30
0.0
 10
111.0393023135082
 20
226.4493487723966
 30
0.0
 10
111.1831457096928
 20
226.2770989681183
 30
0.0
 10
111.2773179786155
 20
226.0856143870953
 30
0.0
 10
111.3143934848678
 20
225.9501505138043
 30
0.0
 10
111.3267690933093
 20
225.8871683640765
 30
0.0
  0
LINE
  5
121
330
1F
100
AcDbEntity
  8
0
  6
Continuous
 62
     7
370
    25
100
AcDbLine
 10
112.8472317868
 20
225.8871683686
 30
0.0
 11
111.3267690933
 21
225.8871683641
 31
0.0
  0
SPLINE
  5
122
330
1F
100
AcDbEntity
  8
0
  6
Continuous
 62
     7
370
    25
100
AcDbSpline
210
0.0
220
0.0
230
1.0
 70
     8
 71
     3
 72
    10
 73
     6
 74
     0
 42
0.00000001
 43
0.00000001
 40
0.7126490872926213
 40
0.7126490872926213
 40
0.7126490872926213
 40
0.7126490872926213
 40
0.8191670094670285
 40
0.9149065549848338
 40
1.0
 40
1.0
 40
1.0
 40
1.0
 10
112.8472317868452
 20
225.8871683685693
 30
0.0
 10
112.8775982924716
 20
225.9662118528596
 30
0.0
 10
112.9360305363042
 20
226.1160064498923
 30
0.0
 10
113.0129098159
 20
226.3311175941057
 30
0.0
 10
113.0613765873246
 20
226.4664458869915
 30
0.0
 10
113.0841832916606
 20
226.5301264721311
 30
0.0
  0
LINE
  5
123
330
1F
100
AcDbEntity
  8
0
  6
Continuous
 62
     7
370
    25
100
AcDbLine
 10
113.0841832917
 20
226.5301264721
 30
0.0
 11
115.2730187948
 21
226.4381387732
 31
0.0
  0
SPLINE
  5
124
330
1F
100
AcDbEntity
  8
0
  6
Continuous
 62
     7
370
    25
100
AcDbSpline
210
0.0
220
0.0
230
1.0
 70
     8
 71
     3
 72
    11
 73
     7
 74
     0
 42
0.00000001
 43
0.00000001
 40
0.0
 40
0.0
 40
0.0
 40
0.0
 40
0.2693873413715207
 40
0.5237537032961076
 40
0.7663410174698732
 40
1.0
 40
1.0
 40
1.0
 40
1.0
 10
115.2730187948185
 20
226.4381387731837
 30
0.0
 10
115.3829490617382
 20
226.4862501058218
 30
0.0
 10
115.5966799078516
 20
226.579790093675
 30
0.0
 10
115.9247810766829
 20
226.6749976326398
 30
0.0
 10
116.2446587936847
 20
226.7387466703879
 30
0.0
 10
116.4567761940469
 20
226.7459483972621
 30
0.0
 10
116.5608465800816
 20
226.7494817542363
 30
0.0
  0
SPLINE
  5
125
330
1F
100
AcDbEntity
  8
0
  6
Continuous
 62
     7
370
    25
100
AcDbSpline
210
0.0
220
0.0
230
1.0
 70
     8
 71
     3
 72
    14
 73
    10
 74
     0
 42
0.00000001
 43
0.00000001
 40
0.0
 40
0.0
 40
0.0
 40
0.0
 40
0.1362536276274187
 40
0.2637680172598386
 40
0.3846555482551571
 40
0.5026354627321284
 40
0.6206537509016009
 40
0.7404733678149418
 40
0.7689770556467828
 40
0.7689770556467828
 40
0.7689770556467828
 40
0.7689770556467828
 10
116.5608465800816
 20
226.7494817542363
 30
0.0
 10
116.6893588846906
 20
226.7461737611755
 30
0.0
 10
116.9381407804131
 20
226.739769948037
 30
0.0
 10
117.2950641742386
 20
226.6686539962959
 30
0.0
 10
117.6232412069843
 20
226.5585116472858
 30
0.0
 10
117.9218973301416
 20
226.400812733589
 30
0.0
 10
118.190764133738
 20
226.1983067691579
 30
0.0
 10
118.3656457900665
 20
226.0171907746912
 30
0.0
 10
118.4536353876801
 20
225.908363155594
 30
0.0
 10
118.4701827587269
 20
225.8871683604127
 30
0.0
  0
LINE
  5
126
330
1F
100
AcDbEntity
  8
0
  6
Continuous
 62
     7
370
    25
100
AcDbLine
 10
122.1842076198
 20
225.8871683604
 30
0.0
 11
118.4701827634
 21
225.8871683641
 31
0.0
  0
SPLINE
  5
127
330
1F
100
AcDbEntity
  8
0
  6
Continuous
 62
     7
370
    25
100
AcDbSpline
210
0.0
220
0.0
230
1.0
 70
     8
 71
     3
 72
    13
 73
     9
 74
     0
 42
0.00000001
 43
0.00000001
 40
0.3311075347973982
 40
0.3311075347973982
 40
0.3311075347973982
 40
0.3311075347973982
 40
0.4168096754701793
 40
0.5414837637080314
 40
0.6602730832095696
 40
0.7753856590560024
 40
0.8885263970477177
 40
1.0
 40
1.0
 40
1.0
 40
1.0
 10
122.1842076197656
 20
225.8871683603583
 30
0.0
 10
122.275846306324
 20
225.9516708297533
 30
0.0
 10
122.5052667590685
 20
226.1035977289773
 30
0.0
 10
122.8812292074364
 20
226.3139044699592
 30
0.0
 10
123.3106464368542
 20
226.504286933634
 30
0.0
 10
123.7455510261239
 20
226.6360029622021
 30
0.0
 10
124.18309099103
 20
226.7206945239083
 30
0.0
 10
124.4769191901015
 20
226.7304755740102
 30
0.0
 10
124.6227428621869
 20
226.7353298005521
 30
0.0
  0
SPLINE
  5
128
330
1F
100
AcDbEntity
  8
0
  6
Continuous
 62
     7
370
    25
100
AcDbSpline
210
0.0
220
0.0
230
1.0
 70
     8
 71
     3
 72
    15
 73
    11
 74
     0
 42
0.00000001
 43
0.00000001
 40
0.0
 40
0.0
 40
0.0
 40
0.0
 40
0.1521028038015671
 40
0.2944227958327686
 40
0.4274751715894446
 40
0.5526137234346297
 40
0.6711864861204402
 40
0.7842142322646127
 40
0.8932447916667494
 40
1.0
 40
1.0
 40
1.0
 40
1.0
 10
124.6227428621869
 20
226.7353298005521
 30
0.0
 10
124.7250548072603
 20
226.7339550462015
 30
0.0
 10
124.9230982894494
 20
226.7312939577179
 30
0.0
 10
125.2089520760853
 20
226.6985412732154
 30
0.0
 10
125.4746888038863
 20
226.6537050198326
 30
0.0
 10
125.7191550680184
 20
226.5853730232342
 30
0.0
 10
125.9420926254106
 20
226.4955563985054
 30
0.0
 10
126.1439321622223
 20
226.386615237452
 30
0.0
 10
126.3260650928191
 20
226.2597013914806
 30
0.0
 10
126.4299642941435
 20
226.1581612478206
 30
0.0
 10
126.4813661127132
 20
226.1079265205522
 30
0.0
  0
SPLINE
  5
129
330
1F
100
AcDbEntity
  8
0
  6
Continuous
 62
     7
370
    25
100
AcDbSpline
210
0.0
220
0.0
230
1.0
 70
     8
 71
     3
 72
     9
 73
     5
 74
     0
 42
0.00000001
 43
0.00000001
 40
0.0
 40
0.0
 40
0.0
 40
0.0
 40
0.1075082328776688
 40
0.1364981581846278
 40
0.1364981581846278
 40
0.1364981581846278
 40
0.1364981581846278
 10
126.4813661127132
 20
226.1079265205522
 30
0.0
 10
126.5320930043831
 20
226.0514929936755
 30
0.0
 10
126.5964985582466
 20
225.9798419928884
 30
0.0
 10
126.6551247642067
 20
225.9035459232556
 30
0.0
 10
126.667353832237
 20
225.8871683605953
 30
0.0
  0
LINE
  5
12A
330
1F
100
AcDbEntity
  8
0
  6
Continuous
 62
     7
370
    25
100
AcDbLine
 10
129.3578825739
 20
225.8871683641
 30
0.0
 11
126.6673538369
 21
225.8871683641
 31
0.0
  0
SPLINE
  5
12B
330
1F
100
AcDbEntity
  8
0
  6
Continuous
 62
     7
370
    25
100
AcDbSpline
210
0.0
220
0.0
230
1.0
 70
     8
 71
     3
 72
    15
 73
    11
 74
     0
 42
0.00000001
 43
0.00000001
 40
0.0079961171918354
 40
0.0079961171918354
 40
0.0079961171918354
 40
0.0079961171918354
 40
0.1561585746159636
 40
0.3035090698047284
 40
0.4417519903041251
 40
0.5708892883314755
 40
0.691437054311163
 40
0.8032066945130496
 40
0.9058859103816869
 40
1.0
 40
1.0
 40
1.0
 40
1.0
 10
129.3578825727964
 20
225.8871683645409
 30
0.0
 10
129.4388196596738
 20
226.082457813362
 30
0.0
 10
129.6001409081694
 20
226.4720111312172
 30
0.0
 10
129.8306761082716
 20
227.0463527840011
 30
0.0
 10
130.0503494937859
 20
227.5957966748996
 30
0.0
 10
130.2534482398302
 20
228.1106740509121
 30
0.0
 10
130.4407052613279
 20
228.5912089806728
 30
0.0
 10
130.6070801479879
 20
229.0392933970309
 30
0.0
 10
130.7591777094288
 20
229.452446183285
 30
0.0
 10
130.8522601006196
 20
229.7173534843006
 30
0.0
 10
130.8967756621869
 20
229.8440422931837
 30
0.0
  0
LINE
  5
12C
330
1F
100
AcDbEntity
  8
0
  6
Continuous
 62
     7
370
    25
100
AcDbLine
 10
130.8967756622
 20
229.8440422932
 30
0.0
 11
133.5384736832
 21
229.6671428721
 31
0.0
  0
LINE
  5
12D
330
1F
100
AcDbEntity
  8
0
  6
Continuous
 62
     7
370
    25
100
AcDbLine
 10
133.5384736832
 20
229.6671428721
 30
0.0
 11
132.0147377357
 21
225.8871683641
 31
0.0
  0
LINE
  5
12E
330
1F
100
AcDbEntity
  8
0
  6
Continuous
 62
     7
370
    25
100
AcDbLine
 10
133.3072383599
 20
225.8871683641
 30
0.0
 11
132.0147377357
 21
225.8871683641
 31
0.0
  0
SPLINE
  5
12F
330
1F
100
AcDbEntity
  8
0
  6
Continuous
 62
     7
370
    25
100
AcDbSpline
210
0.0
220
0.0
230
1.0
 70
     8
 71
     3
 72
     9
 73
     5
 74
     0
 42
0.00000001
 43
0.00000001
 40
0.5458731066121453
 40
0.5458731066121453
 40
0.5458731066121453
 40
0.5458731066121453
 40
0.7771709648822481
 40
1.0
 40
1.0
 40
1.0
 40
1.0
 10
133.3072383602438
 20
225.8871683635543
 30
0.0
 10
133.5462646611534
 20
226.0606239606535
 30
0.0
 10
134.0148423995693
 20
226.4021824642969
 30
0.0
 10
134.4864142869972
 20
226.7395937319728
 30
0.0
 10
134.7178031569237
 20
226.9051532447627
 30
0.0
  0
LINE
  5
130
330
1F
100
AcDbEntity
  8
0
  6
Continuous
 62
     7
370
    25
100
AcDbLine
 10
134.7178031569
 20
226.9051532448
 30
0.0
 11
135.6398684896
 21
225.8871683641
 31
0.0
  0
LINE
  5
131
330
1F
100
AcDbEntity
  8
0
  6
Continuous
 62
     7
370
    25
100
AcDbLine
 10
138.03597833
 20
225.8871683641
 30
0.0
 11
135.6398684896
 21
225.8871683641
 31
0.0
  0
SPLINE
  5
132
330
1F
100
AcDbEntity
  8
0
  6
Continuous
 62
     7
370
    25
100
AcDbSpline
210
0.0
220
0.0
230
1.0
 70
     8
 71
     3
 72
     8
 73
     4
 74
     0
 42
0.00000001
 43
0.00000001
 40
0.8217941907104076
 40
0.8217941907104076
 40
0.8217941907104076
 40
0.8217941907104076
 40
1.0
 40
1.0
 40
1.0
 40
1.0
 10
138.0359783304481
 20
225.8871683639401
 30
0.0
 10
138.0731294363524
 20
226.0212833919632
 30
0.0
 10
138.1149286692697
 20
226.1542339962577
 30
0.0
 10
138.1567279021869
 20
226.2871846005521
 30
0.0
  0
LINE
  5
133
330
1F
100
AcDbEntity
  8
0
  6
Continuous
 62
     7
370
    25
100
AcDbLine
 10
139.1426473422
 20
219.4376390174
 30
0.0
 11
142.376368759
 21
219.4376390174
 31
0.0
  0
LINE
  5
134
330
1F
100
AcDbEntity
  8
0
  6
Continuous
 62
     7
370
    25
100
AcDbLine
 10
142.376368759
 20
219.4376390174
 30
0.0
 11
142.1260594152
 21
218.8871683641
 31
0.0
  0
LINE
  5
135
330
1F
100
AcDbEntity
  8
0
  6
Continuous
 62
     7
370
    25
100
AcDbLine
 10
142.1260594152
 20
218.8871683641
 30
0.0
 11
142.9591003041
 21
218.8871683641
 31
0.0
  0
LINE
  5
136
330
1F
100
AcDbEntity
  8
0
  6
Continuous
 62
     7
370
    25
100
AcDbLine
 10
142.9591003041
 20
218.8871683641
 30
0.0
 11
142.9591003041
 21
221.8871683641
 31
0.0
  0
LINE
  5
137
330
1F
100
AcDbEntity
  8
0
  6
Continuous
 62
     7
370
    25
100
AcDbLine
 10
142.9591003041
 20
221.8871683641
 30
0.0
 11
141.8677594263
 21
221.8871683738
 31
0.0
  0
SPLINE
  5
138
330
1F
100
AcDbEntity
  8
0
  6
Continuous
 62
     7
370
    25
100
AcDbSpline
210
0.0
220
0.0
230
1.0
 70
     8
 71
     3
 72
    14
 73
    10
 74
     0
 42
0.00000001
 43
0.00000001
 40
0.1926147183450623
 40
0.1926147183450623
 40
0.1926147183450623
 40
0.1926147183450623
 40
0.2142467075810699
 40
0.3299636185721835
 40
0.4515976377732659
 40
0.5795665171768916
 40
0.7139110422644354
 40
0.8539340461343129
 40
1.0
 40
1.0
 40
1.0
 40
1.0
 10
141.8677594262911
 20
221.8871683738107
 30
0.0
 10
141.844724409653
 20
221.863901977846
 30
0.0
 10
141.6981218996499
 20
221.7165179901261
 30
0.0
 10
141.4180197583372
 20
221.442328783521
 30
0.0
 10
141.0167651010578
 20
221.0619165636288
 30
0.0
 10
140.5871182975085
 20
220.6706437730433
 30
0.0
 10
140.130254387504
 20
220.2680590508213
 30
0.0
 10
139.6460679148153
 20
219.8551756904016
 30
0.0
 10
139.3128006926697
 20
219.5787640880101
 30
0.0
 10
139.1426473421869
 20
219.4376390173942
 30
0.0
  0
SPLINE
  5
139
330
1F
100
AcDbEntity
  8
0
  6
Continuous
 62
     7
370
    25
100
AcDbSpline
210
0.0
220
0.0
230
1.0
 70
     8
 71
     3
 72
     9
 73
     5
 74
     0
 42
0.00000001
 43
0.00000001
 40
0.9077716122396599
 40
0.9077716122396599
 40
0.9077716122396599
 40
0.9077716122396599
 40
0.9128495755437226
 40
1.0
 40
1.0
 40
1.0
 40
1.0
 10
141.6431260352071
 20
225.8871683634336
 30
0.0
 10
141.6454002069605
 20
225.8923466834532
 30
0.0
 10
141.6864242545788
 20
225.9865174377538
 30
0.0
 10
141.7222182380277
 20
226.0828964497904
 30
0.0
 10
141.7560414558711
 20
226.1739689710784
 30
0.0
  0
SPLINE
  5
13A
330
1F
100
AcDbEntity
  8
0
  6
Continuous
 62
     7
370
    25
100
AcDbSpline
210
0.0
220
0.0
230
1.0
 70
     8
 71
     3
 72
    15
 73
    11
 74
     0
 42
0.00000001
 43
0.00000001
 40
0.0
 40
0.0
 40
0.0
 40
0.0
 40
0.1986472138474028
 40
0.3646195694186855
 40
0.5044286111524336
 40
0.6189446840634439
 40
0.7148064684612252
 40
0.8019548267517246
 40
0.8924205346057532
 40
1.0
 40
1.0
 40
1.0
 40
1.0
 10
141.7560414558711
 20
226.1739689710784
 30
0.0
 10
141.7760104064385
 20
226.238117909436
 30
0.0
 10
141.8126636774138
 20
226.3558641281198
 30
0.0
 10
141.8479945532151
 20
226.5232482521134
 30
0.0
 10
141.8580403650754
 20
226.6653051504996
 30
0.0
 10
141.8502818938145
 20
226.7843519895794
 30
0.0
 10
141.8123946163363
 20
226.880176704721
 30
0.0
 10
141.7464619391823
 20
226.9476953286966
 30
0.0
 10
141.6576050279511
 20
226.9915318675247
 30
0.0
 10
141.5899483482446
 20
226.9936381422278
 30
0.0
 10
141.5531967863974
 20
226.9947822847627
 30
0.0
  0
SPLINE
  5
13B
330
1F
100
AcDbEntity
  8
0
  6
Continuous
 62
     7
370
    25
100
AcDbSpline
210
0.0
220
0.0
230
1.0
 70
     8
 71
     3
 72
    11
 73
     7
 74
     0
 42
0.00000001
 43
0.00000001
 40
0.0
 40
0.0
 40
0.0
 40
0.0
 40
0.0786758756396178
 40
0.270606629887288
 40
0.5791329379536072
 40
1.0
 40
1.0
 40
1.0
 40
1.0
 10
141.5531967863974
 20
226.9947822847627
 30
0.0
 10
141.5451312712427
 20
226.9887045469146
 30
0.0
 10
141.5173898339014
 20
226.9678000937637
 30
0.0
 10
141.4734626082914
 20
226.9069580090088
 30
0.0
 10
141.4052153495474
 20
226.811392751711
 30
0.0
 10
141.3539737622729
 20
226.7332473041717
 30
0.0
 10
141.3244068685027
 20
226.6881566216048
 30
0.0
  0
SPLINE
  5
13C
330
1F
100
AcDbEntity
  8
0
  6
Continuous
 62
     7
370
    25
100
AcDbSpline
210
0.0
220
0.0
230
1.0
 70
     8
 71
     3
 72
    11
 73
     7
 74
     0
 42
0.00000001
 43
0.00000001
 40
0.0
 40
0.0
 40
0.0
 40
0.0
 40
0.2062346829606087
 40
0.4396285685717563
 40
0.7041601351229883
 40
0.9999999999999999
 40
0.9999999999999999
 40
0.9999999999999999
 40
0.9999999999999999
 10
141.3244068685027
 20
226.6881566216048
 30
0.0
 10
141.2912451649226
 20
226.6399819293447
 30
0.0
 10
141.2205546677328
 20
226.5372883828682
 30
0.0
 10
141.1275631066095
 20
226.3603362549599
 30
0.0
 10
141.0349302355113
 20
226.15519281211
 30
0.0
 10
140.9820269343947
 20
226.0053939108489
 30
0.0
 10
140.9540974137658
 20
225.9263097816048
 30
0.0
  0
SPLINE
  5
13D
330
1F
100
AcDbEntity
  8
0
  6
Continuous
 62
     7
370
    25
100
AcDbSpline
210
0.0
220
0.0
230
1.0
 70
     8
 71
     3
 72
     8
 73
     4
 74
     0
 42
0.00000001
 43
0.00000001
 40
0.0
 40
0.0
 40
0.0
 40
0.0
 40
0.0319314022049374
 40
0.0319314022049374
 40
0.0319314022049374
 40
0.0319314022049374
 10
140.9540974137658
 20
225.9263097816048
 30
0.0
 10
140.9499783244233
 20
225.913263949456
 30
0.0
 10
140.9458592350808
 20
225.9002181173072
 30
0.0
 10
140.9417555997775
 20
225.8871683631988
 30
0.0
  0
LINE
  5
13E
330
1F
100
AcDbEntity
  8
0
  6
Continuous
 62
     7
370
    25
100
AcDbLine
 10
141.6431260338
 20
225.8871683641
 30
0.0
 11
140.941755597
 21
225.8871683641
 31
0.0
  0
CIRCLE
  5
13F
330
1F
100
AcDbEntity
  8
0
  6
Continuous
 62
     7
370
    25
100
AcDbCircle
 10
69.0788551419
 20
223.923500963
 30
0.0
 40
1.5
  0
SPLINE
  5
140
330
1F
100
AcDbEntity
  8
0
  6
Continuous
 62
     7
370
    25
100
AcDbSpline
210
0.0
220
0.0
230
1.0
 70
     8
 71
     3
 72
    13
 73
     9
 74
     0
 42
0.00000001
 43
0.00000001
 40
0.0
 40
0.0
 40
0.0
 40
0.0
 40
0.1425663337831059
 40
0.2748618223218728
 40
0.3980509637629578
 40
0.5157795158646858
 40
0.630978043319622
 40
0.6723872030101771
 40
0.6723872030101771
 40
0.6723872030101771
 40
0.6723872030101771
 10
79.58415026218688
 20
216.7275398868679
 30
0.0
 10
79.44395620376946
 20
216.731240901786
 30
0.0
 10
79.17366802736214
 20
216.7383763009916
 30
0.0
 10
78.78622867527702
 20
216.803211286496
 30
0.0
 10
78.4364892706306
 20
216.9191104732485
 30
0.0
 10
78.12601418611253
 20
217.0838511552529
 30
0.0
 10
77.91011708634284
 20
217.2481527062529
 30
0.0
 10
77.80151499305902
 20
217.3573749233067
 30
0.0
 10
77.77374626132425
 20
217.3871683640722
 30
0.0
  0
INSERT
  5
14C
330
1F
100
AcDbEntity
  8
0
  6
Continuous
 62
     7
370
     0
100
AcDbBlockReference
  2
SW_CENTERMARKSYMBOL_0
 10
69.0788551419
 20
223.923500963
 30
0.0
  0
ENDSEC
  0
SECTION
  2
OBJECTS
  0
DICTIONARY
  5
C
330
0
100
AcDbDictionary
281
     1
  3
ACAD_GROUP
350
D
  3
ACAD_LAYOUT
350
1A
  3
ACAD_MLINESTYLE
350
17
  3
ACAD_PLOTSETTINGS
350
19
  3
ACAD_PLOTSTYLENAME
350
E
  3
ACAD_SCALELIST
350
47
  3
DWGPROPS
350
14D
  0
DICTIONARY
  5
D
102
{ACAD_REACTORS
330
C
102
}
330
C
100
AcDbDictionary
281
     1
  0
DICTIONARY
  5
1A
102
{ACAD_REACTORS
330
C
102
}
330
C
100
AcDbDictionary
281
     1
  3
Layout1
350
1E
  3
Layout2
350
26
  3
Model
350
22
  0
DICTIONARY
  5
17
102
{ACAD_REACTORS
330
C
102
}
330
C
100
AcDbDictionary
281
     1
  3
Standard
350
18
  0
DICTIONARY
  5
19
102
{ACAD_REACTORS
330
C
102
}
330
C
100
AcDbDictionary
281
     1
  0
ACDBDICTIONARYWDFLT
  5
E
102
{ACAD_REACTORS
330
C
102
}
330
C
100
AcDbDictionary
281
     1
  3
Normal
350
F
100
AcDbDictionaryWithDefault
340
F
  0
DICTIONARY
  5
47
102
{ACAD_REACTORS
330
C
102
}
330
C
100
AcDbDictionary
281
     1
  3
A0
350
48
  3
A1
350
49
  3
A2
350
4A
  3
A3
350
4B
  3
A4
350
4C
  3
A5
350
4D
  3
A6
350
4E
  3
A7
350
4F
  3
A8
350
50
  3
A9
350
51
  3
B0
350
52
  3
B1
350
53
  3
B2
350
54
  3
B3
350
55
  3
B4
350
56
  3
B5
350
57
  3
B6
350
58
  0
XRECORD
  5
14D
102
{ACAD_REACTORS
330
C
102
}
330
C
100
AcDbXrecord
280
     1
  1
DWGPROPS COOKIE
  2

  3

  4

  6

  7

  8
purkw
  9

300
=
301
=
302
=
303
=
304
=
305
=
306
=
307
=
308
=
309
=
 40
0.0
 41
2461165.170333299
 42
2461165.170333877
  1

 90
        0
  0
LAYOUT
  5
1E
102
{ACAD_REACTORS
330
1A
102
}
330
1A
100
AcDbPlotSettings
  1

  2
none_device
  4

  6

 40
0.0
 41
0.0
 42
0.0
 43
0.0
 44
0.0
 45
0.0
 46
0.0
 47
0.0
 48
0.0
 49
0.0
140
0.0
141
0.0
142
1.0
143
1.0
 70
   688
 72
     1
 73
     0
 74
     5
  7

 75
    16
147
1.0
148
0.0
149
0.0
100
AcDbLayout
  1
Layout1
 70
     1
 71
     1
 10
0.0
 20
0.0
 11
420.0
 21
297.0
 12
0.0
 22
0.0
 32
0.0
 14
1.0000000000E+20
 24
1.0000000000E+20
 34
1.0000000000E+20
 15
-1.0000000000E+20
 25
-1.0000000000E+20
 35
-1.0000000000E+20
146
0.0
 13
0.0
 23
0.0
 33
0.0
 16
1.0
 26
0.0
 36
0.0
 17
0.0
 27
1.0
 37
0.0
 76
     0
330
1B
  0
LAYOUT
  5
26
102
{ACAD_REACTORS
330
1A
102
}
330
1A
100
AcDbPlotSettings
  1

  2
none_device
  4

  6

 40
0.0
 41
0.0
 42
0.0
 43
0.0
 44
0.0
 45
0.0
 46
0.0
 47
0.0
 48
0.0
 49
0.0
140
0.0
141
0.0
142
1.0
143
1.0
 70
   688
 72
     1
 73
     0
 74
     5
  7

 75
    16
147
1.0
148
0.0
149
0.0
100
AcDbLayout
  1
Layout2
 70
     1
 71
     2
 10
0.0
 20
0.0
 11
0.0
 21
0.0
 12
0.0
 22
0.0
 32
0.0
 14
0.0
 24
0.0
 34
0.0
 15
0.0
 25
0.0
 35
0.0
146
0.0
 13
0.0
 23
0.0
 33
0.0
 16
1.0
 26
0.0
 36
0.0
 17
0.0
 27
1.0
 37
0.0
 76
     0
330
23
  0
LAYOUT
  5
22
102
{ACAD_REACTORS
330
1A
102
}
330
1A
100
AcDbPlotSettings
  1

  2
none_device
  4
Letter_(8.50_x_11.00_Inches)
  6

 40
6.35
 41
6.35
 42
6.35000508
 43
6.35000508
 44
215.9
 45
279.4
 46
0.0
 47
0.0
 48
0.0
 49
0.0
140
0.0
141
0.0
142
1.0
143
1.0
 70
  1712
 72
     1
 73
     0
 74
     0
  7

 75
     0
147
1.0
148
0.0
149
0.0
100
AcDbLayout
  1
Model
 70
     1
 71
     0
 10
0.0
 20
0.0
 11
210.0
 21
297.0
 12
0.0
 22
0.0
 32
0.0
 14
0.0
 24
0.0
 34
0.0
 15
210.0
 25
297.0
 35
0.0
146
0.0
 13
0.0
 23
0.0
 33
0.0
 16
1.0
 26
0.0
 36
0.0
 17
0.0
 27
1.0
 37
0.0
 76
     0
330
1F
331
29
  0
MLINESTYLE
  5
18
102
{ACAD_REACTORS
330
17
102
}
330
17
100
AcDbMlineStyle
  2
Standard
 70
     0
  3

 62
   256
 51
90.0
 52
90.0
 71
     2
 49
0.5
 62
   256
  6
BYLAYER
 49
-0.5
 62
   256
  6
BYLAYER
  0
ACDBPLACEHOLDER
  5
F
102
{ACAD_REACTORS
330
E
102
}
330
E
  0
SCALE
  5
48
102
{ACAD_REACTORS
330
47
102
}
330
47
100
AcDbScale
 70
     0
300
1:1
140
1.0
141
1.0
290
     1
  0
SCALE
  5
49
102
{ACAD_REACTORS
330
47
102
}
330
47
100
AcDbScale
 70
     0
300
1:2
140
1.0
141
2.0
290
     0
  0
SCALE
  5
4A
102
{ACAD_REACTORS
330
47
102
}
330
47
100
AcDbScale
 70
     0
300
1:4
140
1.0
141
4.0
290
     0
  0
SCALE
  5
4B
102
{ACAD_REACTORS
330
47
102
}
330
47
100
AcDbScale
 70
     0
300
1:5
140
1.0
141
5.0
290
     0
  0
SCALE
  5
4C
102
{ACAD_REACTORS
330
47
102
}
330
47
100
AcDbScale
 70
     0
300
1:8
140
1.0
141
8.0
290
     0
  0
SCALE
  5
4D
102
{ACAD_REACTORS
330
47
102
}
330
47
100
AcDbScale
 70
     0
300
1:10
140
1.0
141
10.0
290
     0
  0
SCALE
  5
4E
102
{ACAD_REACTORS
330
47
102
}
330
47
100
AcDbScale
 70
     0
300
1:16
140
1.0
141
16.0
290
     0
  0
SCALE
  5
4F
102
{ACAD_REACTORS
330
47
102
}
330
47
100
AcDbScale
 70
     0
300
1:20
140
1.0
141
20.0
290
     0
  0
SCALE
  5
50
102
{ACAD_REACTORS
330
47
102
}
330
47
100
AcDbScale
 70
     0
300
1:30
140
1.0
141
30.0
290
     0
  0
SCALE
  5
51
102
{ACAD_REACTORS
330
47
102
}
330
47
100
AcDbScale
 70
     0
300
1:40
140
1.0
141
40.0
290
     0
  0
SCALE
  5
52
102
{ACAD_REACTORS
330
47
102
}
330
47
100
AcDbScale
 70
     0
300
1:50
140
1.0
141
50.0
290
     0
  0
SCALE
  5
53
102
{ACAD_REACTORS
330
47
102
}
330
47
100
AcDbScale
 70
     0
300
1:100
140
1.0
141
100.0
290
     0
  0
SCALE
  5
54
102
{ACAD_REACTORS
330
47
102
}
330
47
100
AcDbScale
 70
     0
300
2:1
140
2.0
141
1.0
290
     0
  0
SCALE
  5
55
102
{ACAD_REACTORS
330
47
102
}
330
47
100
AcDbScale
 70
     0
300
4:1
140
4.0
141
1.0
290
     0
  0
SCALE
  5
56
102
{ACAD_REACTORS
330
47
102
}
330
47
100
AcDbScale
 70
     0
300
8:1
140
8.0
141
1.0
290
     0
  0
SCALE
  5
57
102
{ACAD_REACTORS
330
47
102
}
330
47
100
AcDbScale
 70
     0
300
10:1
140
10.0
141
1.0
290
     0
  0
SCALE
  5
58
102
{ACAD_REACTORS
330
47
102
}
330
47
100
AcDbScale
 70
     0
300
100:1
140
100.0
141
1.0
290
     0
  0
ENDSEC
  0
EOF
